<svg width="171" height="38" viewBox="0 0 171 38" fill="none" xmlns="http://www.w3.org/2000/svg">
<path d="M61.3248 10.5264C62.0906 10.5239 62.8543 10.6074 63.6013 10.7753C64.2545 10.9126 64.8834 11.1466 65.4667 11.4696V13.6836C64.8172 13.4315 64.1507 13.2249 63.4721 13.0653C62.8608 12.9285 62.236 12.86 61.6093 12.8609C60.9347 12.8618 60.2646 12.9715 59.6253 13.1858C58.9651 13.4071 58.3636 13.7733 57.8652 14.2574C57.3036 14.8207 56.8728 15.4995 56.6031 16.246C56.2616 17.2241 56.101 18.2555 56.1289 19.2905C56.1199 20.116 56.239 20.9378 56.4819 21.7272C56.6985 22.435 57.057 23.0919 57.5359 23.6582C58.0131 24.2103 58.613 24.6444 59.288 24.9263C60.0583 25.2435 60.8864 25.3988 61.72 25.3822C62.398 25.3766 63.0736 25.3002 63.7356 25.1542C64.4144 25.0127 65.0785 24.8092 65.7197 24.5464V26.7603C65.4734 26.8961 65.216 27.011 64.9503 27.1035C64.6057 27.2251 64.2536 27.3249 63.8964 27.4022C63.4979 27.4914 63.0951 27.5605 62.6896 27.6092C62.2656 27.6605 61.8388 27.6859 61.4117 27.6852C60.347 27.6918 59.2885 27.5236 58.2789 27.1874C57.3184 26.8704 56.4383 26.3502 55.6994 25.6625C54.9442 24.9291 54.3597 24.0402 53.9868 23.0582C53.5345 21.8633 53.3171 20.5931 53.3465 19.3167C53.3354 18.3396 53.4487 17.3651 53.6838 16.4163C53.8775 15.6219 54.1836 14.8589 54.5928 14.15C54.9603 13.5268 55.4235 12.9646 55.9655 12.4836C56.4712 12.0383 57.0338 11.6612 57.6386 11.3622C58.2231 11.0715 58.8431 10.8575 59.483 10.7255C60.0884 10.5966 60.7056 10.5299 61.3248 10.5264Z" fill="#59595C"/>
<path d="M79.8081 25.4557H79.7396C79.4938 25.7567 79.2154 26.03 78.9096 26.2705C78.5527 26.5542 78.1647 26.7968 77.7529 26.9937C77.2956 27.2121 76.8159 27.3808 76.3222 27.4967C75.7796 27.6265 75.223 27.6899 74.6649 27.6854C73.9228 27.6945 73.1846 27.5758 72.4833 27.3343C71.8457 27.1168 71.2625 26.7656 70.7733 26.3046C70.286 25.8395 69.9066 25.2745 69.6614 24.6487C69.386 23.9442 69.2508 23.1932 69.2635 22.4374C69.2512 21.6878 69.4013 20.9443 69.7035 20.2575C69.9877 19.6292 70.4089 19.0716 70.9366 18.6252C71.499 18.1617 72.147 17.8119 72.8442 17.5955C73.6404 17.3475 74.4709 17.2255 75.3052 17.234C76.1007 17.2414 76.894 17.3168 77.6765 17.4593C78.3335 17.5817 78.9794 17.757 79.6078 17.9833H79.679V16.841C79.682 16.4444 79.652 16.0483 79.5894 15.6567C79.5399 15.3407 79.4421 15.0342 79.2996 14.7475C78.9636 14.1641 78.4648 13.69 77.8636 13.3825C77.1979 13.0209 76.3064 12.8401 75.1892 12.8401C74.4032 12.835 73.6189 12.9132 72.8495 13.0733C72.1072 13.2296 71.3786 13.4443 70.6705 13.7152V11.4856C70.9857 11.3341 71.3115 11.2053 71.6454 11.1004C72.0329 10.976 72.427 10.8728 72.8258 10.7912C73.2403 10.7074 73.6795 10.6419 74.1432 10.5947C74.6017 10.5502 75.0628 10.5266 75.5239 10.5266C77.1785 10.5266 78.5328 10.8183 79.5868 11.4017C80.571 11.9148 81.3655 12.7259 81.8554 13.7178C82.0321 14.1059 82.1562 14.5156 82.2242 14.9362C82.2998 15.4154 82.3368 15.8999 82.3349 16.3851V27.2504H80.0927L79.8081 25.4557ZM79.6711 20.1003C79.1757 19.9641 78.5917 19.8322 77.9189 19.7047C77.181 19.5759 76.4337 19.5076 75.6846 19.5003C74.5499 19.5003 73.6619 19.7405 73.0208 20.2208C72.3805 20.7029 72.0591 21.4392 72.0591 22.4374C72.0501 22.8856 72.1316 23.3311 72.2988 23.7474C72.4438 24.1081 72.669 24.4315 72.9575 24.6933C73.2467 24.9426 73.585 25.1291 73.9509 25.2409C74.3493 25.3636 74.7643 25.4245 75.1813 25.4216C75.7244 25.4216 76.2638 25.3331 76.778 25.1596C77.2371 25.0093 77.6787 24.8108 78.0955 24.5675C78.4401 24.365 78.7678 24.1355 79.0756 23.881C79.3391 23.6531 79.5393 23.4749 79.6685 23.357L79.6711 20.1003Z" fill="#59595C"/>
<path d="M100.911 18.916C100.925 19.9312 100.812 20.9443 100.573 21.9317C100.377 22.7303 100.077 23.5001 99.6801 24.2216C99.3404 24.8346 98.9015 25.3878 98.3811 25.8591C97.9154 26.2792 97.3963 26.6369 96.8371 26.9229C96.3242 27.1855 95.7796 27.3818 95.2167 27.5071C94.7083 27.6225 94.1888 27.6822 93.6674 27.6853C92.7706 27.7064 91.8793 27.5404 91.051 27.198C90.2918 26.8574 89.6125 26.3631 89.0564 25.7465H89.0064V35.2363H86.3953V10.9562H88.4135L88.9827 12.8086H89.0354C89.1993 12.5631 89.3931 12.3387 89.6124 12.1405C89.9067 11.879 90.2252 11.6456 90.5636 11.4436C91.0149 11.1748 91.4959 10.9585 91.9969 10.799C92.586 10.6163 93.2006 10.5279 93.8176 10.537C94.726 10.5353 95.6276 10.6923 96.4814 11.0008C97.3432 11.3107 98.1208 11.8157 98.7526 12.4759C99.4542 13.2246 99.9924 14.1095 100.334 15.075C100.752 16.3114 100.948 17.6118 100.911 18.916ZM98.1176 18.9526C98.1281 18.0907 98.0253 17.231 97.812 16.3955C97.6371 15.6995 97.3285 15.0438 96.903 14.4645C96.5112 13.9434 95.9999 13.523 95.4117 13.2383C94.7702 12.9417 94.069 12.7948 93.3618 12.8086C92.8464 12.8035 92.3334 12.8786 91.8415 13.0313C91.4075 13.1704 90.9918 13.3604 90.6031 13.5972C90.2575 13.806 89.9374 14.0539 89.6493 14.3361C89.4192 14.5562 89.2036 14.7907 89.0037 15.0383V23.5666C89.5611 24.1309 90.2162 24.5907 90.9377 24.9238C91.6707 25.2578 92.4685 25.4277 93.2748 25.4216C93.8242 25.4146 94.3687 25.319 94.8873 25.1386C95.4887 24.9321 96.031 24.5842 96.4682 24.1246C96.9995 23.5545 97.4044 22.8796 97.6565 22.1439C97.9957 21.1149 98.1517 20.035 98.1176 18.9526Z" fill="#59595C"/>
<path d="M104.821 7.16237V4.19385H107.495V7.16237H104.821ZM104.892 27.2582V10.9562H107.566V27.2504L104.892 27.2582Z" fill="#59595C"/>
<path d="M112.243 27.2502V2.40942H114.917V27.2502H112.243Z" fill="#59595C"/>
<path d="M119.172 27.2502V2.40942H121.847V27.2502H119.172Z" fill="#59595C"/>
<path d="M136.37 25.4557H136.299C136.053 25.7561 135.776 26.0293 135.472 26.2705C135.114 26.5536 134.726 26.7962 134.315 26.9937C133.856 27.2113 133.376 27.3799 132.882 27.4967C132.339 27.6268 131.782 27.6901 131.224 27.6854C130.483 27.6948 129.746 27.576 129.045 27.3343C128.408 27.1168 127.824 26.7656 127.335 26.3046C126.847 25.8397 126.467 25.2746 126.221 24.6487C125.947 23.9437 125.813 23.1929 125.825 22.4374C125.813 21.6878 125.963 20.9443 126.265 20.2575C126.549 19.6286 126.97 19.0709 127.499 18.6252C128.061 18.1617 128.709 17.8119 129.406 17.5955C130.201 17.3476 131.031 17.2255 131.865 17.234C132.66 17.2414 133.453 17.3168 134.236 17.4593C134.894 17.5817 135.54 17.7569 136.17 17.9833H136.238V16.841C136.241 16.4445 136.212 16.0485 136.151 15.6567C136.102 15.3403 136.004 15.0335 135.859 14.7475C135.523 14.1649 135.025 13.6909 134.426 13.3825C133.765 13.0209 132.877 12.8401 131.762 12.8401C130.975 12.835 130.19 12.9131 129.419 13.0733C128.675 13.2302 127.945 13.4457 127.235 13.7178V11.4856C127.551 11.335 127.876 11.2063 128.21 11.1004C128.598 10.976 128.993 10.8728 129.393 10.7912C129.804 10.7074 130.241 10.6419 130.71 10.5947C131.179 10.5476 131.63 10.5266 132.091 10.5266C133.748 10.5266 135.103 10.8183 136.157 11.4017C137.14 11.9155 137.935 12.7265 138.425 13.7178C138.602 14.1059 138.726 14.5156 138.794 14.9362C138.871 15.4153 138.908 15.8999 138.905 16.3851V27.2504H136.66L136.37 25.4557ZM136.23 20.1003C135.735 19.9641 135.153 19.8383 134.478 19.7047C133.74 19.5757 132.993 19.5073 132.244 19.5003C131.111 19.5003 130.224 19.7405 129.583 20.2208C128.94 20.7029 128.618 21.4392 128.618 22.4374C128.61 22.8861 128.693 23.3318 128.863 23.7474C129.008 24.1053 129.232 24.4259 129.52 24.6854C129.811 24.9348 130.151 25.1213 130.518 25.233C130.916 25.3559 131.33 25.4169 131.746 25.4138C132.289 25.414 132.828 25.3255 133.343 25.1518C133.801 25.0008 134.243 24.8023 134.66 24.5596C135.004 24.3578 135.331 24.1283 135.638 23.8732C135.906 23.6444 136.104 23.4697 136.23 23.3492V20.1003Z" fill="#59595C"/>
<path d="M152.229 13.1176H152.021C151.395 13.117 150.77 13.1749 150.155 13.2906C149.565 13.3984 148.989 13.5743 148.44 13.8146C147.923 14.0378 147.438 14.3266 146.996 14.674C146.568 15.0134 146.202 15.4248 145.916 15.8897V27.2502H143.236V10.9561H145.307L145.834 13.5447H145.887C146.162 13.112 146.49 12.7143 146.862 12.3604C147.678 11.5932 148.674 11.0419 149.76 10.757C150.351 10.602 150.959 10.5245 151.57 10.5264H151.923C152.045 10.5264 152.15 10.5421 152.245 10.5526L152.229 13.1176Z" fill="#59595C"/>
<path d="M155.117 10.9563H157.799L162.884 23.7396H162.99L168.217 10.9563H170.889L160.737 35.2364H158.081L161.583 26.9334L155.117 10.9563Z" fill="#59595C"/>
<path fill-rule="evenodd" clip-rule="evenodd" d="M24.5847 5.19193C25.4279 5.77882 26.5345 6.55698 27.433 7.25915C39.1237 1.1518 46.5355 11.2731 39.2897 17.7734C38.3508 18.5858 37.3219 19.289 36.2228 19.8695C32.534 21.9472 27.0641 24.8083 25.8152 29.3017C25.1617 31.6598 25.8863 34.4501 27.8572 35.9278C29.3538 37.0518 31.2825 37.2903 33.0531 36.8815C39.7745 35.4798 41.6321 28.348 39.6243 22.762L39.569 22.7961C40.5434 22.1862 41.4788 21.5168 42.3698 20.7917C58.3764 7.65478 42.9706 -7.11187 24.5847 5.19193ZM36.0699 24.7926C36.7181 31.3427 29.9044 35.0108 27.3065 33.0589C24.7086 31.1069 31.1428 27.4205 34.5154 25.6231L36.0699 24.7926Z" fill="url(#paint0_linear_521_1226)"/>
<path fill-rule="evenodd" clip-rule="evenodd" d="M35.4086 5.43296V0.787598C32.0993 1.26183 28.4052 2.64784 24.5847 5.20502C25.4279 5.79191 26.5345 6.57007 27.433 7.27224C30.4314 5.69235 33.1453 5.19715 35.4086 5.43296Z" fill="url(#paint1_linear_521_1226)"/>
<path fill-rule="evenodd" clip-rule="evenodd" d="M39.6322 22.7542L36.0699 24.7926C36.1721 25.7825 36.0945 26.7827 35.8407 27.7454V35.8282C40.2145 33.3156 41.3844 27.5122 39.6322 22.7542Z" fill="url(#paint2_linear_521_1226)"/>
<path fill-rule="evenodd" clip-rule="evenodd" d="M27.902 7.62081C26.827 6.77977 25.7941 5.89157 24.6612 5.12914C5.35314 -7.90827 -10.7984 9.53083 9.90613 22.8879C10.4155 21.5314 11.0322 20.2173 11.7505 18.9578C1.70917 12.7561 9.58204 0.719579 21.9051 7.25924C22.7694 7.66797 32.4445 13.398 34.908 20.6215C35.9119 20.0582 36.9527 19.5159 37.9539 18.832C36.0436 15.3893 32.015 10.9483 27.902 7.62081Z" fill="url(#paint3_linear_521_1226)"/>
<path fill-rule="evenodd" clip-rule="evenodd" d="M33.0267 12.3945C32.8923 12.5334 32.7632 12.6696 32.6157 12.7954C32.4233 12.9578 32.2231 13.1124 32.0175 13.2592C31.812 13.4059 31.5986 13.55 31.3826 13.6888L30.7476 14.1054L30.7159 14.1264C32.5129 16.0364 34.1017 18.2399 34.908 20.6084C35.9118 20.0451 36.9526 19.5027 37.9538 18.8189C36.8604 16.8748 35.1029 14.6032 33.0267 12.3945Z" fill="url(#paint4_linear_521_1226)"/>
<path fill-rule="evenodd" clip-rule="evenodd" d="M7.4583 13.9038C7.06083 14.2528 6.6342 14.5674 6.18305 14.8444C5.72986 15.13 5.26086 15.392 4.79449 15.6592C4.56263 15.7902 4.33076 15.9213 4.10153 16.0627C3.98823 16.1309 3.87757 16.2016 3.76164 16.2671C3.64571 16.3326 3.52977 16.4033 3.41648 16.4767C3.30318 16.5501 3.13455 16.6758 3.00281 16.7702C4.55999 18.8243 6.82331 20.8994 9.89816 22.888C10.4075 21.5315 11.0243 20.2174 11.7425 18.9579C9.37646 17.4933 8.00898 15.7012 7.4583 13.9038Z" fill="url(#paint5_linear_521_1226)"/>
<path fill-rule="evenodd" clip-rule="evenodd" d="M7.4583 13.9038C7.06083 14.2528 6.6342 14.5674 6.18305 14.8444C5.72986 15.13 5.26086 15.392 4.79449 15.6592C4.56263 15.7902 4.33076 15.9213 4.10153 16.0627C3.98823 16.1309 3.87757 16.2016 3.76164 16.2671C3.64571 16.3326 3.52977 16.4033 3.41648 16.4767C3.30318 16.5501 3.13455 16.6758 3.00281 16.7702C4.55999 18.8243 6.82331 20.8994 9.89816 22.888C10.4075 21.5315 11.0243 20.2174 11.7425 18.9579C9.37646 17.4933 8.00898 15.7012 7.4583 13.9038Z" fill="url(#paint6_linear_521_1226)"/>
<path fill-rule="evenodd" clip-rule="evenodd" d="M14.8464 20.7001C14.9228 20.535 15.0019 20.3726 15.0783 20.218C16.9648 16.3298 20.954 11.9622 24.756 9.05653C24.5716 8.92553 24.1922 8.65566 24.013 8.53252C23.3628 8.07487 22.6804 7.66422 21.971 7.30371C19.2598 9.50456 16.3088 12.4574 14.4433 14.8783C11.9587 18.1062 8.91016 22.2145 8.91016 27.5489C8.91016 31.8458 11.1629 35.8073 16.2877 36.8737C18.0688 37.2824 20.1556 37.044 21.6522 35.92C23.6204 34.4423 24.3951 31.6283 23.6968 29.2939C22.2977 24.6721 14.8464 20.7001 14.8464 20.7001ZM22.2398 32.8807C20.1029 35.1104 13.6897 32.0004 13.3024 26.5507C13.2594 25.9926 13.3039 25.4314 13.4342 24.8869C14.5144 25.4162 24.6612 30.3262 22.2398 32.8702V32.8807Z" fill="url(#paint7_linear_521_1226)"/>
<path fill-rule="evenodd" clip-rule="evenodd" d="M16.9701 12.5097C17.3057 12.7683 17.6447 13.0224 17.9872 13.2722C18.3297 13.522 18.6766 13.763 19.028 13.9953C19.1123 14.053 19.2019 14.1054 19.2914 14.1604C20.9473 12.2886 22.7769 10.5762 24.7561 9.04603C24.5716 8.91503 24.1922 8.64516 24.0131 8.52202C23.3628 8.06438 22.6804 7.65372 21.9711 7.29321C20.0963 8.8336 18.3271 10.4967 16.675 12.2713C16.7725 12.3525 16.87 12.4338 16.9701 12.5097Z" fill="url(#paint8_linear_521_1226)"/>
<path fill-rule="evenodd" clip-rule="evenodd" d="M14.8491 20.7002C14.2433 22.0492 13.7695 23.453 13.4342 24.8923C14.0033 25.1543 17.1994 26.7263 19.6577 28.4791H23.3754C21.4362 24.2111 14.8491 20.7002 14.8491 20.7002Z" fill="url(#paint9_linear_521_1226)"/>
<path fill-rule="evenodd" clip-rule="evenodd" d="M14.8491 20.7002C14.2433 22.0492 13.7695 23.453 13.4342 24.8923C14.0033 25.1543 17.1994 26.7263 19.6577 28.4791H23.3754C21.4362 24.2111 14.8491 20.7002 14.8491 20.7002Z" fill="url(#paint10_linear_521_1226)"/>
<defs>
<linearGradient id="paint0_linear_521_1226" x1="41.748" y1="-8.45072" x2="27.5724" y2="39.5713" gradientUnits="userSpaceOnUse">
<stop stop-color="#F05A24"/>
<stop offset="0.2" stop-color="#F05D24"/>
<stop offset="0.32" stop-color="#F58E16"/>
<stop offset="0.52" stop-color="#FDDB00"/>
<stop offset="0.55" stop-color="#EAD707"/>
<stop offset="0.65" stop-color="#AACA1F"/>
<stop offset="0.75" stop-color="#78C031"/>
<stop offset="0.83" stop-color="#54B83F"/>
<stop offset="0.9" stop-color="#3EB447"/>
<stop offset="0.94" stop-color="#36B24A"/>
</linearGradient>
<linearGradient id="paint1_linear_521_1226" x1="26.5213" y1="8.34646" x2="33.1495" y2="2.49561" gradientUnits="userSpaceOnUse">
<stop stop-color="#CF4F27"/>
<stop offset="0.32" stop-color="#D95226" stop-opacity="0.69"/>
<stop offset="1" stop-color="#F05A24" stop-opacity="0"/>
</linearGradient>
<linearGradient id="paint2_linear_521_1226" x1="35.2479" y1="24.5384" x2="37.3711" y2="28.6355" gradientUnits="userSpaceOnUse">
<stop stop-color="#76933C"/>
<stop offset="1" stop-color="#2E9C48" stop-opacity="0"/>
</linearGradient>
<linearGradient id="paint3_linear_521_1226" x1="10.4832" y1="-3.07689" x2="22.4631" y2="22.743" gradientUnits="userSpaceOnUse">
<stop stop-color="#1687C8"/>
<stop offset="0.29" stop-color="#1687C8"/>
<stop offset="0.3" stop-color="#1688C7"/>
<stop offset="0.46" stop-color="#22979A"/>
<stop offset="0.61" stop-color="#2AA377"/>
<stop offset="0.76" stop-color="#31AB5E"/>
<stop offset="0.89" stop-color="#35B04F"/>
<stop offset="1" stop-color="#36B24A"/>
</linearGradient>
<linearGradient id="paint4_linear_521_1226" x1="33.3666" y1="15.0355" x2="37.131" y2="20.7824" gradientUnits="userSpaceOnUse">
<stop stop-color="#36B24A" stop-opacity="0"/>
<stop offset="0.14" stop-color="#2DAF4A" stop-opacity="0.21"/>
<stop offset="0.46" stop-color="#1AA84A" stop-opacity="0.63"/>
<stop offset="0.68" stop-color="#0EA44A" stop-opacity="0.9"/>
<stop offset="0.8" stop-color="#09A24A"/>
</linearGradient>
<linearGradient id="paint5_linear_521_1226" x1="14.4643" y1="21.95" x2="2.93079" y2="14.7864" gradientUnits="userSpaceOnUse">
<stop offset="0.26" stop-color="#0EAB4B"/>
<stop offset="0.39" stop-color="#10A366" stop-opacity="0.78"/>
<stop offset="0.67" stop-color="#148FAB" stop-opacity="0.23"/>
<stop offset="0.78" stop-color="#1687C8" stop-opacity="0"/>
</linearGradient>
<linearGradient id="paint6_linear_521_1226" x1="14.4643" y1="21.95" x2="2.93079" y2="14.7864" gradientUnits="userSpaceOnUse">
<stop offset="0.26" stop-color="#038A45"/>
<stop offset="0.41" stop-color="#088968" stop-opacity="0.73"/>
<stop offset="0.76" stop-color="#1587C2" stop-opacity="0.05"/>
<stop offset="0.78" stop-color="#1687C8" stop-opacity="0"/>
</linearGradient>
<linearGradient id="paint7_linear_521_1226" x1="26.0023" y1="39.161" x2="14.9101" y2="15.1477" gradientUnits="userSpaceOnUse">
<stop stop-color="#FDDB00"/>
<stop offset="0.34" stop-color="#FDD901"/>
<stop offset="0.52" stop-color="#FCD104"/>
<stop offset="0.67" stop-color="#FAC308"/>
<stop offset="0.79" stop-color="#F8B00F"/>
<stop offset="0.9" stop-color="#F69818"/>
<stop offset="0.98" stop-color="#F38020"/>
</linearGradient>
<linearGradient id="paint8_linear_521_1226" x1="22.8406" y1="7.73338" x2="19.7962" y2="11.9732" gradientUnits="userSpaceOnUse">
<stop stop-color="#CF4F27"/>
<stop offset="0.18" stop-color="#D75226" stop-opacity="0.75"/>
<stop offset="0.38" stop-color="#E05525" stop-opacity="0.48"/>
<stop offset="0.58" stop-color="#E75725" stop-opacity="0.27"/>
<stop offset="0.75" stop-color="#EC5924" stop-opacity="0.12"/>
<stop offset="0.9" stop-color="#EF5A24" stop-opacity="0.03"/>
<stop offset="1" stop-color="#F05A24" stop-opacity="0"/>
</linearGradient>
<linearGradient id="paint9_linear_521_1226" x1="13.8874" y1="21.9814" x2="20.629" y2="28.2523" gradientUnits="userSpaceOnUse">
<stop stop-color="#67BB46"/>
<stop offset="0.38" stop-color="#A9D033"/>
<stop offset="0.56" stop-color="#CBDB2A"/>
<stop offset="0.71" stop-color="#D8D91F"/>
<stop offset="0.98" stop-color="#FAD502"/>
<stop offset="1" stop-color="#FDD500"/>
</linearGradient>
<linearGradient id="paint10_linear_521_1226" x1="13.8874" y1="21.9814" x2="20.629" y2="28.2523" gradientUnits="userSpaceOnUse">
<stop stop-color="#029347"/>
<stop offset="0.17" stop-color="#3DA83E" stop-opacity="0.7"/>
<stop offset="0.34" stop-color="#70BA37" stop-opacity="0.45"/>
<stop offset="0.51" stop-color="#98C931" stop-opacity="0.25"/>
<stop offset="0.67" stop-color="#B4D32D" stop-opacity="0.11"/>
<stop offset="0.84" stop-color="#C5D92B" stop-opacity="0.03"/>
<stop offset="1" stop-color="#CBDB2A" stop-opacity="0"/>
</linearGradient>
</defs>
</svg>
