<svg width="122" height="42" viewBox="0 0 122 42" fill="none" xmlns="http://www.w3.org/2000/svg">
<path d="M14.1277 21.0268L15.3483 21.447L22.5329 18.3776L20.1602 25.4553L15.5547 21.6189L14.3614 21.2429L20.9141 27.2918L24.3222 16.5786L14.1277 21.0268Z" fill="url(#paint0_linear_521_1175)" stroke="url(#paint1_linear_521_1175)" stroke-miterlimit="10"/>
<path d="M16.5786 18.2307L18.0157 16.988L20.0449 11.7777L23.5012 14.9491L18.1789 16.988L17.0758 18.0417L24.3645 15.269L19.5116 10.3384L16.5786 18.2307Z" fill="url(#paint2_linear_521_1175)" stroke="url(#paint3_linear_521_1175)" stroke-miterlimit="10"/>
<path d="M19.0564 9.55303L23.7532 13.2684L23.5925 12.6168L20.3143 9.9818L24.3401 9.31866L23.6273 12.4638L23.7988 13.1056L25.1039 8.46094L19.0564 9.55303Z" fill="url(#paint4_linear_521_1175)" stroke="url(#paint5_linear_521_1175)" stroke-miterlimit="10"/>
<path d="M19.7795 8.95374L24.5821 7.87764L24.0838 7.64308L20.7048 8.37323L22.3673 5.45661L23.9769 7.50695L24.4214 7.64955L22.2188 4.52368L19.7795 8.95374Z" fill="url(#paint6_linear_521_1175)" stroke="url(#paint7_linear_521_1175)" stroke-miterlimit="10"/>
<path d="M20.054 7.21596L18.7761 3.54614L21.9052 3.9157L21.5151 4.08077L19.3863 3.93892L20.1969 6.38852L21.5151 4.19138L22.1809 3.93892L20.054 7.21596Z" fill="url(#paint8_linear_521_1175)" stroke="url(#paint9_linear_521_1175)" stroke-miterlimit="10"/>
<path d="M47.6611 12.2662H54.4684L54.0055 15.1906H47.2025L45.3156 27.1526H42.2083L45.6268 5.45241L45.7751 4.49074C45.8512 4.02047 46.0144 3.54239 46.2649 3.04509C46.5144 2.55273 46.8455 2.10207 47.2541 1.69596C47.6649 1.28719 48.1531 0.953049 48.726 0.693543C49.2975 0.433276 49.9266 0.307617 50.6157 0.307617H57.9792L57.5697 2.89905H53.5017H51.2456C50.606 2.89905 50.059 3.11534 49.6075 3.54544C49.1581 3.97877 48.884 4.50464 48.7868 5.11999L48.7343 5.4526L47.6611 12.2662Z" fill="url(#paint10_linear_521_1175)"/>
<path d="M59.4956 0.307129H62.6031L58.3714 27.1523H55.2668L59.4956 0.307129Z" fill="url(#paint11_linear_521_1175)"/>
<path d="M73.3116 22.2642L73.206 22.9302C73.1592 23.2287 73.0481 23.6215 72.8705 24.1167C72.6982 24.6091 72.3568 25.1037 71.863 25.5966C71.363 26.0905 70.6677 26.5177 69.7725 26.8751C68.8765 27.2306 67.6925 27.4076 66.2122 27.4076C64.7324 27.4076 63.5971 27.2306 62.82 26.8751C62.0362 26.5177 61.4753 26.0905 61.1335 25.5966C60.7899 25.1035 60.6128 24.6033 60.5945 24.0977C60.5738 23.592 60.5862 23.2026 60.6293 22.93L60.6932 22.5224L63.017 7.78442H66.1213L63.8892 21.9675H63.925L63.8666 22.3398C63.8365 22.5364 63.8295 22.7704 63.8476 23.0412C63.8666 23.3123 63.9613 23.5667 64.1355 23.7997C64.3075 24.0362 64.5853 24.2325 64.9676 24.3924C65.3503 24.5535 65.884 24.6315 66.5738 24.6315C67.2878 24.6315 67.8688 24.5535 68.3163 24.3924C68.7614 24.2325 69.1121 24.0413 69.3643 23.8172C69.6243 23.5975 69.8113 23.3572 69.9248 23.0973C70.041 22.8359 70.1127 22.5972 70.1492 22.3752L70.2112 21.9675H70.251L72.4835 7.78442H75.5935L73.3116 22.2642Z" fill="url(#paint12_linear_521_1175)"/>
<path d="M83.2578 24.3752L82.8213 27.1523C81.3433 27.1523 80.2135 26.9737 79.4305 26.6162C78.6486 26.2588 78.0788 25.83 77.7281 25.3384C77.3745 24.8461 77.1876 24.3429 77.1701 23.8395C77.1497 23.3338 77.1615 22.9429 77.2047 22.671L77.3091 22.0058L79.1779 10.1537H76.8057L77.2228 7.527H79.5889L80.3657 2.60059H83.5101L82.7353 7.527H85.9128L85.5001 10.1537H82.3207L80.4983 21.708L80.4469 22.0412C80.4123 22.2644 80.4028 22.5027 80.4265 22.766C80.4469 23.0231 80.5473 23.2788 80.7312 23.5221C80.9144 23.7694 81.1966 23.9743 81.5759 24.1346C81.9606 24.2949 82.484 24.3756 83.1493 24.3756H83.2578V24.3752Z" fill="url(#paint13_linear_521_1175)"/>
<path d="M96.7245 22.2642L96.6178 22.9302C96.5729 23.2287 96.4595 23.6215 96.2864 24.1167C96.1096 24.6091 95.7712 25.1037 95.2716 25.5966C94.7775 26.0905 94.081 26.5177 93.1876 26.8751C92.2935 27.2306 91.1073 27.4076 89.6253 27.4076C88.1475 27.4076 87.0136 27.2306 86.2342 26.8751C85.4516 26.5177 84.8903 26.0905 84.5493 25.5966C84.2039 25.1035 84.0255 24.6033 84.0072 24.0977C83.989 23.592 83.9998 23.2026 84.044 22.93L84.1071 22.5224L86.4318 7.78442H89.5377L87.304 21.9675H87.3407L87.2816 22.3398C87.2508 22.5364 87.2453 22.7704 87.2633 23.0412C87.2816 23.3123 87.3778 23.5667 87.5467 23.7997C87.7194 24.0362 88 24.2325 88.3777 24.3924C88.7621 24.5535 89.2967 24.6315 89.9888 24.6315C90.7039 24.6315 91.2842 24.5535 91.7283 24.3924C92.1756 24.2325 92.5222 24.0413 92.7787 23.8172C93.0383 23.5975 93.2223 23.3572 93.336 23.0973C93.4545 22.8359 93.5269 22.5972 93.5616 22.3752L93.6266 21.9675H93.6645L95.8973 7.78442H99.0077L96.7245 22.2642Z" fill="url(#paint14_linear_521_1175)"/>
<path d="M106.92 7.5633C107.338 7.5633 107.7 7.55797 108.014 7.54541C108.323 7.53246 108.647 7.55207 108.984 7.59929L107.856 10.3042C107.561 10.3042 107.317 10.308 107.116 10.3204C106.913 10.3354 106.679 10.3379 106.41 10.3379C105.745 10.3379 105.19 10.4272 104.757 10.6014C104.323 10.7735 103.981 10.9759 103.717 11.2133C103.457 11.4458 103.28 11.6937 103.175 11.9505C103.072 12.2095 103.005 12.452 102.969 12.6736L102.917 13.0063L100.688 27.1526H97.5457L99.7913 12.8968L99.9246 12.0448C99.9681 11.7714 100.078 11.3847 100.257 10.8775C100.433 10.3745 100.772 9.87372 101.269 9.37813C101.765 8.8833 102.463 8.45758 103.358 8.10135C104.251 7.74379 105.441 7.5633 106.92 7.5633Z" fill="url(#paint15_linear_521_1175)"/>
<path d="M115.47 7.5271C117.642 7.5271 119.161 7.95244 120.04 8.80521C120.917 9.65493 121.253 10.7238 121.052 12.0082L120.773 13.784L119.496 21.8926L119.327 22.9695C119.256 23.412 119.1 23.8996 118.854 24.4279C118.612 24.9604 118.219 25.4478 117.683 25.893C117.141 26.3377 116.445 26.7073 115.58 27.0045C114.72 27.2994 113.638 27.4485 112.329 27.4485C111.024 27.4485 109.988 27.2994 109.219 27.0045C108.451 26.7073 107.869 26.3377 107.469 25.893C107.071 25.4478 106.837 24.9604 106.757 24.4279C106.682 23.8996 106.679 23.412 106.748 22.9695L107.021 21.2274C107.167 20.2905 107.546 19.4375 108.144 18.6712C108.748 17.9075 109.515 17.3637 110.458 17.0424C110.92 16.8956 111.455 16.721 112.053 16.5264C112.652 16.3269 113.233 16.1359 113.789 15.9501C114.352 15.7658 114.838 15.5992 115.257 15.4513C115.676 15.3012 115.934 15.2171 116.036 15.1902C116.144 15.1407 116.286 15.0714 116.46 14.9869C116.631 14.9008 116.805 14.7704 116.98 14.5977C117.156 14.4267 117.318 14.2299 117.463 14.0081C117.609 13.784 117.703 13.525 117.753 13.229L117.862 12.5228C117.9 12.2784 117.894 12.0255 117.835 11.7671C117.776 11.5076 117.641 11.2657 117.428 11.044C117.219 10.8218 116.918 10.6431 116.535 10.5085C116.15 10.3742 115.647 10.3042 115.03 10.3042C113.797 10.3042 112.927 10.5583 112.415 11.0642C111.906 11.5703 111.592 12.1788 111.48 12.8966H108.334L108.474 12.0084C108.572 11.3902 108.78 10.8093 109.098 10.2676C109.421 9.72423 109.874 9.24901 110.451 8.84271C111.034 8.43394 111.739 8.11389 112.563 7.87647C113.391 7.64324 114.361 7.5271 115.47 7.5271ZM117.104 17.3394C117.02 17.5856 116.863 17.7714 116.651 17.8936C116.431 18.0172 116.234 18.1053 116.052 18.1556C115.663 18.2774 115.238 18.4189 114.779 18.5788C114.324 18.7405 113.902 18.8848 113.513 19.0066C113.045 19.1529 112.601 19.3021 112.186 19.4499C111.871 19.5753 111.559 19.7467 111.253 19.967C110.999 20.164 110.758 20.4192 110.522 20.7282C110.288 21.0357 110.136 21.4239 110.063 21.8928C109.912 22.8347 110.024 23.5302 110.398 23.9856C110.77 24.4433 111.562 24.6718 112.769 24.6718C114 24.6718 114.877 24.4283 115.396 23.9489C115.916 23.467 116.247 22.7835 116.383 21.8928L117.104 17.3394Z" fill="url(#paint16_linear_521_1175)"/>
<path d="M16.6605 30.6857C16.6605 30.6857 11.0495 26.7097 5.91883 26.3316C0.788389 25.956 2.5121 28.0522 3.74911 29.0818C3.74911 29.0818 3.14944 29.6003 1.64521 28.3644C0.143066 27.128 -0.142413 23.3537 6.28799 25.1386C6.28799 25.1386 11.477 26.8403 12.5569 27.8548C12.5569 27.8548 7.78195 23.935 6.43634 20.5528L8.89667 18.9497C8.89667 18.9497 10.5213 26.1997 16.2898 29.3452C22.0586 32.4897 21.6367 33.1155 21.8767 33.696C22.1154 34.2777 20.1194 33.38 16.6605 30.6857Z" fill="url(#paint17_linear_521_1175)"/>
<path d="M41.6559 31.2156H42.7405L44.8663 36.8388H43.8368L43.3181 35.3844H41.0664L40.5594 36.8388H39.5535L41.6559 31.2156ZM42.1941 32.1622L41.3335 34.6017H43.0547L42.1941 32.1622Z" fill="url(#paint18_linear_521_1175)"/>
<path d="M48.6713 34.1246H47.7871C47.7635 33.8803 47.6705 33.6872 47.5081 33.5463C47.3457 33.4051 47.1334 33.3344 46.8715 33.3344C46.5204 33.3344 46.2551 33.4561 46.0757 33.6988C45.8964 33.942 45.8066 34.3001 45.8066 34.7736C45.8066 35.237 45.8956 35.5898 46.0738 35.833C46.252 36.0757 46.5099 36.1974 46.8479 36.1974C47.1176 36.1974 47.3358 36.1229 47.5022 35.9742C47.6686 35.8251 47.7715 35.611 47.8107 35.3309H48.6831C48.6411 35.8423 48.4505 36.2438 48.1114 36.5353C47.7721 36.8264 47.3209 36.9723 46.7576 36.9723C46.1786 36.9723 45.7201 36.7763 45.3823 36.3843C45.0445 35.9923 44.8752 35.4605 44.8752 34.7886C44.8752 34.1015 45.05 33.5627 45.3998 33.1722C45.7496 32.7813 46.2323 32.5862 46.8479 32.5862C47.3848 32.5862 47.8166 32.7231 48.1428 32.9963C48.4689 33.2701 48.645 33.6459 48.6713 34.1246Z" fill="url(#paint19_linear_521_1175)"/>
<path d="M49.2461 31.5859H50.1381V32.7197H50.8454V33.3686H50.1381V35.7927C50.1381 35.9429 50.163 36.0427 50.2129 36.0923C50.2627 36.1418 50.3555 36.1668 50.4919 36.1668C50.5155 36.1668 50.5463 36.1656 50.5843 36.163C50.6222 36.1603 50.6505 36.159 50.6688 36.159L50.8456 36.1516V36.8461C50.8245 36.8488 50.7945 36.8513 50.7551 36.8539C50.4983 36.8792 50.3177 36.8918 50.2129 36.8918C49.8593 36.8918 49.6098 36.8193 49.4643 36.6742C49.319 36.5291 49.2463 36.2711 49.2463 35.8993V33.3684H48.6411V32.7195H49.2463V31.5859H49.2461Z" fill="url(#paint20_linear_521_1175)"/>
<path d="M51.2476 31.2156H52.1514V32.1013H51.2476V31.2156ZM51.2476 32.7197H52.1514V36.8388H51.2476V32.7197Z" fill="url(#paint21_linear_521_1175)"/>
<path d="M54.7816 32.5862C55.4313 32.5862 55.9414 32.7806 56.3121 33.1699C56.6828 33.5597 56.8682 34.0966 56.8682 34.7812C56.8682 35.4659 56.6841 36.002 56.3161 36.3902C55.9479 36.7781 55.4391 36.9723 54.7894 36.9723C54.137 36.9723 53.6269 36.7788 53.2589 36.3921C52.8907 36.0051 52.7068 35.468 52.7068 34.7812C52.7068 34.0941 52.8901 33.5562 53.257 33.168C53.6237 32.7802 54.1319 32.5862 54.7816 32.5862ZM54.7896 33.3342C54.4149 33.3342 54.1268 33.4588 53.9252 33.7084C53.7234 33.958 53.6226 34.3153 53.6226 34.7812C53.6226 35.2467 53.7228 35.603 53.9233 35.8499C54.1237 36.0968 54.4124 36.2202 54.7898 36.2202C55.1645 36.2202 55.4513 36.0968 55.6504 35.8499C55.8493 35.603 55.949 35.2467 55.949 34.7812C55.949 34.3153 55.8495 33.958 55.6504 33.7084C55.4509 33.4589 55.1643 33.3342 54.7896 33.3342Z" fill="url(#paint22_linear_521_1175)"/>
<path d="M61.0662 34.2201V36.8387H60.1664V34.1319C60.1664 33.8827 60.0994 33.6916 59.9659 33.5596C59.8322 33.4273 59.6411 33.361 59.3921 33.361C59.0515 33.361 58.7861 33.4562 58.5963 33.6474C58.4063 33.8382 58.3114 34.1039 58.3114 34.4449V36.8386H57.4116V32.7194H58.28V33.2731C58.4293 33.0619 58.6161 32.8993 58.84 32.7862C59.064 32.6728 59.3096 32.6162 59.5768 32.6162C60.1112 32.6162 60.4929 32.7352 60.7221 32.9732C60.9515 33.2116 61.0662 33.627 61.0662 34.2201Z" fill="url(#paint23_linear_521_1175)"/>
<path d="M65.0482 33.9144H64.1758C64.1602 33.7111 64.0763 33.5555 63.9244 33.4489C63.7724 33.3417 63.5577 33.2886 63.28 33.2886C63.0573 33.2886 62.881 33.3291 62.7514 33.4106C62.6219 33.4921 62.5571 33.6003 62.5571 33.7353C62.5571 33.8651 62.6094 33.9698 62.7142 34.0502C62.819 34.1301 63.005 34.1996 63.2722 34.2581L63.8106 34.3763C64.3317 34.4934 64.6887 34.6425 64.8814 34.823C65.0741 35.0037 65.1703 35.2611 65.1703 35.5943C65.1703 36.0293 65.0092 36.368 64.687 36.6098C64.3648 36.8516 63.9143 36.9723 63.3353 36.9723C62.7615 36.9723 62.3174 36.8444 62.0032 36.5885C61.6888 36.333 61.5317 35.9708 61.5317 35.5027H62.408C62.4342 35.7544 62.5299 35.9423 62.6948 36.0657C62.8599 36.189 63.1008 36.2509 63.4179 36.2509C63.6798 36.2509 63.8875 36.2018 64.0408 36.1041C64.194 36.0059 64.2705 35.8732 64.2705 35.7051C64.2705 35.5805 64.2254 35.4815 64.1349 35.409C64.0446 35.3365 63.8696 35.2685 63.6103 35.2049L62.9736 35.0484C62.4916 34.9338 62.151 34.7862 61.9521 34.6055C61.7529 34.4249 61.6535 34.1794 61.6535 33.8689C61.6535 33.4744 61.802 33.162 62.0995 32.9318C62.3969 32.7016 62.8009 32.5864 63.3117 32.5864C63.8435 32.5864 64.2659 32.7066 64.579 32.9472C64.8917 33.1875 65.0482 33.5098 65.0482 33.9144Z" fill="url(#paint24_linear_521_1175)"/>
<path d="M66.498 31.2156H67.4568V32.9068L67.229 35.392H66.7377L66.498 32.9068V31.2156ZM66.5058 35.8768H67.4568V36.8388H66.5058V35.8768Z" fill="url(#paint25_linear_521_1175)"/>
<path d="M69.9648 36.8347V31.311H70.5938L74.0563 36.2668V31.311H74.5348V36.8347H73.8758L70.4434 31.879V36.8347H69.9648Z" fill="url(#paint26_linear_521_1175)"/>
<path d="M75.1646 34.8067C75.1646 34.1597 75.343 33.6361 75.6998 33.2363C76.0566 32.8369 76.5248 32.637 77.1049 32.637C77.6823 32.637 78.1508 32.8374 78.51 33.2382C78.8691 33.639 79.0485 34.162 79.0485 34.8067C79.0485 35.454 78.8691 35.9784 78.51 36.3793C78.1508 36.7801 77.6823 36.9802 77.1049 36.9802C76.5248 36.9802 76.0566 36.7801 75.6998 36.3793C75.3428 35.9784 75.1646 35.454 75.1646 34.8067ZM75.6497 34.8067C75.6497 35.3124 75.7812 35.7145 76.0444 36.013C76.3076 36.3119 76.661 36.4612 77.1049 36.4612C77.5463 36.4612 77.8988 36.3114 78.162 36.0113C78.4252 35.7116 78.5568 35.3099 78.5568 34.8069C78.5568 34.304 78.4252 33.9033 78.162 33.6047C77.8988 33.3058 77.5465 33.1564 77.1049 33.1564C76.661 33.1564 76.3076 33.3058 76.0444 33.6047C75.7812 33.9031 75.6497 34.3039 75.6497 34.8067Z" fill="url(#paint27_linear_521_1175)"/>
<path d="M80.2739 35.7552C80.2739 36.0568 80.304 36.2417 80.3643 36.31C80.4245 36.3784 80.5383 36.4127 80.7057 36.4127C80.7591 36.4127 80.8165 36.4083 80.8778 36.3997C80.939 36.3908 81.01 36.3752 81.0902 36.3529V36.8121C80.9786 36.8422 80.8744 36.8645 80.7774 36.8795C80.6804 36.8946 80.5883 36.9022 80.5014 36.9022C80.2471 36.9022 80.0658 36.8218 79.9578 36.6611C79.8496 36.5004 79.7954 36.2223 79.7954 35.8263V33.2232H79.1799V32.7826H79.7954V31.595H80.2739V32.7826H81.0969V33.2232H80.2739V35.7552Z" fill="url(#paint28_linear_521_1175)"/>
<path d="M83.9393 37.2865C83.9393 37.6599 83.8784 37.9201 83.7569 38.0671C83.6352 38.2139 83.4275 38.2872 83.1331 38.2872C83.0416 38.2872 82.9568 38.2832 82.8788 38.2743C82.8008 38.2657 82.7261 38.2528 82.6545 38.2352L82.6511 37.7686C82.7112 37.7783 82.7717 37.7857 82.8318 37.7909C82.8919 37.7956 82.9554 37.7983 83.0226 37.7983C83.192 37.7983 83.3073 37.7615 83.3687 37.6882C83.43 37.6146 83.4606 37.4447 83.4606 37.1784V32.7826H83.9391V37.2865H83.9393ZM83.461 31.9384V31.311H83.9395V31.9384H83.461Z" fill="url(#paint29_linear_521_1175)"/>
<path d="M88.0519 32.7827V36.8348H87.5937V36.0841C87.4153 36.3581 87.1977 36.566 86.9413 36.7077C86.6848 36.8497 86.3947 36.9207 86.0716 36.9207C85.5942 36.9207 85.2423 36.7973 85.016 36.5508C84.7897 36.3046 84.6765 35.9223 84.6765 35.4044V32.7827H85.148V35.0608C85.148 35.5739 85.2237 35.9316 85.3755 36.1348C85.5272 36.3373 85.7871 36.439 86.1551 36.439C86.5699 36.439 86.9111 36.3126 87.1787 36.0601C87.4463 35.8073 87.5802 35.4846 87.5802 35.091V32.7829H88.0519V32.7827Z" fill="url(#paint30_linear_521_1175)"/>
<path d="M88.4978 35.5573H88.9794C89.0128 35.8585 89.1349 36.0857 89.3459 36.239C89.5564 36.3922 89.8548 36.4688 90.2407 36.4688C90.6489 36.4688 90.9593 36.4044 91.1723 36.2761C91.3851 36.1481 91.4918 35.9619 91.4918 35.7178C91.4918 35.5461 91.4389 35.4123 91.3328 35.3163C91.2269 35.2207 91.0546 35.1528 90.8161 35.113L89.7588 34.9374C89.3461 34.87 89.049 34.7493 88.8672 34.5753C88.6853 34.4009 88.5944 34.1521 88.5944 33.8282C88.5944 33.4623 88.7384 33.1723 89.0262 32.9581C89.3137 32.7439 89.7086 32.6367 90.2105 32.6367C90.7166 32.6367 91.1143 32.753 91.4032 32.9859C91.6921 33.2191 91.8397 33.5407 91.8463 33.9516H91.3714C91.3357 33.6749 91.2153 33.4685 91.0101 33.3313C90.8048 33.1944 90.5161 33.126 90.1435 33.126C89.8113 33.126 89.5526 33.1858 89.3676 33.3052C89.1823 33.4246 89.0899 33.5889 89.0899 33.7983C89.0899 33.9727 89.149 34.1062 89.2671 34.1995C89.3854 34.2928 89.604 34.3657 89.9229 34.418L90.8562 34.5787C91.2575 34.6461 91.5464 34.7647 91.7227 34.9353C91.8988 35.1059 91.9871 35.3492 91.9871 35.6653C91.9871 36.0937 91.8342 36.4198 91.5287 36.6441C91.2233 36.868 90.7771 36.98 90.1907 36.98C89.6778 36.98 89.2745 36.857 88.9813 36.6104C88.688 36.3638 88.5269 36.013 88.4978 35.5573Z" fill="url(#paint31_linear_521_1175)"/>
<path d="M93.1355 35.7552C93.1355 36.0568 93.1655 36.2417 93.2258 36.31C93.2861 36.3784 93.3999 36.4127 93.5672 36.4127C93.6207 36.4127 93.6781 36.4083 93.7394 36.3997C93.8006 36.3908 93.8715 36.3752 93.9518 36.3529V36.8121C93.8402 36.8422 93.7359 36.8645 93.6389 36.8795C93.5419 36.8946 93.4499 36.9022 93.363 36.9022C93.1087 36.9022 92.9274 36.8218 92.8194 36.6611C92.7112 36.5004 92.657 36.2223 92.657 35.8263V33.2232H92.0415V32.7826H92.657V31.595H93.1355V32.7826H93.9585V33.2232H93.1355V35.7552Z" fill="url(#paint32_linear_521_1175)"/>
<path d="M96.3491 36.8347V31.311H96.8444V36.8347H96.3491Z" fill="url(#paint33_linear_521_1175)"/>
<path d="M97.7219 36.8348V32.7826H98.1801V33.5297C98.3564 33.2558 98.5727 33.0486 98.8292 32.9079C99.0856 32.767 99.3755 32.6968 99.699 32.6968C100.178 32.6968 100.531 32.8196 100.758 33.0646C100.984 33.31 101.097 33.6927 101.097 34.2133V36.835H100.625V34.5569C100.625 34.0415 100.55 33.6826 100.398 33.4812C100.246 33.2796 99.9867 33.1789 99.6185 33.1789C99.2037 33.1789 98.8625 33.3045 98.5949 33.5558C98.3273 33.8072 98.1934 34.131 98.1934 34.5268V36.835H97.7219V36.8348Z" fill="url(#paint34_linear_521_1175)"/>
<path d="M101.543 35.5573H102.025C102.058 35.8585 102.18 36.0857 102.392 36.239C102.602 36.3922 102.9 36.4688 103.286 36.4688C103.694 36.4688 104.005 36.4044 104.218 36.2761C104.431 36.1481 104.537 35.9619 104.537 35.7178C104.537 35.5461 104.484 35.4123 104.378 35.3163C104.273 35.2207 104.1 35.1528 103.862 35.113L102.804 34.9374C102.392 34.87 102.095 34.7493 101.913 34.5753C101.731 34.4009 101.64 34.1521 101.64 33.8282C101.64 33.4623 101.784 33.1723 102.072 32.9581C102.359 32.7439 102.754 32.6367 103.256 32.6367C103.762 32.6367 104.16 32.753 104.449 32.9859C104.738 33.2191 104.885 33.5407 104.892 33.9516H104.417C104.381 33.6749 104.261 33.4685 104.056 33.3313C103.85 33.1944 103.562 33.126 103.189 33.126C102.857 33.126 102.598 33.1858 102.413 33.3052C102.228 33.4246 102.136 33.5889 102.136 33.7983C102.136 33.9727 102.195 34.1062 102.313 34.1995C102.431 34.2928 102.649 34.3657 102.968 34.418L103.902 34.5787C104.303 34.6461 104.592 34.7647 104.768 34.9353C104.944 35.1059 105.033 35.3492 105.033 35.6653C105.033 36.0937 104.88 36.4198 104.574 36.6441C104.269 36.868 103.823 36.98 103.236 36.98C102.723 36.98 102.32 36.857 102.027 36.6104C101.733 36.364 101.572 36.013 101.543 35.5573Z" fill="url(#paint35_linear_521_1175)"/>
<path d="M105.525 31.9384V31.311H105.997V31.9384H105.525ZM105.525 36.8347V32.7826H105.997V36.8347H105.525Z" fill="url(#paint36_linear_521_1175)"/>
<path d="M110.41 36.5284C110.41 36.887 110.378 37.1577 110.313 37.341C110.249 37.524 110.14 37.6839 109.986 37.8208C109.812 37.9777 109.602 38.0948 109.358 38.1719C109.114 38.2492 108.833 38.2875 108.514 38.2875C108.021 38.2875 107.628 38.1818 107.335 37.9703C107.041 37.7588 106.879 37.465 106.848 37.089H107.339C107.375 37.3304 107.489 37.5114 107.682 37.6323C107.875 37.7532 108.147 37.8134 108.497 37.8134C109.014 37.8134 109.384 37.7186 109.606 37.5297C109.828 37.3405 109.939 37.024 109.939 36.5812V36.133C109.742 36.4093 109.529 36.6124 109.298 36.7417C109.067 36.871 108.798 36.9359 108.49 36.9359C107.919 36.9359 107.457 36.74 107.104 36.3476C106.75 35.9556 106.573 35.4421 106.573 34.8069C106.573 34.1721 106.75 33.6594 107.104 33.2685C107.457 32.8777 107.919 32.6821 108.49 32.6821C108.792 32.6821 109.061 32.748 109.298 32.8799C109.536 33.0119 109.749 33.2135 109.939 33.485V32.7828H110.41V36.5284ZM109.939 34.8067C109.939 34.314 109.808 33.9206 109.548 33.6269C109.286 33.3331 108.936 33.1863 108.497 33.1863C108.062 33.1863 107.714 33.3335 107.452 33.6288C107.19 33.9237 107.059 34.3163 107.059 34.8069C107.059 35.3 107.19 35.6934 107.452 35.9872C107.714 36.2809 108.062 36.4277 108.497 36.4277C108.937 36.4277 109.286 36.2815 109.548 35.9889C109.808 35.6962 109.939 35.3023 109.939 34.8067Z" fill="url(#paint37_linear_521_1175)"/>
<path d="M111.185 36.8347V31.311H111.643V33.5295C111.819 33.2555 112.035 33.0484 112.292 32.9077C112.548 32.7668 112.838 32.6965 113.161 32.6965C113.641 32.6965 113.994 32.8193 114.22 33.0644C114.447 33.3098 114.56 33.6925 114.56 34.213V36.8347H114.088V34.5567C114.088 34.0413 114.012 33.6824 113.861 33.4809C113.709 33.2795 113.45 33.1786 113.081 33.1786C112.666 33.1786 112.325 33.3043 112.058 33.5556C111.79 33.8069 111.656 34.1308 111.656 34.5266V36.8347H111.185Z" fill="url(#paint38_linear_521_1175)"/>
<path d="M116 35.7552C116 36.0568 116.03 36.2417 116.09 36.31C116.15 36.3784 116.264 36.4127 116.431 36.4127C116.485 36.4127 116.542 36.4083 116.603 36.3997C116.665 36.3908 116.736 36.3752 116.816 36.3529V36.8121C116.704 36.8422 116.6 36.8645 116.503 36.8795C116.406 36.8946 116.314 36.9022 116.227 36.9022C115.973 36.9022 115.792 36.8218 115.684 36.6611C115.575 36.5004 115.521 36.2223 115.521 35.8263V33.2232H114.906V32.7826H115.521V31.595H116V32.7826H116.823V33.2232H116V35.7552Z" fill="url(#paint39_linear_521_1175)"/>
<path d="M116.813 35.5573H117.295C117.329 35.8585 117.451 36.0857 117.662 36.239C117.872 36.3922 118.17 36.4688 118.556 36.4688C118.965 36.4688 119.275 36.4044 119.488 36.2761C119.701 36.1481 119.807 35.9619 119.807 35.7178C119.807 35.5461 119.755 35.4123 119.648 35.3163C119.543 35.2207 119.37 35.1528 119.132 35.113L118.074 34.9374C117.662 34.87 117.365 34.7493 117.183 34.5753C117.001 34.4009 116.91 34.1521 116.91 33.8282C116.91 33.4623 117.054 33.1723 117.342 32.9581C117.629 32.7439 118.024 32.6367 118.526 32.6367C119.032 32.6367 119.43 32.753 119.719 32.9859C120.008 33.2191 120.155 33.5407 120.162 33.9516H119.687C119.651 33.6749 119.531 33.4685 119.326 33.3313C119.121 33.1944 118.832 33.126 118.459 33.126C118.127 33.126 117.868 33.1858 117.683 33.3052C117.498 33.4246 117.405 33.5889 117.405 33.7983C117.405 33.9727 117.465 34.1062 117.583 34.1995C117.701 34.2928 117.919 34.3657 118.239 34.418L119.172 34.5787C119.573 34.6461 119.862 34.7647 120.038 34.9353C120.214 35.1059 120.303 35.3492 120.303 35.6653C120.303 36.0937 120.15 36.4198 119.844 36.6441C119.539 36.868 119.093 36.98 118.506 36.98C117.993 36.98 117.59 36.857 117.297 36.6104C117.004 36.364 116.842 36.013 116.813 35.5573Z" fill="url(#paint40_linear_521_1175)"/>
<path d="M31.7149 40.1424C31.7149 40.1424 29.9649 37.8617 24.909 34.0959C19.8531 30.3301 18.4067 29.3401 15.3211 26.4069C12.2354 23.4741 9.47302 19.6091 9.22177 14.5922C8.97053 9.5754 11.1089 2.6489 16.9658 0.749354C16.9658 0.749354 20.1959 -0.329792 23.3637 2.46479C26.5316 5.25938 26.8108 10.4059 26.7722 11.9233C26.7335 13.4408 26.2908 17.3052 25.492 20.1673C25.492 20.1673 28.5155 16.6367 32.8014 18.2307C37.0874 19.8246 37.806 25.4848 35.5448 30.0164C35.5448 30.0164 33.5506 33.5952 28.2659 34.3415L27.4249 33.8849C27.4249 33.8849 30.9252 33.3279 33.2296 31.2886C35.5339 29.2489 36.91 24.0037 33.8762 21.0732C30.8425 18.1429 26.2856 20.1744 24.1262 22.6015C24.1262 22.6015 25.2927 18.9401 25.6215 16.1453C25.9503 13.3505 25.8967 9.88174 24.9937 7.57056C24.0906 5.25938 22.5957 2.23594 18.3213 2.27212C14.047 2.30829 11.5682 5.77592 11.0459 10.8645C10.5236 15.9532 11.2083 19.2927 14.0042 23.4299C14.0042 23.4299 16.0183 26.111 19.379 28.5359C19.379 28.5359 21.9 30.3646 25.0399 32.4564C25.0399 32.4564 28.3658 34.3623 30.254 35.9939C30.254 35.9939 32.6189 37.7722 31.7149 40.1424Z" fill="url(#paint41_linear_521_1175)" stroke="url(#paint42_linear_521_1175)" stroke-miterlimit="10"/>
<path d="M26.8063 31.5875C26.8063 31.5875 26.9762 28.4565 27.9148 27.3728C28.8536 26.2897 29.4171 24.3391 27.7564 23.6605C26.0956 22.9816 23.656 25.799 23.4017 27.2222C23.1476 28.6458 24.4516 29.5698 25.9902 28.7903L29.8199 26.1349L31.3809 25.0729L32.2061 26.0424L28.4013 28.5163C28.4013 28.5163 27.3182 29.263 26.6951 29.6326C26.072 30.0021 24.0202 30.6053 22.8469 29.328C21.6736 28.0506 22.7731 25.3602 23.4019 24.6131C24.0307 23.8664 25.7698 21.7334 28.4171 22.8095C28.4171 22.8095 29.5468 23.2483 29.7469 24.9592C29.7469 24.9592 29.7861 25.4765 29.6763 26.0734C29.5666 26.6703 28.3399 28.7046 28.3399 28.7046C28.3399 28.7046 27.7088 31.0381 27.6272 31.96L26.8063 31.5875Z" fill="url(#paint43_linear_521_1175)" stroke="url(#paint44_linear_521_1175)" stroke-miterlimit="10"/>
<defs>
<linearGradient id="paint0_linear_521_1175" x1="14.1277" y1="21.9352" x2="24.3223" y2="21.9352" gradientUnits="userSpaceOnUse">
<stop stop-color="#283984"/>
<stop offset="1" stop-color="#3E63AF"/>
</linearGradient>
<linearGradient id="paint1_linear_521_1175" x1="13.8657" y1="21.9352" x2="24.4765" y2="21.9352" gradientUnits="userSpaceOnUse">
<stop stop-color="#283984"/>
<stop offset="1" stop-color="#3E63AF"/>
</linearGradient>
<linearGradient id="paint2_linear_521_1175" x1="16.5786" y1="14.2845" x2="24.3644" y2="14.2845" gradientUnits="userSpaceOnUse">
<stop stop-color="#283984"/>
<stop offset="1" stop-color="#3E63AF"/>
</linearGradient>
<linearGradient id="paint3_linear_521_1175" x1="16.3602" y1="14.3552" x2="24.5345" y2="14.3552" gradientUnits="userSpaceOnUse">
<stop stop-color="#283984"/>
<stop offset="1" stop-color="#3E63AF"/>
</linearGradient>
<linearGradient id="paint4_linear_521_1175" x1="19.0564" y1="10.8646" x2="25.104" y2="10.8646" gradientUnits="userSpaceOnUse">
<stop stop-color="#283984"/>
<stop offset="1" stop-color="#3E63AF"/>
</linearGradient>
<linearGradient id="paint5_linear_521_1175" x1="18.8319" y1="10.9278" x2="25.2367" y2="10.9278" gradientUnits="userSpaceOnUse">
<stop stop-color="#283984"/>
<stop offset="1" stop-color="#3E63AF"/>
</linearGradient>
<linearGradient id="paint6_linear_521_1175" x1="19.7796" y1="6.73871" x2="24.582" y2="6.73871" gradientUnits="userSpaceOnUse">
<stop stop-color="#283984"/>
<stop offset="1" stop-color="#3E63AF"/>
</linearGradient>
<linearGradient id="paint7_linear_521_1175" x1="19.5945" y1="6.71863" x2="24.8738" y2="6.71863" gradientUnits="userSpaceOnUse">
<stop stop-color="#283984"/>
<stop offset="1" stop-color="#3E63AF"/>
</linearGradient>
<linearGradient id="paint8_linear_521_1175" x1="18.7762" y1="5.38107" x2="22.1809" y2="5.38107" gradientUnits="userSpaceOnUse">
<stop stop-color="#283984"/>
<stop offset="1" stop-color="#3E63AF"/>
</linearGradient>
<linearGradient id="paint9_linear_521_1175" x1="18.6363" y1="5.43221" x2="22.419" y2="5.43221" gradientUnits="userSpaceOnUse">
<stop stop-color="#283984"/>
<stop offset="1" stop-color="#3E63AF"/>
</linearGradient>
<linearGradient id="paint10_linear_521_1175" x1="44.2962" y1="13.8783" x2="107.209" y2="23.7892" gradientUnits="userSpaceOnUse">
<stop stop-color="#283984"/>
<stop offset="1" stop-color="#3E63AF"/>
</linearGradient>
<linearGradient id="paint11_linear_521_1175" x1="44.2962" y1="13.878" x2="107.209" y2="23.7889" gradientUnits="userSpaceOnUse">
<stop stop-color="#283984"/>
<stop offset="1" stop-color="#3E63AF"/>
</linearGradient>
<linearGradient id="paint12_linear_521_1175" x1="44.2962" y1="13.878" x2="107.209" y2="23.7889" gradientUnits="userSpaceOnUse">
<stop stop-color="#283984"/>
<stop offset="1" stop-color="#3E63AF"/>
</linearGradient>
<linearGradient id="paint13_linear_521_1175" x1="44.2961" y1="13.878" x2="107.209" y2="23.7889" gradientUnits="userSpaceOnUse">
<stop stop-color="#283984"/>
<stop offset="1" stop-color="#3E63AF"/>
</linearGradient>
<linearGradient id="paint14_linear_521_1175" x1="44.2963" y1="13.878" x2="107.209" y2="23.7889" gradientUnits="userSpaceOnUse">
<stop stop-color="#283984"/>
<stop offset="1" stop-color="#3E63AF"/>
</linearGradient>
<linearGradient id="paint15_linear_521_1175" x1="44.2964" y1="13.8781" x2="107.21" y2="23.789" gradientUnits="userSpaceOnUse">
<stop stop-color="#283984"/>
<stop offset="1" stop-color="#3E63AF"/>
</linearGradient>
<linearGradient id="paint16_linear_521_1175" x1="44.2962" y1="13.8781" x2="107.209" y2="23.789" gradientUnits="userSpaceOnUse">
<stop stop-color="#283984"/>
<stop offset="1" stop-color="#3E63AF"/>
</linearGradient>
<linearGradient id="paint17_linear_521_1175" x1="0.830681" y1="25.3438" x2="22.3985" y2="26.923" gradientUnits="userSpaceOnUse">
<stop stop-color="#283984"/>
<stop offset="1" stop-color="#3E63AF"/>
</linearGradient>
<linearGradient id="paint18_linear_521_1175" x1="39.5534" y1="34.0939" x2="67.457" y2="34.0939" gradientUnits="userSpaceOnUse">
<stop offset="1" stop-color="#3E63AF"/>
</linearGradient>
<linearGradient id="paint19_linear_521_1175" x1="39.5534" y1="34.0938" x2="67.457" y2="34.0938" gradientUnits="userSpaceOnUse">
<stop offset="1" stop-color="#3E63AF"/>
</linearGradient>
<linearGradient id="paint20_linear_521_1175" x1="39.5533" y1="34.0939" x2="67.4569" y2="34.0939" gradientUnits="userSpaceOnUse">
<stop offset="1" stop-color="#3E63AF"/>
</linearGradient>
<linearGradient id="paint21_linear_521_1175" x1="39.5533" y1="34.0939" x2="67.457" y2="34.0939" gradientUnits="userSpaceOnUse">
<stop offset="1" stop-color="#3E63AF"/>
</linearGradient>
<linearGradient id="paint22_linear_521_1175" x1="39.5535" y1="34.0938" x2="67.457" y2="34.0938" gradientUnits="userSpaceOnUse">
<stop offset="1" stop-color="#3E63AF"/>
</linearGradient>
<linearGradient id="paint23_linear_521_1175" x1="39.5533" y1="34.0938" x2="67.4569" y2="34.0938" gradientUnits="userSpaceOnUse">
<stop offset="1" stop-color="#3E63AF"/>
</linearGradient>
<linearGradient id="paint24_linear_521_1175" x1="39.5535" y1="34.0939" x2="67.457" y2="34.0939" gradientUnits="userSpaceOnUse">
<stop offset="1" stop-color="#3E63AF"/>
</linearGradient>
<linearGradient id="paint25_linear_521_1175" x1="39.5534" y1="34.0939" x2="67.4569" y2="34.0939" gradientUnits="userSpaceOnUse">
<stop offset="1" stop-color="#3E63AF"/>
</linearGradient>
<linearGradient id="paint26_linear_521_1175" x1="69.9648" y1="34.7992" x2="120.303" y2="34.7992" gradientUnits="userSpaceOnUse">
<stop stop-color="#283984"/>
<stop offset="1" stop-color="#3E63AF"/>
</linearGradient>
<linearGradient id="paint27_linear_521_1175" x1="69.9647" y1="34.7992" x2="120.303" y2="34.7992" gradientUnits="userSpaceOnUse">
<stop stop-color="#283984"/>
<stop offset="1" stop-color="#3E63AF"/>
</linearGradient>
<linearGradient id="paint28_linear_521_1175" x1="69.9647" y1="34.7992" x2="120.303" y2="34.7992" gradientUnits="userSpaceOnUse">
<stop stop-color="#283984"/>
<stop offset="1" stop-color="#3E63AF"/>
</linearGradient>
<linearGradient id="paint29_linear_521_1175" x1="69.9647" y1="34.7992" x2="120.303" y2="34.7992" gradientUnits="userSpaceOnUse">
<stop stop-color="#283984"/>
<stop offset="1" stop-color="#3E63AF"/>
</linearGradient>
<linearGradient id="paint30_linear_521_1175" x1="69.9647" y1="34.7993" x2="120.303" y2="34.7993" gradientUnits="userSpaceOnUse">
<stop stop-color="#283984"/>
<stop offset="1" stop-color="#3E63AF"/>
</linearGradient>
<linearGradient id="paint31_linear_521_1175" x1="69.9647" y1="34.7992" x2="120.303" y2="34.7992" gradientUnits="userSpaceOnUse">
<stop stop-color="#283984"/>
<stop offset="1" stop-color="#3E63AF"/>
</linearGradient>
<linearGradient id="paint32_linear_521_1175" x1="69.9647" y1="34.7992" x2="120.303" y2="34.7992" gradientUnits="userSpaceOnUse">
<stop stop-color="#283984"/>
<stop offset="1" stop-color="#3E63AF"/>
</linearGradient>
<linearGradient id="paint33_linear_521_1175" x1="69.9646" y1="34.7992" x2="120.303" y2="34.7992" gradientUnits="userSpaceOnUse">
<stop stop-color="#283984"/>
<stop offset="1" stop-color="#3E63AF"/>
</linearGradient>
<linearGradient id="paint34_linear_521_1175" x1="69.9647" y1="34.7992" x2="120.303" y2="34.7992" gradientUnits="userSpaceOnUse">
<stop stop-color="#283984"/>
<stop offset="1" stop-color="#3E63AF"/>
</linearGradient>
<linearGradient id="paint35_linear_521_1175" x1="69.9646" y1="34.7992" x2="120.303" y2="34.7992" gradientUnits="userSpaceOnUse">
<stop stop-color="#283984"/>
<stop offset="1" stop-color="#3E63AF"/>
</linearGradient>
<linearGradient id="paint36_linear_521_1175" x1="69.965" y1="34.7992" x2="120.303" y2="34.7992" gradientUnits="userSpaceOnUse">
<stop stop-color="#283984"/>
<stop offset="1" stop-color="#3E63AF"/>
</linearGradient>
<linearGradient id="paint37_linear_521_1175" x1="69.9646" y1="34.7993" x2="120.303" y2="34.7993" gradientUnits="userSpaceOnUse">
<stop stop-color="#283984"/>
<stop offset="1" stop-color="#3E63AF"/>
</linearGradient>
<linearGradient id="paint38_linear_521_1175" x1="69.9647" y1="34.7992" x2="120.303" y2="34.7992" gradientUnits="userSpaceOnUse">
<stop stop-color="#283984"/>
<stop offset="1" stop-color="#3E63AF"/>
</linearGradient>
<linearGradient id="paint39_linear_521_1175" x1="69.9648" y1="34.7992" x2="120.303" y2="34.7992" gradientUnits="userSpaceOnUse">
<stop stop-color="#283984"/>
<stop offset="1" stop-color="#3E63AF"/>
</linearGradient>
<linearGradient id="paint40_linear_521_1175" x1="69.9648" y1="34.7992" x2="120.303" y2="34.7992" gradientUnits="userSpaceOnUse">
<stop stop-color="#283984"/>
<stop offset="1" stop-color="#3E63AF"/>
</linearGradient>
<linearGradient id="paint41_linear_521_1175" x1="9.20207" y1="20.3434" x2="36.801" y2="20.3434" gradientUnits="userSpaceOnUse">
<stop stop-color="#283984"/>
<stop offset="1" stop-color="#3E63AF"/>
</linearGradient>
<linearGradient id="paint42_linear_521_1175" x1="9.10697" y1="20.3924" x2="36.8961" y2="20.3924" gradientUnits="userSpaceOnUse">
<stop stop-color="#283984"/>
<stop offset="1" stop-color="#3E63AF"/>
</linearGradient>
<linearGradient id="paint43_linear_521_1175" x1="22.3289" y1="27.2362" x2="32.2062" y2="27.2362" gradientUnits="userSpaceOnUse">
<stop stop-color="#283984"/>
<stop offset="1" stop-color="#3E63AF"/>
</linearGradient>
<linearGradient id="paint44_linear_521_1175" x1="22.2338" y1="27.2596" x2="32.3489" y2="27.2596" gradientUnits="userSpaceOnUse">
<stop stop-color="#283984"/>
<stop offset="1" stop-color="#3E63AF"/>
</linearGradient>
</defs>
</svg>
