<svg width="159" height="36" viewBox="0 0 159 36" fill="none" xmlns="http://www.w3.org/2000/svg">
<g clip-path="url(#clip0_521_1452)">
<path d="M85.4504 21.7855L82.743 20.183C79.6972 18.4962 78.0898 17.3999 78.0898 15.3758C78.0898 13.8578 79.4434 12.6769 81.2201 12.6769C84.7735 12.6769 86.4656 15.4601 86.8887 18.918H87.4809L88.8346 11.4119C87.6501 10.9059 85.7887 10.5686 83.9275 10.5686C77.4129 10.5686 74.1979 14.0264 74.1979 17.9903C74.1979 21.3637 76.9899 23.1348 79.1896 24.3155L82.9123 26.424C85.3658 27.689 86.5502 28.9541 86.5502 30.8096C86.5502 32.2433 85.4504 33.93 82.9123 33.93C79.4434 33.93 76.6514 30.8096 75.5516 26.3396H75.044L73.6056 28.2794C71.7443 30.4721 69.6292 32.2433 66.245 32.2433C60.9995 32.2433 58.5459 28.3637 58.5459 23.1348H71.4059V19.6769C71.4059 14.8698 69.037 10.6529 63.2838 10.6529C56.5154 10.6529 53.2158 16.7251 53.2158 23.5565C53.2158 26.5926 53.9773 29.1228 55.2464 31.1469C54.4003 32.0746 53.2158 33.0866 51.6083 33.0866C49.9163 33.0866 49.0702 31.4842 49.0702 29.0385V0.954102C48.901 1.03844 48.7318 1.12278 48.5625 1.20711C46.6166 2.13483 44.84 2.80953 42.8941 3.31555C42.9787 3.48422 43.0632 3.6529 43.0632 3.82157C43.9093 6.01435 43.9939 8.6288 43.9939 11.4119V28.0264C43.9939 29.2914 44.1631 30.3878 44.4169 31.3155C43.7401 32.2433 42.8095 33.2553 41.5403 33.2553C39.9329 33.2553 38.6638 31.9903 38.6638 29.4601V19.7614C38.6638 15.5444 37.8178 10.5686 30.7955 10.5686C24.6194 10.5686 22.0812 14.4481 22.0812 18.2433L26.7345 20.0144C26.7345 20.0144 26.1422 12.2553 30.3724 12.2553C33.7567 12.2553 33.6721 16.0505 33.6721 19.3396V20.5203C33.6721 21.2794 31.8954 22.2914 28.5111 23.5565C25.5499 24.7372 21.0659 26.2553 21.0659 30.5565C21.0659 33.6769 23.3502 35.9541 26.7345 35.9541C29.4418 35.9541 32.0646 34.436 33.7567 32.0746C33.8413 33.2553 35.7026 35.9541 38.5791 35.9541C41.5403 35.9541 43.5708 34.183 44.84 32.4962C45.9398 34.8578 47.8858 35.9541 50.1701 35.9541C52.6236 35.9541 54.5695 33.8457 55.8386 31.9903C57.7846 34.436 60.5764 35.9541 63.7915 35.9541C67.768 35.9541 70.5598 33.3396 72.1674 30.8096C73.1826 32.1589 76.3976 35.9541 81.4739 35.9541C85.7042 35.9541 89.7652 33.171 89.7652 28.2794C89.8498 24.6528 87.3963 22.8819 85.4504 21.7855ZM33.7567 30.8939C32.6569 31.7373 31.3031 32.4962 29.8649 32.4962C27.4113 32.4962 26.2268 30.7252 26.2268 28.6167C26.2268 25.8337 27.6652 24.5685 32.0646 24.5685C33.5874 24.5685 33.7567 24.7372 33.7567 25.6649V30.8939ZM58.5459 21.1107C58.5459 15.3758 59.8997 12.3396 62.607 12.3396C64.8068 12.3396 66.3296 14.5324 66.3296 19.5083C66.3296 21.4481 66.0758 21.701 64.5529 21.701H58.6305L58.5459 21.1107Z" fill="#06492E"/>
<path d="M98.564 28.0293V0.957031C96.4489 1.96908 94.5029 2.72812 92.3878 3.31848C93.4031 5.51125 93.4877 8.37871 93.4877 11.3305V27.945C93.4877 30.5595 93.3185 32.5836 92.3032 35.2823H100.341C100.425 35.2823 98.564 32.9209 98.564 28.0293Z" fill="#06492E"/>
<path d="M111.931 10.5747C105.925 10.5747 101.864 15.635 101.864 23.3939C101.864 30.647 105.586 35.9603 111.509 35.9603C117.515 35.9603 121.577 30.9843 121.577 23.3096C121.577 16.0566 117.854 10.5747 111.931 10.5747ZM112.1 34.0205C108.801 34.0205 107.363 28.1169 107.363 21.7916C107.363 15.8036 108.632 12.3458 111.254 12.3458C114.639 12.3458 115.992 18.5025 115.992 24.8277C115.992 30.9843 114.639 34.0205 112.1 34.0205Z" fill="#06492E"/>
<path d="M143.32 12.3439H150.258V10.9945H143.32V4.24752C141.628 5.3439 139.852 6.18727 137.99 6.86197C138.16 8.63306 138.16 9.72945 138.244 10.9945H129.868C129.191 8.97041 128.768 7.28366 128.768 5.93427C128.768 4.24752 129.36 3.31981 130.714 3.31981C132.068 3.31981 133.422 5.00656 134.606 9.22342H135.198L136.637 1.63306C136.637 1.63306 135.452 0.874023 133.76 0.874023C127.583 0.874023 125.13 5.59691 125.046 10.9102H122.253V12.2596H125.046V12.5125V27.3559C125.046 29.9704 124.961 32.4162 123.861 35.2836H131.222C130.121 32.5005 130.037 29.9704 130.037 27.3559V12.5969V12.3439H138.244V12.5969V29.2957C138.244 33.6812 140.02 35.9584 142.982 35.9584C146.45 35.9584 148.904 33.0909 148.904 30.3921C147.72 31.2355 146.789 31.8259 145.773 31.8259C143.32 31.8259 143.32 29.127 143.32 28.0307V12.5969V12.3439Z" fill="#06492E"/>
<path d="M5.49871 9.72782C5.49871 7.53505 7.61384 5.76396 10.3212 5.76396C13.79 5.76396 15.9052 7.36637 17.0896 15.7158H17.8511L18.9509 4.33023C11.0826 1.63143 1.43766 4.49891 1.26846 12.6796C1.26846 21.5351 15.3975 21.535 15.3975 29.6314C15.3975 31.9928 13.2824 33.5953 10.9134 33.5953C4.65266 33.5953 3.21437 28.3664 2.87595 22.8844H2.1145L0.0839844 33.1736C0.0839844 33.1736 4.73726 35.8724 9.72896 35.8724C15.736 35.788 19.7124 31.4025 19.8816 26.7639C19.8816 17.9085 5.49871 16.0532 5.49871 9.72782Z" fill="#06492E"/>
<path d="M151.527 32.7547C151.527 31.068 152.881 29.6343 154.657 29.6343C156.519 29.6343 157.873 31.068 157.873 32.7547C157.873 34.4415 156.519 35.8752 154.743 35.8752C152.797 35.9595 151.527 34.4415 151.527 32.7547Z" fill="#B4D625"/>
</g>
<defs>
<clipPath id="clip0_521_1452">
<rect width="158" height="35" fill="white" transform="translate(0.0839844 0.957031)"/>
</clipPath>
</defs>
</svg>
