<svg width="264" height="52" viewBox="0 0 264 52" fill="none" xmlns="http://www.w3.org/2000/svg">
<g clip-path="url(#clip0_521_1450)">
<path fill-rule="evenodd" clip-rule="evenodd" d="M260.24 24.0266C261.783 25.6551 262.554 27.8604 262.554 30.6478V45.3393H256.833V32.3185C256.833 30.676 256.367 29.3799 255.438 28.4249C254.505 27.4735 253.237 26.9969 251.636 26.9969C249.743 27.0251 248.244 27.6722 247.137 28.9314C246.031 30.1923 245.479 31.805 245.479 33.7694V45.3393H239.8V12.6993H245.479V26.2935C247.08 23.2124 249.89 21.6454 253.907 21.5857C256.586 21.5857 258.697 22.3999 260.24 24.0266ZM227.19 26.6452C225.296 26.6452 223.762 27.2889 222.582 28.5797C221.404 29.8705 220.813 31.543 220.813 33.5953C220.813 35.7056 221.404 37.4062 222.584 38.697C223.762 39.9879 225.298 40.6315 227.192 40.6315C229.986 40.6315 232.083 39.7082 233.481 37.8617L237.017 40.8074C235.972 42.331 234.54 43.5466 232.869 44.3281C231.151 45.1494 229.157 45.5592 226.885 45.5592C224.584 45.5592 222.54 45.0615 220.748 44.0643C218.984 43.0941 217.537 41.6349 216.579 39.8612C215.588 38.0587 215.092 35.9852 215.092 33.6392C215.092 31.2633 215.595 29.1671 216.6 27.3487C217.566 25.5686 219.021 24.1033 220.792 23.1262C222.582 22.1291 224.642 21.6314 226.972 21.6314C229.097 21.6314 230.998 22.0042 232.672 22.7516C234.347 23.499 235.707 24.563 236.758 25.94L233.305 29.2392C231.733 27.5104 229.695 26.6452 227.192 26.6452H227.19ZM211.478 21.8055V45.3393H205.799V41.6005C204.991 42.8581 203.869 43.882 202.545 44.5708C201.219 45.2602 199.699 45.6031 197.981 45.6031C195.768 45.6031 193.826 45.0967 192.149 44.0854C190.475 43.0742 189.172 41.6515 188.239 39.819C187.31 37.9865 186.844 35.8815 186.844 33.5056C186.844 31.1613 187.308 29.0862 188.241 27.2818C189.17 25.4792 190.475 24.0776 192.151 23.0822C193.824 22.0851 195.752 21.5857 197.937 21.5857C199.655 21.5857 201.184 21.9303 202.524 22.6197C203.857 23.3035 204.986 24.3274 205.799 25.5883V21.8072H211.478V21.8055ZM203.746 39.0716C204.94 37.9127 205.624 36.3809 205.799 34.4746V32.8039C205.624 30.8958 204.94 29.364 203.748 28.2069C202.552 27.0462 201.039 26.4693 199.203 26.4693C197.253 26.4693 195.667 27.1359 194.443 28.4707C193.221 29.8054 192.593 31.5271 192.567 33.6392C192.593 35.7496 193.221 37.473 194.443 38.8078C195.667 40.1409 197.253 40.8091 199.203 40.8091C201.039 40.8091 202.552 40.2288 203.746 39.0716ZM181.14 24.8409C183.018 26.9811 183.958 29.9866 183.958 33.8591C183.958 34.6223 183.942 35.1921 183.914 35.5737H166.661C167.04 37.2462 167.818 38.5581 168.998 39.5113C170.177 40.4644 171.627 40.941 173.345 40.941C174.521 40.9447 175.687 40.7127 176.773 40.2587C177.852 39.8138 178.827 39.1471 179.634 38.3013L182.69 41.5126C181.509 42.8138 180.055 43.8351 178.431 44.5022C176.757 45.2074 174.902 45.5592 172.863 45.5592C170.476 45.5592 168.372 45.0615 166.552 44.0643C164.77 43.1045 163.305 41.6438 162.337 39.8612C161.347 38.0587 160.852 35.9852 160.852 33.6392C160.852 31.2932 161.354 29.211 162.36 27.3926C163.334 25.6048 164.796 24.1323 166.574 23.1473C168.379 22.1343 170.431 21.6296 172.731 21.6296C176.461 21.6296 179.262 22.7024 181.14 24.8409ZM178.761 31.747C178.701 30.0165 178.133 28.6395 177.057 27.6124C175.98 26.5854 174.553 26.0719 172.777 26.0719C171.116 26.0719 169.726 26.5784 168.604 27.5913C167.483 28.6026 166.793 29.9866 166.531 31.747H178.761ZM154.682 22.8395C156.036 22.0323 157.616 21.6155 159.422 21.5857V27.1288C157.002 26.9811 155.075 27.5456 153.634 28.8224C152.193 30.0974 151.472 31.8208 151.472 33.9892V45.3393H145.795V21.8055H151.472V26.3357C152.258 24.8127 153.329 23.645 154.681 22.8395H154.682ZM141.541 43.885C139.677 45.0281 137.726 45.6014 135.689 45.6014C133.679 45.6014 132.033 45.007 130.753 43.8199C129.471 42.6311 128.831 40.8795 128.831 38.5634V16.3063L134.465 15.631V22.7727H141.147V26.953H134.466V37.5539C134.466 38.639 134.668 39.4093 135.077 39.863C135.485 40.3185 136.094 40.5453 136.911 40.5453C137.784 40.5453 138.892 40.2218 140.23 39.5763L141.541 43.8867V43.885ZM118.311 21.8055H123.945V34.9969C123.945 42.6961 118.608 45.5592 113.193 45.5592C107.777 45.5592 102.442 42.6961 102.442 34.9969V21.8072H108.077V35.2009C108.077 38.1519 110.263 40.5453 113.193 40.5453C116.123 40.5453 118.31 38.1536 118.31 35.2009V21.8055H118.311ZM90.7681 16.2183C93.2013 17.543 95.2311 19.5042 96.6418 21.8934C98.0708 24.2974 98.7826 26.967 98.7826 29.9004C98.7826 32.832 98.0708 35.5087 96.6436 37.9268C95.2321 40.3321 93.2039 42.3142 90.7699 43.6669C88.2802 45.0738 85.5204 45.7772 82.4924 45.7772C79.4626 45.7772 76.7064 45.0738 74.2167 43.6669C71.7819 42.3146 69.753 40.3325 68.3413 37.9268C66.914 35.5087 66.2004 32.832 66.2004 29.9004C66.2004 26.967 66.914 24.2974 68.3395 21.8934C69.7506 19.5038 71.781 17.5426 74.2149 16.2183C76.7047 14.8413 79.4626 14.152 82.4907 14.152C85.5204 14.152 88.2784 14.8413 90.7681 16.2183ZM77.3814 20.8171C75.8031 21.7173 74.4918 23.0222 73.582 24.5982C72.6492 26.1985 72.1846 27.9642 72.1846 29.9004C72.1846 31.8349 72.658 33.6111 73.6048 35.222C74.521 36.8055 75.8306 38.1239 77.406 39.0488C78.9927 39.9879 80.7163 40.4557 82.5818 40.4557C84.3813 40.4653 86.1487 39.9786 87.691 39.0488C89.2496 38.1245 90.5377 36.8046 91.4256 35.222C92.3452 33.6013 92.8201 31.7651 92.802 29.9004C92.802 27.9659 92.3426 26.1985 91.4256 24.5999C90.536 23.0301 89.2474 21.7248 87.691 20.8171C86.1443 19.8998 84.3786 19.4203 82.5818 19.4296C80.7567 19.4197 78.962 19.8987 77.3832 20.8171H77.3814ZM23.4279 0.957031C31.4669 0.957031 43.614 3.4402 49.2685 9.13462C50.701 10.5784 52.5753 13.4063 52.5753 17.5479C52.5753 24.9112 46.6841 36.2086 40.1792 42.7612C36.8163 46.1483 31.4669 50.5748 24.2712 50.5748C17.2368 50.5748 11.8646 45.7632 10.3094 44.1962C4.3516 38.1958 0.0839844 29.0879 0.0839844 20.5955C0.0839844 15.237 1.60062 10.5503 5.47022 6.65496C9.05404 3.04627 15.2293 0.957031 23.4279 0.957031V0.957031ZM33.378 30.3225C36.0922 27.5878 36.8233 24.2201 36.8233 22.3665C36.8233 21.0229 36.4727 19.0515 34.8035 17.372C32.2436 14.7939 29.4085 14.0658 26.3244 14.0658C22.4179 14.0658 19.7932 15.3091 18.0451 17.0713C16.674 18.4518 15.4888 20.5744 15.4888 23.5905C15.4888 26.6048 17.0843 29.517 18.8236 31.2669C20.4297 32.8848 22.9545 34.0824 25.4968 34.0824C28.0391 34.0824 30.6639 33.0571 33.378 30.3225Z" fill="#5952FF"/>
</g>
<defs>
<clipPath id="clip0_521_1450">
<rect width="263" height="51" fill="white" transform="translate(0.0839844 0.957031)"/>
</clipPath>
</defs>
</svg>
