<svg width="133" height="32" viewBox="0 0 133 32" fill="none" xmlns="http://www.w3.org/2000/svg">
<path d="M99.1223 0.700195H91.1892V30.9246H99.1223V0.700195Z" fill="#232323"/>
<path d="M71.8819 24.9765C68.7278 24.9765 66.1472 23.1535 66.1472 19.7952C66.1472 16.437 68.7278 14.6139 71.8819 14.6139C75.036 14.6139 77.7123 16.437 77.7123 19.7952C77.7123 23.1535 75.036 24.9765 71.8819 24.9765ZM71.8819 8.18524C64.14 8.18524 58.3095 12.6949 58.3095 19.7952C58.3095 26.8955 64.14 31.4053 71.8819 31.4053C79.6239 31.4053 85.5498 26.8955 85.5498 19.7952C85.5498 12.6949 79.7195 8.18524 71.8819 8.18524V8.18524Z" fill="#232323"/>
<path d="M27.1506 19.6993C27.1506 12.6949 21.3203 8.18524 13.5783 8.18524C5.93188 8.18524 0.101501 12.599 0.101501 19.6993C0.101501 20.179 0.101501 20.6588 0.197081 21.1385L0.292661 21.7142C1.24846 27.5672 6.50535 31.4053 13.865 31.4053C20.3644 31.4053 25.9081 28.3348 26.5771 23.1535H18.9308C17.975 24.6888 15.9678 25.2644 13.7694 25.2644C10.8065 25.2644 8.7037 24.0171 7.93906 21.7142L7.84348 21.1385H25.239H27.055C27.1506 20.6588 27.1506 20.179 27.1506 19.6993V19.6993ZM7.93906 19.0276C8.22579 16.1492 10.7109 14.518 13.6738 14.518C16.6368 14.518 19.1219 16.0532 19.4087 19.0276H7.93906Z" fill="#232323"/>
<path d="M42.8256 22.4818L36.613 8.66492H27.724L38.429 30.8295H46.84L57.4494 8.66492H49.0384L42.8256 22.4818Z" fill="#232323"/>
<path d="M124.546 8.66492L123.304 11.2556H131.715L132.958 8.66492H124.546Z" fill="#232323"/>
<path d="M119.481 19.2196H127.893L130.473 13.9423H122.062L119.481 19.2196Z" fill="#232323"/>
<path d="M115.18 15.5734L112.026 8.66492H103.137L113.842 30.9254H122.062H122.252L126.458 22.194H118.143L115.18 15.5734Z" fill="#232323"/>
</svg>
