<svg width="133" height="30" viewBox="0 0 133 30" fill="none" xmlns="http://www.w3.org/2000/svg">
<g clip-path="url(#clip0_521_1258)">
<path d="M72.2485 17.5545L69.9866 16.2267C67.4421 14.8291 66.0992 13.9207 66.0992 12.2436C66.0992 10.9858 67.23 10.0074 68.7144 10.0074C71.683 10.0074 73.0967 12.3134 73.4502 15.1786H73.9449L75.0759 8.95925C74.0863 8.53998 72.5312 8.26045 70.9763 8.26045C65.5337 8.26045 62.8477 11.1255 62.8477 14.4099C62.8477 17.205 65.1803 18.6725 67.018 19.6508L70.1281 21.3978C72.1778 22.446 73.1674 23.4942 73.1674 25.0316C73.1674 26.2195 72.2485 27.6171 70.1281 27.6171C67.23 27.6171 64.8975 25.0316 63.9786 21.3279H63.5546L62.3529 22.9352C60.7979 24.752 59.0308 26.2195 56.2036 26.2195C51.8212 26.2195 49.7714 23.005 49.7714 18.6725H60.5152V15.8074C60.5152 11.8243 58.5361 8.33033 53.7297 8.33033C48.075 8.33033 45.3184 13.3616 45.3184 19.0219C45.3184 21.5375 45.9546 23.634 47.0148 25.3111C46.308 26.0797 45.3184 26.9183 43.9754 26.9183C42.5618 26.9183 41.855 25.5906 41.855 23.5641V0.294189C41.7136 0.364069 41.5723 0.433948 41.4308 0.503828C39.8051 1.2725 38.3209 1.83154 36.6952 2.25082C36.7658 2.39057 36.8365 2.53033 36.8365 2.6701C37.5433 4.48696 37.614 6.65323 37.614 8.95925V22.7255C37.614 23.7737 37.7554 24.6821 37.9674 25.4508C37.402 26.2195 36.6245 27.058 35.5642 27.058C34.2213 27.058 33.161 26.0099 33.161 23.9134V15.8774C33.161 12.3833 32.4542 8.26045 26.5875 8.26045C21.4277 8.26045 19.3072 11.4749 19.3072 14.6195L23.1948 16.087C23.1948 16.087 22.6999 9.65804 26.2341 9.65804C29.0614 9.65804 28.9907 12.8026 28.9907 15.5279V16.5062C28.9907 17.1352 27.5064 17.9737 24.679 19.0219C22.2051 20.0002 18.459 21.258 18.459 24.8219C18.459 27.4074 20.3674 29.2942 23.1948 29.2942C25.4565 29.2942 27.6477 28.0363 29.0614 26.0797C29.1321 27.058 30.6871 29.2942 33.0903 29.2942C35.5642 29.2942 37.2605 27.8267 38.3209 26.4291C39.2397 28.3858 40.8654 29.2942 42.7738 29.2942C44.8236 29.2942 46.4493 27.5472 47.5096 26.0099C49.1353 28.0363 51.4678 29.2942 54.1538 29.2942C57.4759 29.2942 59.8083 27.1279 61.1514 25.0316C61.9995 26.1496 64.6855 29.2942 68.9264 29.2942C72.4605 29.2942 75.8533 26.9882 75.8533 22.9352C75.924 19.9303 73.8742 18.4629 72.2485 17.5545ZM29.0614 25.1014C28.1426 25.8003 27.0116 26.4291 25.81 26.4291C23.7602 26.4291 22.7706 24.9617 22.7706 23.2146C22.7706 20.9087 23.9723 19.8604 27.6477 19.8604C28.92 19.8604 29.0614 20.0002 29.0614 20.7689V25.1014ZM49.7714 16.9954C49.7714 12.2436 50.9024 9.72792 53.1642 9.72792C55.002 9.72792 56.2742 11.5448 56.2742 15.6677C56.2742 17.2749 56.0622 17.4845 54.7899 17.4845H49.8421L49.7714 16.9954Z" fill="#06492E"/>
<path d="M83.2041 22.7282V0.296875C81.4371 1.13543 79.8114 1.76435 78.0443 2.2535C78.8925 4.07037 78.9632 6.44627 78.9632 8.89206V22.6583C78.9632 24.8246 78.8218 26.5017 77.9736 28.7378H84.6885C84.7592 28.7378 83.2041 26.7812 83.2041 22.7282Z" fill="#06492E"/>
<path d="M94.3718 8.26587C89.3535 8.26587 85.9607 12.4587 85.9607 18.8875C85.9607 24.8972 89.0708 29.2996 94.0189 29.2996C99.0368 29.2996 102.43 25.1767 102.43 18.8176C102.43 12.808 99.32 8.26587 94.3718 8.26587ZM94.513 27.6924C91.7567 27.6924 90.5551 22.8008 90.5551 17.5599C90.5551 12.5984 91.6153 9.73331 93.8063 9.73331C96.6342 9.73331 97.7644 14.8346 97.7644 20.0755C97.7644 25.1767 96.6342 27.6924 94.513 27.6924Z" fill="#06492E"/>
<path d="M120.595 9.73162H126.391V8.61357H120.595V3.02321C119.182 3.93164 117.698 4.63043 116.142 5.18947C116.284 6.65694 116.284 7.56538 116.355 8.61357H109.357C108.791 6.93646 108.438 5.53887 108.438 4.4208C108.438 3.02321 108.932 2.25454 110.064 2.25454C111.195 2.25454 112.326 3.65213 113.315 7.1461H113.81L115.012 0.856943C115.012 0.856943 114.022 0.228027 112.608 0.228027C107.448 0.228027 105.399 4.14128 105.328 8.54369H102.995V9.66175H105.328V9.87137V22.1702C105.328 24.3365 105.257 26.3629 104.338 28.7389H110.488C109.569 26.4328 109.498 24.3365 109.498 22.1702V9.94124V9.73162H116.355V9.94124V23.7774C116.355 27.4111 117.839 29.2979 120.313 29.2979C123.21 29.2979 125.26 26.922 125.26 24.6858C124.271 25.3846 123.494 25.8738 122.645 25.8738C120.595 25.8738 120.595 23.6377 120.595 22.7292V9.94124V9.73162Z" fill="#06492E"/>
<path d="M5.45338 7.56408C5.45338 5.74721 7.22045 4.27974 9.4823 4.27974C12.3803 4.27974 14.1474 5.60745 15.1369 12.5255H15.7731L16.692 3.09179C10.1184 0.855645 2.06061 3.23155 1.91925 10.0098C1.91925 17.3472 13.7232 17.3472 13.7232 24.0556C13.7232 26.0122 11.9562 27.34 9.97708 27.34C4.74656 27.34 3.54495 23.0075 3.26222 18.4653H2.62607L0.929688 26.9906C0.929688 26.9906 4.81723 29.2267 8.98752 29.2267C14.006 29.1568 17.3281 25.5231 17.4695 21.6797C17.4695 14.3424 5.45338 12.8051 5.45338 7.56408Z" fill="#06492E"/>
<path d="M127.452 26.6434C127.452 25.2458 128.583 24.0579 130.067 24.0579C131.622 24.0579 132.754 25.2458 132.754 26.6434C132.754 28.041 131.622 29.2289 130.138 29.2289C128.512 29.2988 127.452 28.041 127.452 26.6434Z" fill="#B4D625"/>
</g>
<defs>
<clipPath id="clip0_521_1258">
<rect width="132" height="29" fill="white" transform="translate(0.929688 0.296875)"/>
</clipPath>
</defs>
</svg>
