<svg width="237" height="49" viewBox="0 0 237 49" fill="none" xmlns="http://www.w3.org/2000/svg">
<g clip-path="url(#clip0_521_1418)">
<path d="M57.432 1.65703C51.532 1.65703 49.408 5.85703 49.408 9.81703V12.217H48.11C47.166 12.217 46.458 12.937 46.458 13.897C46.458 14.857 47.166 15.577 48.11 15.577H49.408V32.137C49.408 33.097 50.116 33.817 51.06 33.817C52.004 33.817 52.712 33.097 52.712 32.137V15.457H56.488C57.432 15.457 58.14 14.737 58.14 13.777C58.14 12.817 57.432 12.097 56.488 12.097H52.712V9.69703C52.712 7.53703 53.538 4.89703 57.314 4.89703C58.258 4.89703 58.966 4.17703 58.966 3.21703C58.966 2.25703 58.376 1.65703 57.432 1.65703ZM70.766 11.617C68.17 11.617 66.046 12.697 64.866 14.497V13.537C64.866 12.577 64.158 11.857 63.214 11.857C62.27 11.857 61.444 12.577 61.444 13.537V32.017C61.444 32.977 62.152 33.697 63.096 33.697C64.04 33.697 64.748 32.977 64.748 32.017V21.817C64.748 17.497 66.99 14.977 70.648 14.977C71.592 14.977 72.3 14.257 72.3 13.297C72.536 12.457 71.71 11.617 70.766 11.617ZM91.77 20.737C91.77 19.777 91.652 17.137 90.118 14.977C88.584 12.697 86.224 11.497 83.038 11.497C77.02 11.497 73.598 15.577 73.598 22.657C73.598 29.977 77.02 33.937 83.51 33.937C87.876 33.937 90.236 31.777 90.708 31.297C90.944 31.057 91.298 30.697 91.298 30.097C91.298 29.257 90.59 28.537 89.764 28.537C89.292 28.537 89.056 28.657 88.82 28.897C87.522 29.857 86.106 30.817 83.628 30.817C79.734 30.817 77.256 28.177 77.138 23.977H89.764C91.77 23.857 91.77 21.937 91.77 20.737ZM83.038 14.737C86.578 14.737 88.348 16.777 88.466 20.737H77.02C77.374 16.897 79.498 14.737 83.038 14.737ZM103.334 20.977C100.738 20.137 98.614 19.297 98.614 17.377C98.614 15.217 100.974 14.977 102.272 14.977C104.75 14.977 105.93 15.817 106.992 16.777C107.346 17.137 107.7 17.257 108.172 17.257C108.998 17.257 109.706 16.537 109.706 15.697C109.706 15.217 109.47 14.857 109.352 14.617C107.936 12.697 105.458 11.617 102.39 11.617C98.024 11.617 95.31 13.777 95.31 17.377C95.31 21.697 99.086 23.017 102.39 24.217C104.868 25.057 107.11 25.777 107.11 27.697C107.11 30.217 104.278 30.697 102.626 30.697C100.384 30.697 98.614 29.977 97.198 28.537C96.726 28.057 96.372 28.057 96.018 28.057C95.192 28.057 94.484 28.777 94.484 29.617C94.484 29.977 94.602 30.217 94.838 30.697C96.136 32.377 99.086 34.057 102.744 34.057C107.7 34.057 110.65 31.657 110.65 27.817C110.296 23.377 106.638 22.177 103.334 20.977ZM123.748 11.497C121.388 11.497 119.264 12.457 118.084 14.017V2.13703C118.084 1.17703 117.376 0.457031 116.432 0.457031C115.488 0.457031 114.78 1.17703 114.78 2.13703V32.017C114.78 32.977 115.488 33.697 116.432 33.697C117.376 33.697 118.084 32.977 118.084 32.017V20.737C118.084 16.657 119.972 14.617 123.748 14.617C127.406 14.617 128.822 16.297 128.822 20.377V31.897C128.822 32.857 129.53 33.577 130.474 33.577C131.418 33.577 132.126 32.857 132.126 31.897V19.897C132.244 14.377 129.412 11.497 123.748 11.497ZM160.8 11.857C160.092 11.857 159.502 12.337 159.148 13.057L154.31 27.217L150.298 13.057C150.18 12.457 149.59 11.857 148.646 11.857C147.82 11.857 147.23 12.457 146.994 13.057L142.982 27.217L138.144 12.937C137.908 12.217 137.318 11.857 136.492 11.857C135.548 11.857 134.84 12.577 134.84 13.537C134.84 13.777 134.84 14.017 134.958 14.257L141.566 32.617C141.802 33.337 142.392 33.697 143.218 33.697C144.044 33.697 144.634 33.217 144.87 32.497L148.764 19.057L152.658 32.497C152.894 33.217 153.602 33.697 154.31 33.697C155.018 33.697 155.608 33.217 155.962 32.497L162.57 14.137C162.688 13.897 162.688 13.657 162.688 13.417C162.57 12.577 161.744 11.857 160.8 11.857ZM173.308 11.497C167.054 11.497 163.632 15.457 163.632 22.657C163.632 29.857 167.054 33.937 173.308 33.937C179.562 33.937 182.984 29.977 182.984 22.657C182.984 15.577 179.562 11.497 173.308 11.497ZM173.308 30.817C169.178 30.817 167.054 28.177 167.054 22.777C167.054 17.497 169.178 14.737 173.308 14.737C177.438 14.737 179.562 17.377 179.562 22.777C179.444 28.177 177.438 30.817 173.308 30.817ZM196.2 11.617C193.604 11.617 191.48 12.697 190.3 14.497V13.537C190.3 12.577 189.592 11.857 188.648 11.857C187.704 11.857 186.996 12.577 186.996 13.537V32.017C186.996 32.977 187.704 33.697 188.648 33.697C189.592 33.697 190.3 32.977 190.3 32.017V21.817C190.3 17.497 192.542 14.977 196.2 14.977C197.144 14.977 197.852 14.257 197.852 13.297C197.852 12.457 197.144 11.617 196.2 11.617ZM209.298 20.737L216.378 14.977C216.968 14.497 217.086 13.897 217.086 13.537C217.086 12.577 216.378 11.857 215.434 11.857C215.198 11.857 214.726 11.857 214.254 12.337L204.106 20.737V2.13703C204.106 1.17703 203.398 0.457031 202.454 0.457031C201.51 0.457031 200.802 1.17703 200.802 2.13703V32.017C200.802 32.977 201.51 33.697 202.454 33.697C203.398 33.697 204.106 32.977 204.106 32.017V24.817L206.466 22.897L214.254 32.977C214.726 33.457 215.198 33.817 215.67 33.817C216.614 33.817 217.322 33.097 217.322 32.137C217.322 31.897 217.322 31.417 216.968 31.057L209.298 20.737ZM228.65 20.977C226.054 20.137 223.93 19.297 223.93 17.377C223.93 15.217 226.29 14.977 227.588 14.977C230.066 14.977 231.246 15.817 232.308 16.777C232.662 17.137 233.016 17.257 233.488 17.257C234.314 17.257 235.022 16.537 235.022 15.697C235.022 15.217 234.786 14.857 234.668 14.617C233.252 12.697 230.774 11.617 227.706 11.617C223.34 11.617 220.626 13.777 220.626 17.377C220.626 21.697 224.402 23.017 227.706 24.217C230.184 25.057 232.426 25.777 232.426 27.697C232.426 30.217 229.594 30.697 227.942 30.697C225.7 30.697 223.93 29.977 222.514 28.537C222.042 28.057 221.688 28.057 221.334 28.057C220.508 28.057 219.8 28.777 219.8 29.617C219.8 29.977 219.918 30.217 220.154 30.697C221.452 32.377 224.402 34.057 228.06 34.057C233.016 34.057 235.966 31.657 235.966 27.817C235.612 23.377 231.954 22.177 228.65 20.977Z" fill="black"/>
<path d="M0.319946 31.0568C0.909946 35.4968 3.03395 39.4568 5.98395 42.4568L12.8279 35.4968C12.8279 28.4168 16.4859 21.5768 22.8579 17.7368L0.319946 31.0568Z" fill="#9B65C3"/>
<path d="M12.8279 35.4971C9.40595 35.4971 5.98395 34.6571 2.79795 32.7371C1.97195 32.2571 1.14595 31.6571 0.319946 31.0571C0.909946 35.4971 3.03395 39.4571 5.98395 42.4571L12.8279 35.4971Z" fill="#9B65C3"/>
<path d="M12.828 35.4969L5.98401 42.4569C8.93401 45.4569 12.828 47.6169 17.194 48.2169L30.292 25.2969C26.516 31.7769 19.79 35.4969 12.828 35.4969Z" fill="#BE63C5"/>
<path d="M15.542 45.6971C13.654 42.4571 12.828 38.9771 12.828 35.4971L5.98401 42.4571C8.93401 45.4571 12.828 47.6171 17.194 48.2171C16.604 47.4971 16.014 46.6571 15.542 45.6971Z" fill="#BF63C6"/>
<path d="M38.434 8.61719L22.858 17.7372C16.368 21.5772 8.81598 21.2172 2.79798 17.7372C1.02798 20.7372 0.0839844 24.2172 0.0839844 28.0572C0.0839844 29.1372 0.201984 30.0972 0.319984 31.0572C1.14598 31.6572 1.97198 32.2572 2.79798 32.7372C5.98398 34.6572 9.40598 35.4972 12.828 35.4972L38.788 9.09719C38.67 8.85719 38.552 8.73719 38.434 8.61719Z" fill="#3278B1"/>
<path d="M2.79795 32.7368C5.98395 34.6568 9.40595 35.4968 12.8279 35.4968C12.8279 28.4168 16.4859 21.5768 22.8579 17.7368L0.319946 31.0568C1.02795 31.6568 1.85395 32.2568 2.79795 32.7368Z" fill="#3278B2"/>
<path d="M2.79798 17.7368C1.02798 20.7368 0.0839844 24.2168 0.0839844 28.0568C0.0839844 29.1368 0.201984 30.0968 0.319984 31.0568L22.858 17.7368C16.486 21.5768 8.81598 21.3368 2.79798 17.7368Z" fill="#45A4EC"/>
<path d="M38.7879 9.09711C38.6699 8.97711 38.5519 8.85711 38.3159 8.73711C38.0799 8.61711 37.9619 8.37711 37.7259 8.25711C37.0179 7.77711 36.0739 7.53711 35.2479 7.53711H20.1439C12.7099 7.53711 6.21993 11.6171 2.67993 17.7371C8.69793 21.2171 16.3679 21.5771 22.7399 17.7371C16.2499 21.5771 12.7099 28.4171 12.7099 35.4971C19.6719 35.4971 26.3979 31.7771 30.1739 25.2971L39.1419 9.45711C39.1419 9.33711 39.0239 9.21711 38.7879 9.09711Z" fill="#19BB7D"/>
<path d="M22.858 17.7372L38.434 8.61721C38.198 8.49721 38.08 8.25721 37.844 8.13721L2.79797 17.7372C8.81597 21.3372 16.486 21.5772 22.858 17.7372Z" fill="#08C7FB"/>
<path d="M35.2479 7.53711H20.1439C12.7099 7.53711 6.21993 11.6171 2.67993 17.7371L37.7259 8.13711C37.0179 7.77711 36.1919 7.53711 35.2479 7.53711Z" fill="#59F2F6"/>
<path d="M30.292 25.2971L39.26 9.45705C39.142 9.33705 39.024 9.21705 38.906 8.97705L12.946 35.3771C12.946 38.8571 13.772 42.3371 15.66 45.577C16.132 46.417 16.722 47.2571 17.312 48.0971C18.256 48.2171 19.318 48.3371 20.262 48.3371C23.92 48.3371 27.342 47.377 30.292 45.577C26.752 39.577 26.516 31.7771 30.292 25.2971Z" fill="#DA3757"/>
<path d="M12.828 35.4969C12.828 38.9769 13.654 42.4569 15.542 45.6969C16.014 46.5369 16.604 47.3769 17.194 48.2169L30.292 25.2969C26.516 31.7769 19.79 35.4969 12.828 35.4969Z" fill="#D33C4E"/>
<path d="M30.292 25.2969L17.194 48.2169C18.138 48.3369 19.2 48.4569 20.144 48.4569C23.802 48.4569 27.224 47.4969 30.174 45.6969C26.752 39.5769 26.516 31.7769 30.292 25.2969Z" fill="#EE5A24"/>
<path d="M39.614 10.0572C39.496 9.81719 39.378 9.57719 39.142 9.45719C39.024 9.33719 38.906 9.21719 38.788 8.97719C38.67 8.85719 38.552 8.73719 38.316 8.61719L22.74 17.7372C16.25 21.5772 12.71 28.4172 12.71 35.4972C19.672 35.4972 26.398 31.7772 30.174 25.2972C26.398 31.8972 26.752 39.5772 30.174 45.6972C36.192 42.2172 40.204 35.4972 40.204 27.9372V12.6972C40.322 11.7372 40.086 10.8972 39.614 10.0572Z" fill="#8BDF55"/>
<path d="M38.434 8.61719L22.858 17.7372C16.368 21.5772 12.828 28.4172 12.828 35.4972L38.788 9.09719C38.67 8.85719 38.552 8.73719 38.434 8.61719Z" fill="#25C16F"/>
<path d="M12.828 35.4971C19.79 35.4971 26.516 31.7771 30.292 25.2971L39.26 9.45705C39.142 9.33705 39.024 9.21705 38.906 8.97705L12.828 35.4971Z" fill="#8BDF55"/>
<path d="M39.2599 9.45703L30.2919 25.297C26.5159 31.897 26.8699 39.577 30.2919 45.697L39.7319 10.057C39.4959 9.93703 39.3779 9.69703 39.2599 9.45703Z" fill="#FFBB00"/>
<path d="M30.292 45.6973C36.31 42.2173 40.322 35.4972 40.322 27.9372V12.6972C40.322 11.7372 40.086 10.8972 39.614 10.1772L30.292 45.6973Z" fill="#FFA800"/>
</g>
<defs>
<clipPath id="clip0_521_1418">
<rect width="236" height="48" fill="white" transform="translate(0.0839844 0.457031)"/>
</clipPath>
</defs>
</svg>
