<svg id="Layer_1" data-name="Layer 1" xmlns="http://www.w3.org/2000/svg" xmlns:xlink="http://www.w3.org/1999/xlink" viewBox="0 0 2014.97 740"><defs><style>.cls-1{fill:#f6f6f6;stroke:#231f20;}.cls-1,.cls-10,.cls-11,.cls-12,.cls-13,.cls-14,.cls-15,.cls-16,.cls-17,.cls-18,.cls-19,.cls-2,.cls-20,.cls-21,.cls-22,.cls-3,.cls-4,.cls-5,.cls-6,.cls-7,.cls-8,.cls-9{stroke-miterlimit:10;}.cls-10,.cls-11,.cls-12,.cls-13,.cls-14,.cls-15,.cls-16,.cls-17,.cls-18,.cls-19,.cls-2,.cls-20,.cls-21,.cls-22,.cls-3,.cls-4,.cls-5,.cls-6,.cls-7,.cls-8,.cls-9{fill:none;}.cls-2{stroke:url(#linear-gradient);}.cls-3{stroke:url(#linear-gradient-2);}.cls-4{stroke:url(#linear-gradient-3);}.cls-5{stroke:url(#linear-gradient-4);}.cls-6{stroke:url(#linear-gradient-5);}.cls-7{stroke:url(#linear-gradient-6);}.cls-8{stroke:url(#linear-gradient-7);}.cls-9{stroke:url(#linear-gradient-8);}.cls-10{stroke:url(#linear-gradient-9);}.cls-11{stroke:url(#linear-gradient-10);}.cls-12{stroke:url(#linear-gradient-11);}.cls-13{stroke:url(#linear-gradient-12);}.cls-14{stroke:url(#linear-gradient-13);}.cls-15{stroke:url(#linear-gradient-14);}.cls-16{stroke:url(#linear-gradient-15);}.cls-17{stroke:url(#linear-gradient-16);}.cls-18{stroke:url(#linear-gradient-17);}.cls-19{stroke:url(#linear-gradient-18);}.cls-20{stroke:url(#linear-gradient-19);}.cls-21{stroke:url(#linear-gradient-20);}.cls-22{stroke:url(#linear-gradient-21);}</style><linearGradient id="linear-gradient" x1="-70.27" y1="235.51" x2="1968.84" y2="496.13" gradientTransform="matrix(1, 0, 0, -1, 0, 739)" gradientUnits="userSpaceOnUse"><stop offset="0" stop-color="#9c9c9d"/><stop offset="0.51" stop-color="#fff"/><stop offset="1" stop-color="#a2a2a1"/></linearGradient><linearGradient id="linear-gradient-2" x1="-64.91" y1="231.19" x2="1967" y2="490.89" gradientTransform="matrix(1, 0, 0, -1, 0, 739)" gradientUnits="userSpaceOnUse"><stop offset="0" stop-color="#9c9c9d"/><stop offset="0.51" stop-color="#fafbfc"/><stop offset="1" stop-color="#a7a6a6"/></linearGradient><linearGradient id="linear-gradient-3" x1="-59.56" y1="226.79" x2="1965.19" y2="485.57" gradientTransform="matrix(1, 0, 0, -1, 0, 739)" gradientUnits="userSpaceOnUse"><stop offset="0" stop-color="#9c9c9d"/><stop offset="0.51" stop-color="#f7f8f8"/><stop offset="1" stop-color="#acacac"/></linearGradient><linearGradient id="linear-gradient-4" x1="-54.17" y1="222.29" x2="1963.38" y2="480.16" gradientTransform="matrix(1, 0, 0, -1, 0, 739)" gradientUnits="userSpaceOnUse"><stop offset="0" stop-color="#9c9c9d"/><stop offset="0.51" stop-color="#f6f6f6"/><stop offset="1" stop-color="#b0b1b1"/></linearGradient><linearGradient id="linear-gradient-5" x1="-48.78" y1="217.68" x2="1961.59" y2="474.63" gradientTransform="matrix(1, 0, 0, -1, 0, 739)" gradientUnits="userSpaceOnUse"><stop offset="0" stop-color="#9c9c9d"/><stop offset="0.51" stop-color="#f4f4f4"/><stop offset="1" stop-color="#b5b5b5"/></linearGradient><linearGradient id="linear-gradient-6" x1="-43.37" y1="212.97" x2="1959.81" y2="469" gradientTransform="matrix(1, 0, 0, -1, 0, 739)" gradientUnits="userSpaceOnUse"><stop offset="0" stop-color="#9c9c9d"/><stop offset="0.51" stop-color="#f2f2f2"/><stop offset="1" stop-color="#bababa"/></linearGradient><linearGradient id="linear-gradient-7" x1="-37.97" y1="208.15" x2="1958.03" y2="463.26" gradientTransform="matrix(1, 0, 0, -1, 0, 739)" gradientUnits="userSpaceOnUse"><stop offset="0" stop-color="#9c9c9d"/><stop offset="0.51" stop-color="#f0efef"/><stop offset="1" stop-color="#bfbebe"/></linearGradient><linearGradient id="linear-gradient-8" x1="-32.53" y1="203.21" x2="1956.28" y2="457.41" gradientTransform="matrix(1, 0, 0, -1, 0, 739)" gradientUnits="userSpaceOnUse"><stop offset="0" stop-color="#9c9c9d"/><stop offset="0.51" stop-color="#ededee"/><stop offset="1" stop-color="#c2c2c2"/></linearGradient><linearGradient id="linear-gradient-9" x1="-27.07" y1="198.15" x2="1954.58" y2="451.43" gradientTransform="matrix(1, 0, 0, -1, 0, 739)" gradientUnits="userSpaceOnUse"><stop offset="0" stop-color="#9c9c9d"/><stop offset="0.51" stop-color="#eaeaea"/><stop offset="1" stop-color="#c8c7c6"/></linearGradient><linearGradient id="linear-gradient-10" x1="-21.6" y1="192.96" x2="1952.85" y2="445.32" gradientTransform="matrix(1, 0, 0, -1, 0, 739)" gradientUnits="userSpaceOnUse"><stop offset="0" stop-color="#9c9c9d"/><stop offset="0.51" stop-color="#e9e8e8"/><stop offset="1" stop-color="#ccc"/></linearGradient><linearGradient id="linear-gradient-11" x1="-17.12" y1="195.55" x2="1950.14" y2="446.99" gradientTransform="matrix(1, 0, 0, -1, 0, 739)" gradientUnits="userSpaceOnUse"><stop offset="0" stop-color="#9c9c9d"/><stop offset="0.51" stop-color="#e6e6e5"/><stop offset="1" stop-color="#d0d1d1"/></linearGradient><linearGradient id="linear-gradient-12" x1="-14.11" y1="209.45" x2="1945.98" y2="459.97" gradientTransform="matrix(1, 0, 0, -1, 0, 739)" gradientUnits="userSpaceOnUse"><stop offset="0" stop-color="#9c9c9d"/><stop offset="0.51" stop-color="#e4e4e4"/><stop offset="1" stop-color="#d6d5d5"/></linearGradient><linearGradient id="linear-gradient-13" x1="-11.04" y1="223.03" x2="1941.87" y2="472.64" gradientTransform="matrix(1, 0, 0, -1, 0, 739)" gradientUnits="userSpaceOnUse"><stop offset="0" stop-color="#9c9c9d"/><stop offset="0.51" stop-color="#e1e2e1"/><stop offset="1" stop-color="#dbdada"/></linearGradient><linearGradient id="linear-gradient-14" x1="-7.74" y1="234.88" x2="1937.97" y2="483.57" gradientTransform="matrix(1, 0, 0, -1, 0, 739)" gradientUnits="userSpaceOnUse"><stop offset="0" stop-color="#9c9c9d"/><stop offset="0.51" stop-color="#e0e0df"/><stop offset="1" stop-color="#dfdfde"/></linearGradient><linearGradient id="linear-gradient-15" x1="-2.64" y1="232.62" x2="1935.88" y2="480.39" gradientTransform="matrix(1, 0, 0, -1, 0, 739)" gradientUnits="userSpaceOnUse"><stop offset="0" stop-color="#9c9c9d"/><stop offset="0.51" stop-color="#ddd"/><stop offset="1" stop-color="#e3e3e3"/></linearGradient><linearGradient id="linear-gradient-16" x1="2.43" y1="230.36" x2="1933.79" y2="477.21" gradientTransform="matrix(1, 0, 0, -1, 0, 739)" gradientUnits="userSpaceOnUse"><stop offset="0" stop-color="#9c9c9d"/><stop offset="0.51" stop-color="#dbdada"/><stop offset="1" stop-color="#e9e8e8"/></linearGradient><linearGradient id="linear-gradient-17" x1="7.54" y1="228.1" x2="1931.7" y2="474.03" gradientTransform="matrix(1, 0, 0, -1, 0, 739)" gradientUnits="userSpaceOnUse"><stop offset="0" stop-color="#9c9c9d"/><stop offset="0.51" stop-color="#d8d9d8"/><stop offset="1" stop-color="#ececec"/></linearGradient><linearGradient id="linear-gradient-18" x1="12.64" y1="225.82" x2="1929.6" y2="470.83" gradientTransform="matrix(1, 0, 0, -1, 0, 739)" gradientUnits="userSpaceOnUse"><stop offset="0" stop-color="#9c9c9d"/><stop offset="0.51" stop-color="#d7d6d6"/><stop offset="1" stop-color="#f2f2f2"/></linearGradient><linearGradient id="linear-gradient-19" x1="17.74" y1="223.56" x2="1927.5" y2="467.65" gradientTransform="matrix(1, 0, 0, -1, 0, 739)" gradientUnits="userSpaceOnUse"><stop offset="0" stop-color="#9c9c9d"/><stop offset="0.51" stop-color="#d4d4d4"/><stop offset="1" stop-color="#f6f6f6"/></linearGradient><linearGradient id="linear-gradient-20" x1="22.82" y1="221.3" x2="1925.39" y2="464.47" gradientTransform="matrix(1, 0, 0, -1, 0, 739)" gradientUnits="userSpaceOnUse"><stop offset="0" stop-color="#9c9c9d"/><stop offset="0.51" stop-color="#d2d2d2"/><stop offset="1" stop-color="#fafbfc"/></linearGradient><linearGradient id="linear-gradient-21" x1="27.93" y1="219.04" x2="1923.32" y2="461.29" gradientTransform="matrix(1, 0, 0, -1, 0, 739)" gradientUnits="userSpaceOnUse"><stop offset="0" stop-color="#9c9c9d"/><stop offset="1" stop-color="#fff"/></linearGradient></defs><title>bd5bg</title><rect class="cls-1" x="54.62" y="0.5" width="1924.27" height="739"/><path class="cls-2" d="M-54.39,625.48C801.05,1073.38,1109-245,1945.64,63.24" transform="translate(54.62 0.5)"/><path class="cls-3" d="M-52.1,605.68C772.56,1067.11,1124-225.2,1946.36,88.49" transform="translate(54.62 0.5)"/><path class="cls-4" d="M-49.83,585.88C744.06,1060.83,1139-205.4,1947.08,113.71" transform="translate(54.62 0.5)"/><path class="cls-5" d="M-47.54,566.09C715.57,1054.56,1154-185.6,1947.8,138.93" transform="translate(54.62 0.5)"/><path class="cls-6" d="M-45.25,546.31c732.32,502,1214.3-712.12,1993.77-382.16" transform="translate(54.62 0.5)"/><path class="cls-7" d="M-43,526.51C658.57,1042,1184-146,1949.24,189.39" transform="translate(54.62 0.5)"/><path class="cls-8" d="M-40.69,506.72c670.77,529,1239.74-632.93,1990.64-292.11" transform="translate(54.62 0.5)"/><path class="cls-9" d="M-38.4,486.92c640,542.58,1252.45-593.33,1989.07-247.09" transform="translate(54.62 0.5)"/><path class="cls-10" d="M-36.11,467.14C573.11,1023.22,1229.06-86.59,1951.42,265.05" transform="translate(54.62 0.5)"/><path class="cls-11" d="M-33.82,447.35c578.43,569.6,1277.87-514.14,1986-157" transform="translate(54.62 0.5)"/><path class="cls-12" d="M-31.53,427.55c547.65,583.12,1290.6-474.54,1984.38-112" transform="translate(54.62 0.5)"/><path class="cls-13" d="M-29.26,407.75c516.88,596.67,1303.32-434.94,1982.83-67" transform="translate(54.62 0.5)"/><path class="cls-14" d="M-27,388c486.09,610.18,1316-395.36,1981.26-22" transform="translate(54.62 0.5)"/><path class="cls-15" d="M-24.68,368.18C430.63,991.87,1304.07,12.4,1955,391.2" transform="translate(54.62 0.5)"/><path class="cls-16" d="M-22.39,348.38c424.52,637.21,1341.46-316.18,1978.12,68" transform="translate(54.62 0.5)"/><path class="cls-17" d="M-20.12,328.59C373.64,979.33,1334.08,52,1956.45,441.64" transform="translate(54.62 0.5)"/><path class="cls-18" d="M-17.83,308.79c363,664.27,1366.9-237,1975,158.07" transform="translate(54.62 0.5)"/><path class="cls-19" d="M-15.54,289C316.67,966.79,1364.09,91.62,1957.89,492.1" transform="translate(54.62 0.5)"/><path class="cls-20" d="M-13.25,269.22C288.17,960.53,1379.08,111.42,1958.6,517.33" transform="translate(54.62 0.5)"/><path class="cls-21" d="M-11,249.42C259.65,954.26,1394.07,131.22,1959.3,542.55" transform="translate(54.62 0.5)"/><path class="cls-22" d="M-8.69,229.62C231.18,948,1409.08,151,1960,567.77" transform="translate(54.62 0.5)"/></svg>