<svg width="673" height="477" viewBox="0 0 673 477" fill="none" xmlns="http://www.w3.org/2000/svg">
<path d="M672.651 393.85C672.651 579.413 522.222 729.842 336.659 729.842C151.096 729.842 0.66748 579.413 0.66748 393.85C0.66748 208.287 151.096 57.8584 336.659 57.8584C522.222 57.8584 672.651 208.287 672.651 393.85Z" fill="url(#paint0_linear_483_819)"/>
<path d="M166.791 24.1918C166.791 37.2107 156.237 47.7645 143.218 47.7645C130.199 47.7645 119.645 37.2107 119.645 24.1918C119.645 11.173 130.199 0.619141 143.218 0.619141C156.237 0.619141 166.791 11.173 166.791 24.1918Z" fill="url(#paint1_linear_483_819)"/>
<defs>
<linearGradient id="paint0_linear_483_819" x1="-17.4268" y1="202.156" x2="286.367" y2="748.401" gradientUnits="userSpaceOnUse">
<stop stop-color="#FFD56B"/>
<stop offset="1" stop-color="#EBA800"/>
</linearGradient>
<linearGradient id="paint1_linear_483_819" x1="118.376" y1="10.7429" x2="139.689" y2="49.0666" gradientUnits="userSpaceOnUse">
<stop stop-color="#FFD56B"/>
<stop offset="1" stop-color="#EBA800"/>
</linearGradient>
</defs>
</svg>
