<svg width="168" height="142" viewBox="0 0 168 142" fill="none" xmlns="http://www.w3.org/2000/svg">
<path d="M0.240061 74.5605L3.13206 65.9205H4.62006L7.51206 74.5605H6.40206L3.69606 66.5445H4.03206L1.35006 74.5605H0.240061ZM1.63206 72.5385V71.5365H6.12006V72.5385H1.63206ZM11.0462 74.7285C10.6302 74.7285 10.2722 74.6625 9.97215 74.5305C9.67615 74.3985 9.43015 74.2225 9.23415 74.0025C9.03815 73.7825 8.88415 73.5385 8.77215 73.2705C8.66015 73.0025 8.58015 72.7285 8.53215 72.4485C8.48815 72.1685 8.46615 71.9065 8.46615 71.6625V68.0805H9.54615V71.3265C9.54615 71.6305 9.57415 71.9245 9.63015 72.2085C9.68615 72.4925 9.78015 72.7485 9.91215 72.9765C10.0482 73.2045 10.2282 73.3845 10.4522 73.5165C10.6802 73.6485 10.9642 73.7145 11.3042 73.7145C11.5722 73.7145 11.8162 73.6685 12.0362 73.5765C12.2562 73.4845 12.4442 73.3485 12.6002 73.1685C12.7562 72.9845 12.8762 72.7525 12.9602 72.4725C13.0442 72.1925 13.0862 71.8665 13.0862 71.4945L13.7882 71.7105C13.7882 72.3345 13.6742 72.8725 13.4462 73.3245C13.2222 73.7765 12.9042 74.1245 12.4922 74.3685C12.0842 74.6085 11.6022 74.7285 11.0462 74.7285ZM13.2062 74.5605V72.8265H13.0862V68.0805H14.1602V74.5605H13.2062ZM19.4581 74.5605C19.0741 74.6365 18.6941 74.6665 18.3181 74.6505C17.9461 74.6385 17.6141 74.5645 17.3221 74.4285C17.0301 74.2885 16.8081 74.0725 16.6561 73.7805C16.5281 73.5245 16.4581 73.2665 16.4461 73.0065C16.4381 72.7425 16.4341 72.4445 16.4341 72.1125V66.2805H17.5021V72.0645C17.5021 72.3285 17.5041 72.5545 17.5081 72.7425C17.5161 72.9305 17.5581 73.0925 17.6341 73.2285C17.7781 73.4845 18.0061 73.6345 18.3181 73.6785C18.6341 73.7225 19.0141 73.7105 19.4581 73.6425V74.5605ZM15.1201 68.9625V68.0805H19.4581V68.9625H15.1201ZM23.2641 74.7405C22.6201 74.7405 22.0641 74.5945 21.5961 74.3025C21.1321 74.0105 20.7741 73.6065 20.5221 73.0905C20.2701 72.5745 20.1441 71.9825 20.1441 71.3145C20.1441 70.6345 20.2721 70.0385 20.5281 69.5265C20.7841 69.0145 21.1461 68.6165 21.6141 68.3325C22.0821 68.0445 22.6321 67.9005 23.2641 67.9005C23.9121 67.9005 24.4701 68.0465 24.9381 68.3385C25.4061 68.6265 25.7641 69.0285 26.0121 69.5445C26.2641 70.0565 26.3901 70.6465 26.3901 71.3145C26.3901 71.9905 26.2641 72.5865 26.0121 73.1025C25.7601 73.6145 25.4001 74.0165 24.9321 74.3085C24.4641 74.5965 23.9081 74.7405 23.2641 74.7405ZM23.2641 73.7265C23.9361 73.7265 24.4361 73.5025 24.7641 73.0545C25.0921 72.6065 25.2561 72.0265 25.2561 71.3145C25.2561 70.5825 25.0901 70.0005 24.7581 69.5685C24.4261 69.1325 23.9281 68.9145 23.2641 68.9145C22.8121 68.9145 22.4401 69.0165 22.1481 69.2205C21.8561 69.4245 21.6381 69.7065 21.4941 70.0665C21.3501 70.4265 21.2781 70.8425 21.2781 71.3145C21.2781 72.0425 21.4461 72.6265 21.7821 73.0665C22.1181 73.5065 22.6121 73.7265 23.2641 73.7265ZM35.4572 74.5605L35.4632 70.4145C35.4632 69.9305 35.3332 69.5525 35.0732 69.2805C34.8172 69.0045 34.4832 68.8665 34.0712 68.8665C33.8312 68.8665 33.6032 68.9225 33.3872 69.0345C33.1712 69.1425 32.9952 69.3145 32.8592 69.5505C32.7232 69.7825 32.6552 70.0805 32.6552 70.4445L32.0912 70.2165C32.0832 69.7565 32.1772 69.3545 32.3732 69.0105C32.5732 68.6625 32.8452 68.3925 33.1892 68.2005C33.5332 68.0085 33.9212 67.9125 34.3532 67.9125C35.0292 67.9125 35.5612 68.1185 35.9492 68.5305C36.3372 68.9385 36.5312 69.4885 36.5312 70.1805L36.5252 74.5605H35.4572ZM27.7052 74.5605V68.0805H28.6592V69.8145H28.7792V74.5605H27.7052ZM31.5872 74.5605L31.5932 70.4565C31.5932 69.9605 31.4652 69.5725 31.2092 69.2925C30.9532 69.0085 30.6132 68.8665 30.1892 68.8665C29.7692 68.8665 29.4292 69.0105 29.1692 69.2985C28.9092 69.5865 28.7792 69.9685 28.7792 70.4445L28.2152 70.1085C28.2152 69.6885 28.3152 69.3125 28.5152 68.9805C28.7152 68.6485 28.9872 68.3885 29.3312 68.2005C29.6752 68.0085 30.0652 67.9125 30.5012 67.9125C30.9372 67.9125 31.3172 68.0045 31.6412 68.1885C31.9652 68.3725 32.2152 68.6365 32.3912 68.9805C32.5672 69.3205 32.6552 69.7265 32.6552 70.1985L32.6492 74.5605H31.5872ZM39.936 74.7405C39.452 74.7405 39.046 74.6525 38.718 74.4765C38.394 74.2965 38.148 74.0605 37.98 73.7685C37.816 73.4765 37.734 73.1565 37.734 72.8085C37.734 72.4685 37.798 72.1745 37.926 71.9265C38.058 71.6745 38.242 71.4665 38.478 71.3025C38.714 71.1345 38.996 71.0025 39.324 70.9065C39.632 70.8225 39.976 70.7505 40.356 70.6905C40.74 70.6265 41.128 70.5685 41.52 70.5165C41.912 70.4645 42.278 70.4145 42.618 70.3665L42.234 70.5885C42.246 70.0125 42.13 69.5865 41.886 69.3105C41.646 69.0345 41.23 68.8965 40.638 68.8965C40.246 68.8965 39.902 68.9865 39.606 69.1665C39.314 69.3425 39.108 69.6305 38.988 70.0305L37.974 69.7245C38.13 69.1565 38.432 68.7105 38.88 68.3865C39.328 68.0625 39.918 67.9005 40.65 67.9005C41.238 67.9005 41.742 68.0065 42.162 68.2185C42.586 68.4265 42.89 68.7425 43.074 69.1665C43.166 69.3665 43.224 69.5845 43.248 69.8205C43.272 70.0525 43.284 70.2965 43.284 70.5525V74.5605H42.336V73.0065L42.558 73.1505C42.314 73.6745 41.972 74.0705 41.532 74.3385C41.096 74.6065 40.564 74.7405 39.936 74.7405ZM40.098 73.8465C40.482 73.8465 40.814 73.7785 41.094 73.6425C41.378 73.5025 41.606 73.3205 41.778 73.0965C41.95 72.8685 42.062 72.6205 42.114 72.3525C42.174 72.1525 42.206 71.9305 42.21 71.6865C42.218 71.4385 42.222 71.2485 42.222 71.1165L42.594 71.2785C42.246 71.3265 41.904 71.3725 41.568 71.4165C41.232 71.4605 40.914 71.5085 40.614 71.5605C40.314 71.6085 40.044 71.6665 39.804 71.7345C39.628 71.7905 39.462 71.8625 39.306 71.9505C39.154 72.0385 39.03 72.1525 38.934 72.2925C38.842 72.4285 38.796 72.5985 38.796 72.8025C38.796 72.9785 38.84 73.1465 38.928 73.3065C39.02 73.4665 39.16 73.5965 39.348 73.6965C39.54 73.7965 39.79 73.8465 40.098 73.8465ZM48.462 74.5605C48.078 74.6365 47.698 74.6665 47.322 74.6505C46.95 74.6385 46.618 74.5645 46.326 74.4285C46.034 74.2885 45.812 74.0725 45.66 73.7805C45.532 73.5245 45.462 73.2665 45.45 73.0065C45.442 72.7425 45.438 72.4445 45.438 72.1125V66.2805H46.506V72.0645C46.506 72.3285 46.508 72.5545 46.512 72.7425C46.52 72.9305 46.562 73.0925 46.638 73.2285C46.782 73.4845 47.01 73.6345 47.322 73.6785C47.638 73.7225 48.018 73.7105 48.462 73.6425V74.5605ZM44.124 68.9625V68.0805H48.462V68.9625H44.124ZM52.316 74.7405C51.68 74.7405 51.124 74.6005 50.648 74.3205C50.176 74.0365 49.808 73.6425 49.544 73.1385C49.28 72.6305 49.148 72.0385 49.148 71.3625C49.148 70.6545 49.278 70.0425 49.538 69.5265C49.798 69.0065 50.16 68.6065 50.624 68.3265C51.092 68.0425 51.64 67.9005 52.268 67.9005C52.92 67.9005 53.474 68.0505 53.93 68.3505C54.39 68.6505 54.734 69.0785 54.962 69.6345C55.194 70.1905 55.294 70.8525 55.262 71.6205H54.182V71.2365C54.17 70.4405 54.008 69.8465 53.696 69.4545C53.384 69.0585 52.92 68.8605 52.304 68.8605C51.644 68.8605 51.142 69.0725 50.798 69.4965C50.454 69.9205 50.282 70.5285 50.282 71.3205C50.282 72.0845 50.454 72.6765 50.798 73.0965C51.142 73.5165 51.632 73.7265 52.268 73.7265C52.696 73.7265 53.068 73.6285 53.384 73.4325C53.7 73.2365 53.948 72.9545 54.128 72.5865L55.154 72.9405C54.902 73.5125 54.522 73.9565 54.014 74.2725C53.51 74.5845 52.944 74.7405 52.316 74.7405ZM49.922 71.6205V70.7625H54.71V71.6205H49.922ZM59.1419 74.7405C58.5379 74.7405 58.0199 74.5905 57.5879 74.2905C57.1559 73.9865 56.8219 73.5765 56.5859 73.0605C56.3539 72.5445 56.2379 71.9625 56.2379 71.3145C56.2379 70.6665 56.3539 70.0845 56.5859 69.5685C56.8219 69.0525 57.1559 68.6465 57.5879 68.3505C58.0199 68.0505 58.5359 67.9005 59.1359 67.9005C59.7479 67.9005 60.2619 68.0485 60.6779 68.3445C61.0939 68.6405 61.4079 69.0465 61.6199 69.5625C61.8359 70.0785 61.9439 70.6625 61.9439 71.3145C61.9439 71.9585 61.8359 72.5405 61.6199 73.0605C61.4079 73.5765 61.0939 73.9865 60.6779 74.2905C60.2619 74.5905 59.7499 74.7405 59.1419 74.7405ZM59.2739 73.7625C59.7099 73.7625 60.0679 73.6585 60.3479 73.4505C60.6279 73.2385 60.8339 72.9485 60.9659 72.5805C61.1019 72.2085 61.1699 71.7865 61.1699 71.3145C61.1699 70.8345 61.1019 70.4125 60.9659 70.0485C60.8339 69.6805 60.6299 69.3945 60.3539 69.1905C60.0779 68.9825 59.7279 68.8785 59.3039 68.8785C58.8639 68.8785 58.4999 68.9865 58.2119 69.2025C57.9279 69.4185 57.7159 69.7105 57.5759 70.0785C57.4399 70.4465 57.3719 70.8585 57.3719 71.3145C57.3719 71.7745 57.4419 72.1905 57.5819 72.5625C57.7219 72.9305 57.9319 73.2225 58.2119 73.4385C58.4959 73.6545 58.8499 73.7625 59.2739 73.7625ZM61.1699 74.5605V69.7905H61.0499V65.9205H62.1239V74.5605H61.1699ZM65.6072 74.5605L68.4992 65.9205H69.9872L72.8792 74.5605H71.7692L69.0632 66.5445H69.3992L66.7172 74.5605H65.6072ZM66.9992 72.5385V71.5365H71.4872V72.5385H66.9992ZM76.6833 74.7405C76.0273 74.7405 75.4693 74.5945 75.0093 74.3025C74.5533 74.0065 74.2053 73.6005 73.9653 73.0845C73.7253 72.5685 73.6013 71.9805 73.5933 71.3205C73.6013 70.6445 73.7273 70.0505 73.9713 69.5385C74.2193 69.0225 74.5733 68.6205 75.0333 68.3325C75.4933 68.0445 76.0473 67.9005 76.6953 67.9005C77.3793 67.9005 77.9673 68.0685 78.4593 68.4045C78.9553 68.7405 79.2873 69.2005 79.4553 69.7845L78.3993 70.1025C78.2633 69.7265 78.0413 69.4345 77.7333 69.2265C77.4293 69.0185 77.0793 68.9145 76.6833 68.9145C76.2393 68.9145 75.8733 69.0185 75.5853 69.2265C75.2973 69.4305 75.0833 69.7145 74.9433 70.0785C74.8033 70.4385 74.7313 70.8525 74.7273 71.3205C74.7353 72.0405 74.9013 72.6225 75.2253 73.0665C75.5533 73.5065 76.0393 73.7265 76.6833 73.7265C77.1073 73.7265 77.4593 73.6305 77.7393 73.4385C78.0193 73.2425 78.2313 72.9605 78.3753 72.5925L79.4553 72.8745C79.2313 73.4785 78.8813 73.9405 78.4053 74.2605C77.9293 74.5805 77.3553 74.7405 76.6833 74.7405ZM83.2341 74.7405C82.5781 74.7405 82.0201 74.5945 81.5601 74.3025C81.1041 74.0065 80.7561 73.6005 80.5161 73.0845C80.2761 72.5685 80.1521 71.9805 80.1441 71.3205C80.1521 70.6445 80.2781 70.0505 80.5221 69.5385C80.7701 69.0225 81.1241 68.6205 81.5841 68.3325C82.0441 68.0445 82.5981 67.9005 83.2461 67.9005C83.9301 67.9005 84.5181 68.0685 85.0101 68.4045C85.5061 68.7405 85.8381 69.2005 86.0061 69.7845L84.9501 70.1025C84.8141 69.7265 84.5921 69.4345 84.2841 69.2265C83.9801 69.0185 83.6301 68.9145 83.2341 68.9145C82.7901 68.9145 82.4241 69.0185 82.1361 69.2265C81.8481 69.4305 81.6341 69.7145 81.4941 70.0785C81.3541 70.4385 81.2821 70.8525 81.2781 71.3205C81.2861 72.0405 81.4521 72.6225 81.7761 73.0665C82.1041 73.5065 82.5901 73.7265 83.2341 73.7265C83.6581 73.7265 84.0101 73.6305 84.2901 73.4385C84.5701 73.2425 84.7821 72.9605 84.9261 72.5925L86.0061 72.8745C85.7821 73.4785 85.4321 73.9405 84.9561 74.2605C84.4801 74.5805 83.9061 74.7405 83.2341 74.7405ZM89.8149 74.7405C89.1709 74.7405 88.6149 74.5945 88.1469 74.3025C87.6829 74.0105 87.3249 73.6065 87.0729 73.0905C86.8209 72.5745 86.6949 71.9825 86.6949 71.3145C86.6949 70.6345 86.8229 70.0385 87.0789 69.5265C87.3349 69.0145 87.6969 68.6165 88.1649 68.3325C88.6329 68.0445 89.1829 67.9005 89.8149 67.9005C90.4629 67.9005 91.0209 68.0465 91.4889 68.3385C91.9569 68.6265 92.3149 69.0285 92.5629 69.5445C92.8149 70.0565 92.9409 70.6465 92.9409 71.3145C92.9409 71.9905 92.8149 72.5865 92.5629 73.1025C92.3109 73.6145 91.9509 74.0165 91.4829 74.3085C91.0149 74.5965 90.4589 74.7405 89.8149 74.7405ZM89.8149 73.7265C90.4869 73.7265 90.9869 73.5025 91.3149 73.0545C91.6429 72.6065 91.8069 72.0265 91.8069 71.3145C91.8069 70.5825 91.6409 70.0005 91.3089 69.5685C90.9769 69.1325 90.4789 68.9145 89.8149 68.9145C89.3629 68.9145 88.9909 69.0165 88.6989 69.2205C88.4069 69.4245 88.1889 69.7065 88.0449 70.0665C87.9009 70.4265 87.8289 70.8425 87.8289 71.3145C87.8289 72.0425 87.9969 72.6265 88.3329 73.0665C88.6689 73.5065 89.1629 73.7265 89.8149 73.7265ZM96.7219 74.7285C96.3059 74.7285 95.9479 74.6625 95.6479 74.5305C95.3519 74.3985 95.1059 74.2225 94.9099 74.0025C94.7139 73.7825 94.5599 73.5385 94.4479 73.2705C94.3359 73.0025 94.2559 72.7285 94.2079 72.4485C94.1639 72.1685 94.1419 71.9065 94.1419 71.6625V68.0805H95.2219V71.3265C95.2219 71.6305 95.2499 71.9245 95.3059 72.2085C95.3619 72.4925 95.4559 72.7485 95.5879 72.9765C95.7239 73.2045 95.9039 73.3845 96.1279 73.5165C96.3559 73.6485 96.6399 73.7145 96.9799 73.7145C97.2479 73.7145 97.4919 73.6685 97.7119 73.5765C97.9319 73.4845 98.1199 73.3485 98.2759 73.1685C98.4319 72.9845 98.5519 72.7525 98.6359 72.4725C98.7199 72.1925 98.7619 71.8665 98.7619 71.4945L99.4639 71.7105C99.4639 72.3345 99.3499 72.8725 99.1219 73.3245C98.8979 73.7765 98.5799 74.1245 98.1679 74.3685C97.7599 74.6085 97.2779 74.7285 96.7219 74.7285ZM98.8819 74.5605V72.8265H98.7619V68.0805H99.8359V74.5605H98.8819ZM106.13 74.5605V71.3145C106.13 71.0065 106.102 70.7105 106.046 70.4265C105.994 70.1425 105.9 69.8885 105.764 69.6645C105.632 69.4365 105.452 69.2565 105.224 69.1245C105 68.9925 104.716 68.9265 104.372 68.9265C104.104 68.9265 103.86 68.9725 103.64 69.0645C103.424 69.1525 103.238 69.2885 103.082 69.4725C102.926 69.6565 102.804 69.8885 102.716 70.1685C102.632 70.4445 102.59 70.7705 102.59 71.1465L101.888 70.9305C101.888 70.3025 102 69.7645 102.224 69.3165C102.452 68.8645 102.77 68.5185 103.178 68.2785C103.59 68.0345 104.074 67.9125 104.63 67.9125C105.05 67.9125 105.408 67.9785 105.704 68.1105C106 68.2425 106.246 68.4185 106.442 68.6385C106.638 68.8545 106.792 69.0985 106.904 69.3705C107.016 69.6385 107.094 69.9125 107.138 70.1925C107.186 70.4685 107.21 70.7305 107.21 70.9785V74.5605H106.13ZM101.51 74.5605V68.0805H102.47V69.8145H102.59V74.5605H101.51ZM112.388 74.5605C112.004 74.6365 111.624 74.6665 111.248 74.6505C110.876 74.6385 110.544 74.5645 110.252 74.4285C109.96 74.2885 109.738 74.0725 109.586 73.7805C109.458 73.5245 109.388 73.2665 109.376 73.0065C109.368 72.7425 109.364 72.4445 109.364 72.1125V66.2805H110.432V72.0645C110.432 72.3285 110.434 72.5545 110.438 72.7425C110.446 72.9305 110.488 73.0925 110.564 73.2285C110.708 73.4845 110.936 73.6345 111.248 73.6785C111.564 73.7225 111.944 73.7105 112.388 73.6425V74.5605ZM108.05 68.9625V68.0805H112.388V68.9625H108.05ZM116.106 74.5605V65.9205H119.52C119.604 65.9205 119.704 65.9245 119.82 65.9325C119.936 65.9365 120.048 65.9485 120.156 65.9685C120.624 66.0405 121.016 66.2005 121.332 66.4485C121.652 66.6965 121.892 67.0105 122.052 67.3905C122.212 67.7665 122.292 68.1845 122.292 68.6445C122.292 69.3125 122.118 69.8925 121.77 70.3845C121.422 70.8725 120.912 71.1785 120.24 71.3025L119.832 71.3685H117.174V74.5605H116.106ZM121.248 74.5605L119.544 71.0445L120.6 70.7205L122.472 74.5605H121.248ZM117.174 70.3545H119.484C119.56 70.3545 119.646 70.3505 119.742 70.3425C119.842 70.3345 119.936 70.3205 120.024 70.3005C120.3 70.2365 120.524 70.1205 120.696 69.9525C120.872 69.7805 121 69.5805 121.08 69.3525C121.16 69.1205 121.2 68.8845 121.2 68.6445C121.2 68.4045 121.16 68.1705 121.08 67.9425C121 67.7105 120.872 67.5085 120.696 67.3365C120.524 67.1645 120.3 67.0485 120.024 66.9885C119.936 66.9645 119.842 66.9505 119.742 66.9465C119.646 66.9385 119.56 66.9345 119.484 66.9345H117.174V70.3545ZM126.601 74.7405C125.965 74.7405 125.409 74.6005 124.933 74.3205C124.461 74.0365 124.093 73.6425 123.829 73.1385C123.565 72.6305 123.433 72.0385 123.433 71.3625C123.433 70.6545 123.563 70.0425 123.823 69.5265C124.083 69.0065 124.445 68.6065 124.909 68.3265C125.377 68.0425 125.925 67.9005 126.553 67.9005C127.205 67.9005 127.759 68.0505 128.215 68.3505C128.675 68.6505 129.019 69.0785 129.247 69.6345C129.479 70.1905 129.579 70.8525 129.547 71.6205H128.467V71.2365C128.455 70.4405 128.293 69.8465 127.981 69.4545C127.669 69.0585 127.205 68.8605 126.589 68.8605C125.929 68.8605 125.427 69.0725 125.083 69.4965C124.739 69.9205 124.567 70.5285 124.567 71.3205C124.567 72.0845 124.739 72.6765 125.083 73.0965C125.427 73.5165 125.917 73.7265 126.553 73.7265C126.981 73.7265 127.353 73.6285 127.669 73.4325C127.985 73.2365 128.233 72.9545 128.413 72.5865L129.439 72.9405C129.187 73.5125 128.807 73.9565 128.299 74.2725C127.795 74.5845 127.229 74.7405 126.601 74.7405ZM124.207 71.6205V70.7625H128.995V71.6205H124.207ZM133.331 74.7345C132.559 74.7345 131.925 74.5665 131.429 74.2305C130.937 73.8905 130.635 73.4165 130.523 72.8085L131.615 72.6345C131.703 72.9865 131.905 73.2665 132.221 73.4745C132.537 73.6785 132.929 73.7805 133.397 73.7805C133.841 73.7805 134.189 73.6885 134.441 73.5045C134.693 73.3205 134.819 73.0705 134.819 72.7545C134.819 72.5705 134.777 72.4225 134.693 72.3105C134.609 72.1945 134.435 72.0865 134.171 71.9865C133.911 71.8865 133.517 71.7665 132.989 71.6265C132.417 71.4745 131.967 71.3165 131.639 71.1525C131.311 70.9885 131.077 70.7985 130.937 70.5825C130.797 70.3665 130.727 70.1045 130.727 69.7965C130.727 69.4165 130.831 69.0845 131.039 68.8005C131.247 68.5125 131.537 68.2905 131.909 68.1345C132.285 67.9785 132.721 67.9005 133.217 67.9005C133.709 67.9005 134.149 67.9785 134.537 68.1345C134.925 68.2905 135.237 68.5125 135.473 68.8005C135.713 69.0845 135.855 69.4165 135.899 69.7965L134.807 69.9945C134.755 69.6465 134.587 69.3725 134.303 69.1725C134.023 68.9725 133.661 68.8665 133.217 68.8545C132.797 68.8385 132.455 68.9125 132.191 69.0765C131.931 69.2405 131.801 69.4625 131.801 69.7425C131.801 69.8985 131.849 70.0325 131.945 70.1445C132.045 70.2565 132.227 70.3625 132.491 70.4625C132.759 70.5625 133.147 70.6765 133.655 70.8045C134.227 70.9485 134.677 71.1065 135.005 71.2785C135.337 71.4465 135.573 71.6465 135.713 71.8785C135.853 72.1065 135.923 72.3885 135.923 72.7245C135.923 73.3485 135.693 73.8405 135.233 74.2005C134.773 74.5565 134.139 74.7345 133.331 74.7345ZM140.054 74.7405C139.418 74.7405 138.862 74.6005 138.386 74.3205C137.914 74.0365 137.546 73.6425 137.282 73.1385C137.018 72.6305 136.886 72.0385 136.886 71.3625C136.886 70.6545 137.016 70.0425 137.276 69.5265C137.536 69.0065 137.898 68.6065 138.362 68.3265C138.83 68.0425 139.378 67.9005 140.006 67.9005C140.658 67.9005 141.212 68.0505 141.668 68.3505C142.128 68.6505 142.472 69.0785 142.7 69.6345C142.932 70.1905 143.032 70.8525 143 71.6205H141.92V71.2365C141.908 70.4405 141.746 69.8465 141.434 69.4545C141.122 69.0585 140.658 68.8605 140.042 68.8605C139.382 68.8605 138.88 69.0725 138.536 69.4965C138.192 69.9205 138.02 70.5285 138.02 71.3205C138.02 72.0845 138.192 72.6765 138.536 73.0965C138.88 73.5165 139.37 73.7265 140.006 73.7265C140.434 73.7265 140.806 73.6285 141.122 73.4325C141.438 73.2365 141.686 72.9545 141.866 72.5865L142.892 72.9405C142.64 73.5125 142.26 73.9565 141.752 74.2725C141.248 74.5845 140.682 74.7405 140.054 74.7405ZM137.66 71.6205V70.7625H142.448V71.6205H137.66ZM146.061 74.7405C145.577 74.7405 145.171 74.6525 144.843 74.4765C144.519 74.2965 144.273 74.0605 144.105 73.7685C143.941 73.4765 143.859 73.1565 143.859 72.8085C143.859 72.4685 143.923 72.1745 144.051 71.9265C144.183 71.6745 144.367 71.4665 144.603 71.3025C144.839 71.1345 145.121 71.0025 145.449 70.9065C145.757 70.8225 146.101 70.7505 146.481 70.6905C146.865 70.6265 147.253 70.5685 147.645 70.5165C148.037 70.4645 148.403 70.4145 148.743 70.3665L148.359 70.5885C148.371 70.0125 148.255 69.5865 148.011 69.3105C147.771 69.0345 147.355 68.8965 146.763 68.8965C146.371 68.8965 146.027 68.9865 145.731 69.1665C145.439 69.3425 145.233 69.6305 145.113 70.0305L144.099 69.7245C144.255 69.1565 144.557 68.7105 145.005 68.3865C145.453 68.0625 146.043 67.9005 146.775 67.9005C147.363 67.9005 147.867 68.0065 148.287 68.2185C148.711 68.4265 149.015 68.7425 149.199 69.1665C149.291 69.3665 149.349 69.5845 149.373 69.8205C149.397 70.0525 149.409 70.2965 149.409 70.5525V74.5605H148.461V73.0065L148.683 73.1505C148.439 73.6745 148.097 74.0705 147.657 74.3385C147.221 74.6065 146.689 74.7405 146.061 74.7405ZM146.223 73.8465C146.607 73.8465 146.939 73.7785 147.219 73.6425C147.503 73.5025 147.731 73.3205 147.903 73.0965C148.075 72.8685 148.187 72.6205 148.239 72.3525C148.299 72.1525 148.331 71.9305 148.335 71.6865C148.343 71.4385 148.347 71.2485 148.347 71.1165L148.719 71.2785C148.371 71.3265 148.029 71.3725 147.693 71.4165C147.357 71.4605 147.039 71.5085 146.739 71.5605C146.439 71.6085 146.169 71.6665 145.929 71.7345C145.753 71.7905 145.587 71.8625 145.431 71.9505C145.279 72.0385 145.155 72.1525 145.059 72.2925C144.967 72.4285 144.921 72.5985 144.921 72.8025C144.921 72.9785 144.965 73.1465 145.053 73.3065C145.145 73.4665 145.285 73.5965 145.473 73.6965C145.665 73.7965 145.915 73.8465 146.223 73.8465ZM150.969 74.5605V68.0805H151.923V69.6465L151.767 69.4425C151.843 69.2425 151.941 69.0585 152.061 68.8905C152.185 68.7225 152.323 68.5845 152.475 68.4765C152.643 68.3405 152.833 68.2365 153.045 68.1645C153.257 68.0925 153.473 68.0505 153.693 68.0385C153.913 68.0225 154.119 68.0365 154.311 68.0805V69.0825C154.087 69.0225 153.841 69.0065 153.573 69.0345C153.305 69.0625 153.057 69.1605 152.829 69.3285C152.621 69.4765 152.459 69.6565 152.343 69.8685C152.231 70.0805 152.153 70.3105 152.109 70.5585C152.065 70.8025 152.043 71.0525 152.043 71.3085V74.5605H150.969ZM158.058 74.7405C157.402 74.7405 156.844 74.5945 156.384 74.3025C155.928 74.0065 155.58 73.6005 155.34 73.0845C155.1 72.5685 154.976 71.9805 154.968 71.3205C154.976 70.6445 155.102 70.0505 155.346 69.5385C155.594 69.0225 155.948 68.6205 156.408 68.3325C156.868 68.0445 157.422 67.9005 158.07 67.9005C158.754 67.9005 159.342 68.0685 159.834 68.4045C160.33 68.7405 160.662 69.2005 160.83 69.7845L159.774 70.1025C159.638 69.7265 159.416 69.4345 159.108 69.2265C158.804 69.0185 158.454 68.9145 158.058 68.9145C157.614 68.9145 157.248 69.0185 156.96 69.2265C156.672 69.4305 156.458 69.7145 156.318 70.0785C156.178 70.4385 156.106 70.8525 156.102 71.3205C156.11 72.0405 156.276 72.6225 156.6 73.0665C156.928 73.5065 157.414 73.7265 158.058 73.7265C158.482 73.7265 158.834 73.6305 159.114 73.4385C159.394 73.2425 159.606 72.9605 159.75 72.5925L160.83 72.8745C160.606 73.4785 160.256 73.9405 159.78 74.2605C159.304 74.5805 158.73 74.7405 158.058 74.7405ZM166.669 74.5605V71.3145C166.669 71.0065 166.641 70.7105 166.585 70.4265C166.533 70.1425 166.439 69.8885 166.303 69.6645C166.171 69.4365 165.991 69.2565 165.763 69.1245C165.539 68.9925 165.255 68.9265 164.911 68.9265C164.643 68.9265 164.399 68.9725 164.179 69.0645C163.963 69.1525 163.777 69.2885 163.621 69.4725C163.465 69.6565 163.343 69.8885 163.255 70.1685C163.171 70.4445 163.129 70.7705 163.129 71.1465L162.427 70.9305C162.427 70.3025 162.539 69.7645 162.763 69.3165C162.991 68.8645 163.309 68.5185 163.717 68.2785C164.129 68.0345 164.613 67.9125 165.169 67.9125C165.589 67.9125 165.947 67.9785 166.243 68.1105C166.539 68.2425 166.785 68.4185 166.981 68.6385C167.177 68.8545 167.331 69.0985 167.443 69.3705C167.555 69.6385 167.633 69.9125 167.677 70.1925C167.725 70.4685 167.749 70.7305 167.749 70.9785V74.5605H166.669ZM162.049 74.5605V65.9205H163.009V70.6905H163.129V74.5605H162.049ZM0.840061 106.561V97.9205H4.20606C4.72206 97.9205 5.16206 98.0265 5.52606 98.2385C5.89406 98.4505 6.17406 98.7305 6.36606 99.0785C6.56206 99.4225 6.66006 99.7945 6.66006 100.195C6.66006 100.663 6.54006 101.073 6.30006 101.425C6.06006 101.777 5.73606 102.019 5.32806 102.151L5.31606 101.857C5.87206 102.005 6.30406 102.277 6.61206 102.673C6.92006 103.069 7.07406 103.541 7.07406 104.089C7.07406 104.593 6.97006 105.029 6.76206 105.397C6.55806 105.765 6.26206 106.051 5.87406 106.255C5.49006 106.459 5.03406 106.561 4.50606 106.561H0.840061ZM1.92006 105.541H4.30206C4.62206 105.541 4.90806 105.483 5.16006 105.367C5.41206 105.247 5.61006 105.079 5.75406 104.863C5.90206 104.647 5.97606 104.387 5.97606 104.083C5.97606 103.791 5.91006 103.529 5.77806 103.297C5.65006 103.065 5.46806 102.881 5.23206 102.745C5.00006 102.605 4.73006 102.535 4.42206 102.535H1.92006V105.541ZM1.92006 101.527H4.19406C4.45006 101.527 4.68006 101.473 4.88406 101.365C5.09206 101.253 5.25606 101.097 5.37606 100.897C5.50006 100.697 5.56206 100.463 5.56206 100.195C5.56206 99.8225 5.43606 99.5185 5.18406 99.2825C4.93206 99.0465 4.60206 98.9285 4.19406 98.9285H1.92006V101.527ZM8.02975 106.555L8.03575 105.595L11.8697 102.145C12.1897 101.857 12.4037 101.585 12.5117 101.329C12.6237 101.069 12.6797 100.803 12.6797 100.531C12.6797 100.199 12.6037 99.8985 12.4517 99.6305C12.2997 99.3625 12.0917 99.1505 11.8277 98.9945C11.5677 98.8385 11.2717 98.7605 10.9397 98.7605C10.5957 98.7605 10.2897 98.8425 10.0217 99.0065C9.75375 99.1665 9.54175 99.3805 9.38575 99.6485C9.23375 99.9165 9.15975 100.209 9.16375 100.525H8.07175C8.07175 99.9805 8.19775 99.5005 8.44975 99.0845C8.70175 98.6645 9.04375 98.3365 9.47575 98.1005C9.91175 97.8605 10.4057 97.7405 10.9577 97.7405C11.4937 97.7405 11.9737 97.8645 12.3977 98.1125C12.8217 98.3565 13.1557 98.6905 13.3997 99.1145C13.6477 99.5345 13.7717 100.011 13.7717 100.543C13.7717 100.919 13.7237 101.245 13.6277 101.521C13.5357 101.797 13.3917 102.053 13.1957 102.289C12.9997 102.521 12.7537 102.769 12.4577 103.033L9.27175 105.895L9.13375 105.535H13.7717V106.555H8.02975ZM15.2072 106.561V97.9205H18.5732C19.0892 97.9205 19.5292 98.0265 19.8932 98.2385C20.2612 98.4505 20.5412 98.7305 20.7332 99.0785C20.9292 99.4225 21.0272 99.7945 21.0272 100.195C21.0272 100.663 20.9072 101.073 20.6672 101.425C20.4272 101.777 20.1032 102.019 19.6952 102.151L19.6832 101.857C20.2392 102.005 20.6712 102.277 20.9792 102.673C21.2872 103.069 21.4412 103.541 21.4412 104.089C21.4412 104.593 21.3372 105.029 21.1292 105.397C20.9252 105.765 20.6292 106.051 20.2412 106.255C19.8572 106.459 19.4012 106.561 18.8732 106.561H15.2072ZM16.2872 105.541H18.6692C18.9892 105.541 19.2752 105.483 19.5272 105.367C19.7792 105.247 19.9772 105.079 20.1212 104.863C20.2692 104.647 20.3432 104.387 20.3432 104.083C20.3432 103.791 20.2772 103.529 20.1452 103.297C20.0172 103.065 19.8352 102.881 19.5992 102.745C19.3672 102.605 19.0972 102.535 18.7892 102.535H16.2872V105.541ZM16.2872 101.527H18.5612C18.8172 101.527 19.0472 101.473 19.2512 101.365C19.4592 101.253 19.6232 101.097 19.7432 100.897C19.8672 100.697 19.9292 100.463 19.9292 100.195C19.9292 99.8225 19.8032 99.5185 19.5512 99.2825C19.2992 99.0465 18.9692 98.9285 18.5612 98.9285H16.2872V101.527ZM22.6369 106.561V100.081H23.5909V101.647L23.4349 101.443C23.5109 101.243 23.6089 101.059 23.7289 100.891C23.8529 100.723 23.9909 100.585 24.1429 100.477C24.3109 100.341 24.5009 100.237 24.7129 100.165C24.9249 100.093 25.1409 100.051 25.3609 100.039C25.5809 100.023 25.7869 100.037 25.9789 100.081V101.083C25.7549 101.023 25.5089 101.007 25.2409 101.035C24.9729 101.063 24.7249 101.161 24.4969 101.329C24.2889 101.477 24.1269 101.657 24.0109 101.869C23.8989 102.081 23.8209 102.311 23.7769 102.559C23.7329 102.803 23.7109 103.053 23.7109 103.309V106.561H22.6369ZM28.7446 106.741C28.2606 106.741 27.8546 106.653 27.5266 106.477C27.2026 106.297 26.9566 106.061 26.7886 105.769C26.6246 105.477 26.5426 105.157 26.5426 104.809C26.5426 104.469 26.6066 104.175 26.7346 103.927C26.8666 103.675 27.0506 103.467 27.2866 103.303C27.5226 103.135 27.8046 103.003 28.1326 102.907C28.4406 102.823 28.7846 102.751 29.1646 102.691C29.5486 102.627 29.9366 102.569 30.3286 102.517C30.7206 102.465 31.0866 102.415 31.4266 102.367L31.0426 102.589C31.0546 102.013 30.9386 101.587 30.6946 101.311C30.4546 101.035 30.0386 100.897 29.4466 100.897C29.0546 100.897 28.7106 100.987 28.4146 101.167C28.1226 101.343 27.9166 101.631 27.7966 102.031L26.7826 101.725C26.9386 101.157 27.2406 100.711 27.6886 100.387C28.1366 100.063 28.7266 99.9005 29.4586 99.9005C30.0466 99.9005 30.5506 100.007 30.9706 100.219C31.3946 100.427 31.6986 100.743 31.8826 101.167C31.9746 101.367 32.0326 101.585 32.0566 101.821C32.0806 102.053 32.0926 102.297 32.0926 102.553V106.561H31.1446V105.007L31.3666 105.151C31.1226 105.675 30.7806 106.071 30.3406 106.339C29.9046 106.607 29.3726 106.741 28.7446 106.741ZM28.9066 105.847C29.2906 105.847 29.6226 105.779 29.9026 105.643C30.1866 105.503 30.4146 105.321 30.5866 105.097C30.7586 104.869 30.8706 104.621 30.9226 104.353C30.9826 104.153 31.0146 103.931 31.0186 103.687C31.0266 103.439 31.0306 103.249 31.0306 103.117L31.4026 103.279C31.0546 103.327 30.7126 103.373 30.3766 103.417C30.0406 103.461 29.7226 103.509 29.4226 103.561C29.1226 103.609 28.8526 103.667 28.6126 103.735C28.4366 103.791 28.2706 103.863 28.1146 103.951C27.9626 104.039 27.8386 104.153 27.7426 104.293C27.6506 104.429 27.6046 104.599 27.6046 104.803C27.6046 104.979 27.6486 105.147 27.7366 105.307C27.8286 105.467 27.9686 105.597 28.1566 105.697C28.3486 105.797 28.5986 105.847 28.9066 105.847ZM33.7726 98.9345V97.8305H34.8406V98.9345H33.7726ZM33.7726 106.561V100.081H34.8406V106.561H33.7726ZM41.2548 106.561V103.315C41.2548 103.007 41.2268 102.711 41.1708 102.427C41.1188 102.143 41.0248 101.889 40.8888 101.665C40.7568 101.437 40.5768 101.257 40.3488 101.125C40.1248 100.993 39.8408 100.927 39.4968 100.927C39.2288 100.927 38.9848 100.973 38.7648 101.065C38.5488 101.153 38.3628 101.289 38.2068 101.473C38.0508 101.657 37.9288 101.889 37.8408 102.169C37.7568 102.445 37.7148 102.771 37.7148 103.147L37.0128 102.931C37.0128 102.303 37.1248 101.765 37.3488 101.317C37.5768 100.865 37.8948 100.519 38.3028 100.279C38.7148 100.035 39.1988 99.9125 39.7548 99.9125C40.1748 99.9125 40.5328 99.9785 40.8288 100.111C41.1248 100.243 41.3708 100.419 41.5668 100.639C41.7628 100.855 41.9168 101.099 42.0288 101.371C42.1408 101.639 42.2188 101.913 42.2628 102.193C42.3108 102.469 42.3348 102.731 42.3348 102.979V106.561H41.2548ZM36.6348 106.561V100.081H37.5948V101.815H37.7148V106.561H36.6348ZM46.4171 106.561V97.9205H47.4851V106.561H46.4171ZM53.8994 106.561V103.315C53.8994 103.007 53.8714 102.711 53.8154 102.427C53.7634 102.143 53.6694 101.889 53.5334 101.665C53.4014 101.437 53.2214 101.257 52.9934 101.125C52.7694 100.993 52.4854 100.927 52.1414 100.927C51.8734 100.927 51.6294 100.973 51.4094 101.065C51.1934 101.153 51.0074 101.289 50.8514 101.473C50.6954 101.657 50.5734 101.889 50.4854 102.169C50.4014 102.445 50.3594 102.771 50.3594 103.147L49.6574 102.931C49.6574 102.303 49.7694 101.765 49.9934 101.317C50.2214 100.865 50.5394 100.519 50.9474 100.279C51.3594 100.035 51.8434 99.9125 52.3994 99.9125C52.8194 99.9125 53.1774 99.9785 53.4734 100.111C53.7694 100.243 54.0154 100.419 54.2114 100.639C54.4074 100.855 54.5614 101.099 54.6734 101.371C54.7854 101.639 54.8634 101.913 54.9074 102.193C54.9554 102.469 54.9794 102.731 54.9794 102.979V106.561H53.8994ZM49.2794 106.561V100.081H50.2394V101.815H50.3594V106.561H49.2794ZM59.2107 106.741C58.5547 106.741 57.9967 106.595 57.5367 106.303C57.0807 106.007 56.7327 105.601 56.4927 105.085C56.2527 104.569 56.1287 103.981 56.1207 103.321C56.1287 102.645 56.2547 102.051 56.4987 101.539C56.7467 101.023 57.1007 100.621 57.5607 100.333C58.0207 100.045 58.5747 99.9005 59.2227 99.9005C59.9067 99.9005 60.4947 100.069 60.9867 100.405C61.4827 100.741 61.8147 101.201 61.9827 101.785L60.9267 102.103C60.7907 101.727 60.5687 101.435 60.2607 101.227C59.9567 101.019 59.6067 100.915 59.2107 100.915C58.7667 100.915 58.4007 101.019 58.1127 101.227C57.8247 101.431 57.6107 101.715 57.4707 102.079C57.3307 102.439 57.2587 102.853 57.2547 103.321C57.2627 104.041 57.4287 104.623 57.7527 105.067C58.0807 105.507 58.5667 105.727 59.2107 105.727C59.6347 105.727 59.9867 105.631 60.2667 105.439C60.5467 105.243 60.7587 104.961 60.9027 104.593L61.9827 104.875C61.7587 105.479 61.4087 105.941 60.9327 106.261C60.4567 106.581 59.8827 106.741 59.2107 106.741ZM4.57206 122.561V120.971H0.600061V119.957L3.45006 113.921H4.66206L1.81206 119.957H4.57206V117.527H5.65206V119.957H6.55206V120.971H5.65206V122.561H4.57206ZM10.9045 122.741C10.3445 122.741 9.8445 122.615 9.4045 122.363C8.9685 122.107 8.6225 121.761 8.3665 121.325C8.1145 120.885 7.9885 120.385 7.9885 119.825V116.657C7.9885 116.097 8.1145 115.597 8.3665 115.157C8.6225 114.717 8.9685 114.371 9.4045 114.119C9.8445 113.867 10.3445 113.741 10.9045 113.741C11.4645 113.741 11.9645 113.867 12.4045 114.119C12.8445 114.371 13.1905 114.717 13.4425 115.157C13.6945 115.597 13.8205 116.097 13.8205 116.657V119.825C13.8205 120.385 13.6945 120.885 13.4425 121.325C13.1905 121.761 12.8445 122.107 12.4045 122.363C11.9645 122.615 11.4645 122.741 10.9045 122.741ZM10.9045 121.715C11.2445 121.715 11.5525 121.633 11.8285 121.469C12.1045 121.305 12.3245 121.085 12.4885 120.809C12.6525 120.529 12.7345 120.221 12.7345 119.885V116.591C12.7345 116.251 12.6525 115.943 12.4885 115.667C12.3245 115.391 12.1045 115.171 11.8285 115.007C11.5525 114.843 11.2445 114.761 10.9045 114.761C10.5685 114.761 10.2605 114.843 9.9805 115.007C9.7045 115.171 9.4845 115.391 9.3205 115.667C9.1565 115.943 9.0745 116.251 9.0745 116.591V119.885C9.0745 120.221 9.1565 120.529 9.3205 120.809C9.4845 121.085 9.7045 121.305 9.9805 121.469C10.2605 121.633 10.5685 121.715 10.9045 121.715ZM15.2602 122.555L15.2662 121.595L19.1002 118.145C19.4202 117.857 19.6342 117.585 19.7422 117.329C19.8542 117.069 19.9102 116.803 19.9102 116.531C19.9102 116.199 19.8342 115.899 19.6822 115.631C19.5302 115.363 19.3222 115.151 19.0582 114.995C18.7982 114.839 18.5022 114.761 18.1702 114.761C17.8262 114.761 17.5202 114.843 17.2522 115.007C16.9842 115.167 16.7722 115.381 16.6162 115.649C16.4642 115.917 16.3902 116.209 16.3942 116.525H15.3022C15.3022 115.981 15.4282 115.501 15.6802 115.085C15.9322 114.665 16.2742 114.337 16.7062 114.101C17.1422 113.861 17.6362 113.741 18.1882 113.741C18.7242 113.741 19.2042 113.865 19.6282 114.113C20.0522 114.357 20.3862 114.691 20.6302 115.115C20.8782 115.535 21.0022 116.011 21.0022 116.543C21.0022 116.919 20.9542 117.245 20.8582 117.521C20.7662 117.797 20.6222 118.053 20.4262 118.289C20.2302 118.521 19.9842 118.769 19.6882 119.033L16.5022 121.895L16.3642 121.535H21.0022V122.555H15.2602ZM24.8077 122.729C24.3797 122.729 23.9817 122.651 23.6137 122.495C23.2457 122.335 22.9277 122.111 22.6597 121.823C22.3957 121.531 22.2017 121.185 22.0777 120.785L23.1037 120.491C23.2357 120.891 23.4557 121.195 23.7637 121.403C24.0717 121.611 24.4177 121.713 24.8017 121.709C25.1537 121.701 25.4577 121.621 25.7137 121.469C25.9737 121.313 26.1737 121.101 26.3137 120.833C26.4577 120.565 26.5297 120.255 26.5297 119.903C26.5297 119.367 26.3697 118.933 26.0497 118.601C25.7297 118.265 25.3097 118.097 24.7897 118.097C24.6457 118.097 24.4937 118.117 24.3337 118.157C24.1777 118.197 24.0317 118.253 23.8957 118.325L23.3797 117.479L26.5837 114.581L26.7217 114.941H22.4197V113.921H27.5137V114.947L24.7837 117.563L24.7717 117.185C25.3437 117.145 25.8437 117.239 26.2717 117.467C26.6997 117.695 27.0317 118.021 27.2677 118.445C27.5077 118.869 27.6277 119.355 27.6277 119.903C27.6277 120.455 27.5037 120.943 27.2557 121.367C27.0077 121.791 26.6717 122.125 26.2477 122.369C25.8237 122.609 25.3437 122.729 24.8077 122.729ZM31.5901 122.561V113.921H32.6581V117.977L36.4381 113.921H37.7821L33.8581 118.115L38.0881 122.561H36.7081L32.6581 118.337V122.561H31.5901ZM41.2535 122.741C40.6175 122.741 40.0615 122.601 39.5855 122.321C39.1135 122.037 38.7455 121.643 38.4815 121.139C38.2175 120.631 38.0855 120.039 38.0855 119.363C38.0855 118.655 38.2155 118.043 38.4755 117.527C38.7355 117.007 39.0975 116.607 39.5615 116.327C40.0295 116.043 40.5775 115.901 41.2055 115.901C41.8575 115.901 42.4115 116.051 42.8675 116.351C43.3275 116.651 43.6715 117.079 43.8995 117.635C44.1315 118.191 44.2315 118.853 44.1995 119.621H43.1195V119.237C43.1075 118.441 42.9455 117.847 42.6335 117.455C42.3215 117.059 41.8575 116.861 41.2415 116.861C40.5815 116.861 40.0795 117.073 39.7355 117.497C39.3915 117.921 39.2195 118.529 39.2195 119.321C39.2195 120.085 39.3915 120.677 39.7355 121.097C40.0795 121.517 40.5695 121.727 41.2055 121.727C41.6335 121.727 42.0055 121.629 42.3215 121.433C42.6375 121.237 42.8855 120.955 43.0655 120.587L44.0915 120.941C43.8395 121.513 43.4595 121.957 42.9515 122.273C42.4475 122.585 41.8815 122.741 41.2535 122.741ZM38.8595 119.621V118.763H43.6475V119.621H38.8595ZM49.9736 122.561V119.315C49.9736 119.007 49.9456 118.711 49.8896 118.427C49.8376 118.143 49.7436 117.889 49.6076 117.665C49.4756 117.437 49.2956 117.257 49.0676 117.125C48.8436 116.993 48.5596 116.927 48.2156 116.927C47.9476 116.927 47.7036 116.973 47.4836 117.065C47.2676 117.153 47.0816 117.289 46.9256 117.473C46.7696 117.657 46.6476 117.889 46.5596 118.169C46.4756 118.445 46.4336 118.771 46.4336 119.147L45.7316 118.931C45.7316 118.303 45.8436 117.765 46.0676 117.317C46.2956 116.865 46.6136 116.519 47.0216 116.279C47.4336 116.035 47.9176 115.913 48.4736 115.913C48.8936 115.913 49.2516 115.979 49.5476 116.111C49.8436 116.243 50.0896 116.419 50.2856 116.639C50.4816 116.855 50.6356 117.099 50.7476 117.371C50.8596 117.639 50.9376 117.913 50.9816 118.193C51.0296 118.469 51.0536 118.731 51.0536 118.979V122.561H49.9736ZM45.3536 122.561V116.081H46.3136V117.815H46.4336V122.561H45.3536ZM57.2275 122.561V119.315C57.2275 119.007 57.1995 118.711 57.1435 118.427C57.0915 118.143 56.9975 117.889 56.8615 117.665C56.7295 117.437 56.5495 117.257 56.3215 117.125C56.0975 116.993 55.8135 116.927 55.4695 116.927C55.2015 116.927 54.9575 116.973 54.7375 117.065C54.5215 117.153 54.3355 117.289 54.1795 117.473C54.0235 117.657 53.9015 117.889 53.8135 118.169C53.7295 118.445 53.6875 118.771 53.6875 119.147L52.9855 118.931C52.9855 118.303 53.0975 117.765 53.3215 117.317C53.5495 116.865 53.8675 116.519 54.2755 116.279C54.6875 116.035 55.1715 115.913 55.7275 115.913C56.1475 115.913 56.5055 115.979 56.8015 116.111C57.0975 116.243 57.3435 116.419 57.5395 116.639C57.7355 116.855 57.8895 117.099 58.0015 117.371C58.1135 117.639 58.1915 117.913 58.2355 118.193C58.2835 118.469 58.3075 118.731 58.3075 118.979V122.561H57.2275ZM52.6075 122.561V116.081H53.5675V117.815H53.6875V122.561H52.6075ZM62.6168 122.741C61.9808 122.741 61.4248 122.601 60.9488 122.321C60.4768 122.037 60.1088 121.643 59.8448 121.139C59.5808 120.631 59.4488 120.039 59.4488 119.363C59.4488 118.655 59.5788 118.043 59.8388 117.527C60.0988 117.007 60.4608 116.607 60.9248 116.327C61.3928 116.043 61.9408 115.901 62.5688 115.901C63.2208 115.901 63.7748 116.051 64.2308 116.351C64.6908 116.651 65.0348 117.079 65.2628 117.635C65.4948 118.191 65.5948 118.853 65.5628 119.621H64.4828V119.237C64.4708 118.441 64.3088 117.847 63.9968 117.455C63.6848 117.059 63.2208 116.861 62.6048 116.861C61.9448 116.861 61.4428 117.073 61.0988 117.497C60.7548 117.921 60.5828 118.529 60.5828 119.321C60.5828 120.085 60.7548 120.677 61.0988 121.097C61.4428 121.517 61.9328 121.727 62.5688 121.727C62.9968 121.727 63.3688 121.629 63.6848 121.433C64.0008 121.237 64.2488 120.955 64.4288 120.587L65.4548 120.941C65.2028 121.513 64.8228 121.957 64.3148 122.273C63.8108 122.585 63.2448 122.741 62.6168 122.741ZM60.2228 119.621V118.763H65.0108V119.621H60.2228ZM70.5167 122.561C70.1327 122.637 69.7527 122.667 69.3767 122.651C69.0047 122.639 68.6727 122.565 68.3807 122.429C68.0887 122.289 67.8667 122.073 67.7147 121.781C67.5867 121.525 67.5167 121.267 67.5047 121.007C67.4967 120.743 67.4927 120.445 67.4927 120.113V114.281H68.5607V120.065C68.5607 120.329 68.5627 120.555 68.5667 120.743C68.5747 120.931 68.6167 121.093 68.6927 121.229C68.8367 121.485 69.0647 121.635 69.3767 121.679C69.6927 121.723 70.0727 121.711 70.5167 121.643V122.561ZM66.1787 116.963V116.081H70.5167V116.963H66.1787ZM74.7347 122.561C74.3507 122.637 73.9707 122.667 73.5947 122.651C73.2227 122.639 72.8907 122.565 72.5987 122.429C72.3067 122.289 72.0847 122.073 71.9327 121.781C71.8047 121.525 71.7347 121.267 71.7227 121.007C71.7147 120.743 71.7107 120.445 71.7107 120.113V114.281H72.7787V120.065C72.7787 120.329 72.7807 120.555 72.7847 120.743C72.7927 120.931 72.8347 121.093 72.9107 121.229C73.0547 121.485 73.2827 121.635 73.5947 121.679C73.9107 121.723 74.2907 121.711 74.7347 121.643V122.561ZM70.3967 116.963V116.081H74.7347V116.963H70.3967ZM78.4533 122.561V113.921H81.8673C81.9513 113.921 82.0513 113.925 82.1673 113.933C82.2833 113.937 82.3953 113.949 82.5033 113.969C82.9713 114.041 83.3633 114.201 83.6793 114.449C83.9993 114.697 84.2393 115.011 84.3993 115.391C84.5593 115.767 84.6393 116.185 84.6393 116.645C84.6393 117.101 84.5573 117.519 84.3933 117.899C84.2333 118.275 83.9933 118.589 83.6733 118.841C83.3573 119.089 82.9673 119.249 82.5033 119.321C82.3953 119.337 82.2833 119.349 82.1673 119.357C82.0513 119.365 81.9513 119.369 81.8673 119.369H79.5213V122.561H78.4533ZM79.5213 118.355H81.8313C81.9073 118.355 81.9933 118.351 82.0893 118.343C82.1893 118.335 82.2833 118.321 82.3713 118.301C82.6473 118.237 82.8713 118.121 83.0433 117.953C83.2193 117.781 83.3473 117.581 83.4273 117.353C83.5073 117.121 83.5473 116.885 83.5473 116.645C83.5473 116.405 83.5073 116.171 83.4273 115.943C83.3473 115.711 83.2193 115.509 83.0433 115.337C82.8713 115.165 82.6473 115.049 82.3713 114.989C82.2833 114.965 82.1893 114.951 82.0893 114.947C81.9933 114.939 81.9073 114.935 81.8313 114.935H79.5213V118.355ZM85.9562 114.935V113.831H87.0242V114.935H85.9562ZM85.9562 122.561V116.081H87.0242V122.561H85.9562ZM88.8184 122.561L88.8244 113.921H89.9044V119.201L92.6224 116.081H94.0084L91.1464 119.321L94.3444 122.561H92.8504L89.9044 119.441V122.561H88.8184ZM97.6324 122.741C96.9964 122.741 96.4404 122.601 95.9644 122.321C95.4924 122.037 95.1244 121.643 94.8604 121.139C94.5964 120.631 94.4644 120.039 94.4644 119.363C94.4644 118.655 94.5944 118.043 94.8544 117.527C95.1144 117.007 95.4764 116.607 95.9404 116.327C96.4084 116.043 96.9564 115.901 97.5844 115.901C98.2364 115.901 98.7904 116.051 99.2464 116.351C99.7064 116.651 100.05 117.079 100.278 117.635C100.51 118.191 100.61 118.853 100.578 119.621H99.4984V119.237C99.4864 118.441 99.3244 117.847 99.0124 117.455C98.7004 117.059 98.2364 116.861 97.6204 116.861C96.9604 116.861 96.4584 117.073 96.1144 117.497C95.7704 117.921 95.5984 118.529 95.5984 119.321C95.5984 120.085 95.7704 120.677 96.1144 121.097C96.4584 121.517 96.9484 121.727 97.5844 121.727C98.0124 121.727 98.3844 121.629 98.7004 121.433C99.0164 121.237 99.2644 120.955 99.4444 120.587L100.47 120.941C100.218 121.513 99.8384 121.957 99.3304 122.273C98.8264 122.585 98.2604 122.741 97.6324 122.741ZM95.2384 119.621V118.763H100.026V119.621H95.2384ZM105.877 122.555L106.549 120.041H104.197L104.467 119.021H106.825L107.287 117.269H104.935L105.211 116.255H107.563L108.187 113.921H109.243L108.613 116.255H110.443L111.067 113.921H112.123L111.493 116.255H113.845L113.575 117.269H111.223L110.749 119.021H113.101L112.831 120.041H110.479L109.807 122.555H108.757L109.423 120.041H107.599L106.927 122.555H105.877ZM107.875 119.021H109.699L110.167 117.269H108.343L107.875 119.021ZM117.959 122.741C117.515 122.741 117.101 122.649 116.717 122.465C116.337 122.281 116.011 122.029 115.739 121.709C115.471 121.385 115.279 121.013 115.163 120.593L116.189 120.317C116.261 120.601 116.389 120.847 116.573 121.055C116.757 121.259 116.971 121.419 117.215 121.535C117.463 121.647 117.721 121.703 117.989 121.703C118.341 121.703 118.657 121.619 118.937 121.451C119.221 121.279 119.445 121.053 119.609 120.773C119.773 120.489 119.855 120.179 119.855 119.843C119.855 119.495 119.769 119.181 119.597 118.901C119.429 118.617 119.203 118.393 118.919 118.229C118.635 118.065 118.325 117.983 117.989 117.983C117.609 117.983 117.283 118.063 117.011 118.223C116.743 118.379 116.531 118.571 116.375 118.799L115.427 118.439L115.691 113.921H120.329V114.935H116.207L116.681 114.491L116.459 118.109L116.225 117.803C116.465 117.547 116.751 117.349 117.083 117.209C117.419 117.069 117.761 116.999 118.109 116.999C118.645 116.999 119.125 117.125 119.549 117.377C119.973 117.625 120.309 117.965 120.557 118.397C120.805 118.825 120.929 119.307 120.929 119.843C120.929 120.375 120.793 120.861 120.521 121.301C120.249 121.737 119.887 122.087 119.435 122.351C118.987 122.611 118.495 122.741 117.959 122.741ZM125.279 122.741C124.719 122.741 124.219 122.615 123.779 122.363C123.343 122.107 122.997 121.761 122.741 121.325C122.489 120.885 122.363 120.385 122.363 119.825V116.657C122.363 116.097 122.489 115.597 122.741 115.157C122.997 114.717 123.343 114.371 123.779 114.119C124.219 113.867 124.719 113.741 125.279 113.741C125.839 113.741 126.339 113.867 126.779 114.119C127.219 114.371 127.565 114.717 127.817 115.157C128.069 115.597 128.195 116.097 128.195 116.657V119.825C128.195 120.385 128.069 120.885 127.817 121.325C127.565 121.761 127.219 122.107 126.779 122.363C126.339 122.615 125.839 122.741 125.279 122.741ZM125.279 121.715C125.619 121.715 125.927 121.633 126.203 121.469C126.479 121.305 126.699 121.085 126.863 120.809C127.027 120.529 127.109 120.221 127.109 119.885V116.591C127.109 116.251 127.027 115.943 126.863 115.667C126.699 115.391 126.479 115.171 126.203 115.007C125.927 114.843 125.619 114.761 125.279 114.761C124.943 114.761 124.635 114.843 124.355 115.007C124.079 115.171 123.859 115.391 123.695 115.667C123.531 115.943 123.449 116.251 123.449 116.591V119.885C123.449 120.221 123.531 120.529 123.695 120.809C123.859 121.085 124.079 121.305 124.355 121.469C124.635 121.633 124.943 121.715 125.279 121.715ZM133.607 122.561V120.971H129.635V119.957L132.485 113.921H133.697L130.847 119.957H133.607V117.527H134.687V119.957H135.587V120.971H134.687V122.561H133.607ZM137.48 122.561L140.588 114.947H136.664V113.921H141.734V114.947L138.632 122.561H137.48ZM146.122 122.741C145.574 122.741 145.076 122.609 144.628 122.345C144.184 122.081 143.83 121.721 143.566 121.265C143.306 120.805 143.176 120.287 143.176 119.711V116.837C143.176 116.233 143.306 115.699 143.566 115.235C143.83 114.767 144.19 114.403 144.646 114.143C145.106 113.879 145.63 113.747 146.218 113.747C146.694 113.747 147.136 113.845 147.544 114.041C147.956 114.233 148.302 114.511 148.582 114.875L147.784 115.583C147.612 115.331 147.388 115.131 147.112 114.983C146.836 114.835 146.538 114.761 146.218 114.761C145.838 114.761 145.5 114.853 145.204 115.037C144.912 115.217 144.682 115.457 144.514 115.757C144.346 116.053 144.262 116.373 144.262 116.717V118.451L144.028 118.187C144.28 117.827 144.6 117.539 144.988 117.323C145.376 117.107 145.796 116.999 146.248 116.999C146.784 116.999 147.264 117.125 147.688 117.377C148.116 117.629 148.452 117.971 148.696 118.403C148.944 118.831 149.068 119.313 149.068 119.849C149.068 120.385 148.934 120.871 148.666 121.307C148.398 121.743 148.04 122.091 147.592 122.351C147.148 122.611 146.658 122.741 146.122 122.741ZM146.122 121.709C146.466 121.709 146.78 121.627 147.064 121.463C147.348 121.295 147.572 121.071 147.736 120.791C147.904 120.507 147.988 120.193 147.988 119.849C147.988 119.505 147.904 119.191 147.736 118.907C147.572 118.623 147.348 118.399 147.064 118.235C146.784 118.067 146.472 117.983 146.128 117.983C145.784 117.983 145.47 118.067 145.186 118.235C144.906 118.399 144.682 118.623 144.514 118.907C144.346 119.191 144.262 119.505 144.262 119.849C144.262 120.189 144.344 120.501 144.508 120.785C144.676 121.065 144.9 121.289 145.18 121.457C145.464 121.625 145.778 121.709 146.122 121.709ZM2.68206 138.561L0.180061 129.921H1.29606L3.21606 136.755L5.13006 129.927L6.25206 129.921L8.17206 136.755L10.0861 129.921H11.2081L8.70606 138.561H7.63806L5.69406 131.787L3.75006 138.561H2.68206ZM12.1163 130.935V129.831H13.1843V130.935H12.1163ZM12.1163 138.561V132.081H13.1843V138.561H12.1163ZM15.1046 138.561V129.741H16.1726V138.561H15.1046ZM25.7189 138.561L25.7249 134.415C25.7249 133.931 25.5949 133.553 25.3349 133.281C25.0789 133.005 24.7449 132.867 24.3329 132.867C24.0929 132.867 23.8649 132.923 23.6489 133.035C23.4329 133.143 23.2569 133.315 23.1209 133.551C22.9849 133.783 22.9169 134.081 22.9169 134.445L22.3529 134.217C22.3449 133.757 22.4389 133.355 22.6349 133.011C22.8349 132.663 23.1069 132.393 23.4509 132.201C23.7949 132.009 24.1829 131.913 24.6149 131.913C25.2909 131.913 25.8229 132.119 26.2109 132.531C26.5989 132.939 26.7929 133.489 26.7929 134.181L26.7869 138.561H25.7189ZM17.9669 138.561V132.081H18.9209V133.815H19.0409V138.561H17.9669ZM21.8489 138.561L21.8549 134.457C21.8549 133.961 21.7269 133.573 21.4709 133.293C21.2149 133.009 20.8749 132.867 20.4509 132.867C20.0309 132.867 19.6909 133.011 19.4309 133.299C19.1709 133.587 19.0409 133.969 19.0409 134.445L18.4769 134.109C18.4769 133.689 18.5769 133.313 18.7769 132.981C18.9769 132.649 19.2489 132.389 19.5929 132.201C19.9369 132.009 20.3269 131.913 20.7629 131.913C21.1989 131.913 21.5789 132.005 21.9029 132.189C22.2269 132.373 22.4769 132.637 22.6529 132.981C22.8289 133.321 22.9169 133.727 22.9169 134.199L22.9109 138.561H21.8489ZM28.4757 130.935V129.831H29.5437V130.935H28.4757ZM28.4757 138.561V132.081H29.5437V138.561H28.4757ZM35.958 138.561V135.315C35.958 135.007 35.93 134.711 35.874 134.427C35.822 134.143 35.728 133.889 35.592 133.665C35.46 133.437 35.28 133.257 35.052 133.125C34.828 132.993 34.544 132.927 34.2 132.927C33.932 132.927 33.688 132.973 33.468 133.065C33.252 133.153 33.066 133.289 32.91 133.473C32.754 133.657 32.632 133.889 32.544 134.169C32.46 134.445 32.418 134.771 32.418 135.147L31.716 134.931C31.716 134.303 31.828 133.765 32.052 133.317C32.28 132.865 32.598 132.519 33.006 132.279C33.418 132.035 33.902 131.913 34.458 131.913C34.878 131.913 35.236 131.979 35.532 132.111C35.828 132.243 36.074 132.419 36.27 132.639C36.466 132.855 36.62 133.099 36.732 133.371C36.844 133.639 36.922 133.913 36.966 134.193C37.014 134.469 37.038 134.731 37.038 134.979V138.561H35.958ZM31.338 138.561V132.081H32.298V133.815H32.418V138.561H31.338ZM41.2199 141.621C40.8799 141.621 40.5479 141.569 40.2239 141.465C39.8999 141.361 39.6019 141.203 39.3299 140.991C39.0619 140.783 38.8379 140.519 38.6579 140.199L39.6359 139.683C39.7959 139.999 40.0219 140.229 40.3139 140.373C40.6099 140.517 40.9139 140.589 41.2259 140.589C41.6379 140.589 41.9799 140.513 42.2519 140.361C42.5239 140.213 42.7239 139.991 42.8519 139.695C42.9839 139.399 43.0479 139.031 43.0439 138.591V136.821H43.1699V132.081H44.1179V138.603C44.1179 138.779 44.1119 138.949 44.0999 139.113C44.0919 139.277 44.0719 139.439 44.0399 139.599C43.9559 140.059 43.7899 140.437 43.5419 140.733C43.2939 141.033 42.9739 141.255 42.5819 141.399C42.1899 141.547 41.7359 141.621 41.2199 141.621ZM41.1419 138.741C40.5379 138.741 40.0199 138.591 39.5879 138.291C39.1559 137.987 38.8219 137.577 38.5859 137.061C38.3539 136.545 38.2379 135.963 38.2379 135.315C38.2379 134.667 38.3539 134.085 38.5859 133.569C38.8219 133.053 39.1559 132.647 39.5879 132.351C40.0199 132.051 40.5359 131.901 41.1359 131.901C41.7479 131.901 42.2619 132.049 42.6779 132.345C43.0939 132.641 43.4079 133.047 43.6199 133.563C43.8359 134.079 43.9439 134.663 43.9439 135.315C43.9439 135.959 43.8359 136.541 43.6199 137.061C43.4079 137.577 43.0939 137.987 42.6779 138.291C42.2619 138.591 41.7499 138.741 41.1419 138.741ZM41.2739 137.763C41.7099 137.763 42.0679 137.659 42.3479 137.451C42.6279 137.239 42.8339 136.949 42.9659 136.581C43.1019 136.209 43.1699 135.787 43.1699 135.315C43.1699 134.835 43.1019 134.413 42.9659 134.049C42.8339 133.681 42.6299 133.395 42.3539 133.191C42.0779 132.983 41.7279 132.879 41.3039 132.879C40.8639 132.879 40.4999 132.987 40.2119 133.203C39.9279 133.419 39.7159 133.711 39.5759 134.079C39.4399 134.447 39.3719 134.859 39.3719 135.315C39.3719 135.775 39.4419 136.191 39.5819 136.563C39.7219 136.931 39.9319 137.223 40.2119 137.439C40.4959 137.655 40.8499 137.763 41.2739 137.763ZM49.4112 138.561C49.0272 138.637 48.6472 138.667 48.2712 138.651C47.8992 138.639 47.5672 138.565 47.2752 138.429C46.9832 138.289 46.7612 138.073 46.6092 137.781C46.4812 137.525 46.4112 137.267 46.3992 137.007C46.3912 136.743 46.3872 136.445 46.3872 136.113V130.281H47.4552V136.065C47.4552 136.329 47.4572 136.555 47.4612 136.743C47.4692 136.931 47.5112 137.093 47.5872 137.229C47.7312 137.485 47.9592 137.635 48.2712 137.679C48.5872 137.723 48.9672 137.711 49.4112 137.643V138.561ZM45.0732 132.963V132.081H49.4112V132.963H45.0732ZM53.2172 138.741C52.5732 138.741 52.0172 138.595 51.5492 138.303C51.0852 138.011 50.7272 137.607 50.4752 137.091C50.2232 136.575 50.0972 135.983 50.0972 135.315C50.0972 134.635 50.2252 134.039 50.4812 133.527C50.7372 133.015 51.0992 132.617 51.5672 132.333C52.0352 132.045 52.5852 131.901 53.2172 131.901C53.8652 131.901 54.4232 132.047 54.8912 132.339C55.3592 132.627 55.7172 133.029 55.9652 133.545C56.2172 134.057 56.3432 134.647 56.3432 135.315C56.3432 135.991 56.2172 136.587 55.9652 137.103C55.7132 137.615 55.3532 138.017 54.8852 138.309C54.4172 138.597 53.8612 138.741 53.2172 138.741ZM53.2172 137.727C53.8892 137.727 54.3892 137.503 54.7172 137.055C55.0452 136.607 55.2092 136.027 55.2092 135.315C55.2092 134.583 55.0432 134.001 54.7112 133.569C54.3792 133.133 53.8812 132.915 53.2172 132.915C52.7652 132.915 52.3932 133.017 52.1012 133.221C51.8092 133.425 51.5912 133.707 51.4472 134.067C51.3032 134.427 51.2312 134.843 51.2312 135.315C51.2312 136.043 51.3992 136.627 51.7352 137.067C52.0712 137.507 52.5652 137.727 53.2172 137.727ZM62.2783 138.561V135.315C62.2783 135.007 62.2503 134.711 62.1943 134.427C62.1423 134.143 62.0483 133.889 61.9123 133.665C61.7803 133.437 61.6003 133.257 61.3723 133.125C61.1483 132.993 60.8643 132.927 60.5203 132.927C60.2523 132.927 60.0083 132.973 59.7883 133.065C59.5723 133.153 59.3863 133.289 59.2303 133.473C59.0743 133.657 58.9523 133.889 58.8643 134.169C58.7803 134.445 58.7383 134.771 58.7383 135.147L58.0363 134.931C58.0363 134.303 58.1483 133.765 58.3723 133.317C58.6003 132.865 58.9183 132.519 59.3263 132.279C59.7383 132.035 60.2223 131.913 60.7783 131.913C61.1983 131.913 61.5563 131.979 61.8523 132.111C62.1483 132.243 62.3943 132.419 62.5903 132.639C62.7863 132.855 62.9403 133.099 63.0523 133.371C63.1643 133.639 63.2423 133.913 63.2863 134.193C63.3343 134.469 63.3583 134.731 63.3583 134.979V138.561H62.2783ZM57.6583 138.561V132.081H58.6183V133.815H58.7383V138.561H57.6583ZM64.7982 139.905L64.8642 139.407C65.0322 139.419 65.1582 139.387 65.2422 139.311C65.3262 139.235 65.3802 139.131 65.4042 138.999C65.4282 138.867 65.4322 138.721 65.4162 138.561H64.7982V137.205H65.9742V138.741C65.9742 139.161 65.8702 139.477 65.6622 139.689C65.4582 139.901 65.1702 139.973 64.7982 139.905ZM70.6604 138.561V129.921H73.3244C73.4124 129.921 73.5664 129.923 73.7864 129.927C74.0064 129.931 74.2164 129.947 74.4164 129.975C75.0844 130.063 75.6424 130.307 76.0904 130.707C76.5424 131.103 76.8824 131.607 77.1104 132.219C77.3384 132.831 77.4524 133.505 77.4524 134.241C77.4524 134.977 77.3384 135.651 77.1104 136.263C76.8824 136.875 76.5424 137.381 76.0904 137.781C75.6424 138.177 75.0844 138.419 74.4164 138.507C74.2164 138.531 74.0044 138.547 73.7804 138.555C73.5604 138.559 73.4084 138.561 73.3244 138.561H70.6604ZM71.7584 137.541H73.3244C73.4764 137.541 73.6464 137.537 73.8344 137.529C74.0224 137.517 74.1864 137.499 74.3264 137.475C74.7984 137.387 75.1804 137.189 75.4724 136.881C75.7644 136.573 75.9784 136.189 76.1144 135.729C76.2504 135.269 76.3184 134.773 76.3184 134.241C76.3184 133.697 76.2484 133.195 76.1084 132.735C75.9724 132.275 75.7584 131.893 75.4664 131.589C75.1744 131.285 74.7944 131.091 74.3264 131.007C74.1864 130.979 74.0204 130.961 73.8284 130.953C73.6364 130.945 73.4684 130.941 73.3244 130.941H71.7584V137.541ZM78.8283 138.561V129.921H84.2883V130.935H79.8963V133.641H83.5683V134.655H79.8963V137.547H84.2883V138.561H78.8283ZM89.639 138.561V131.103L88.013 132.087V130.893L89.639 129.921H90.725V138.561H89.639ZM95.834 129.747C96.386 129.747 96.884 129.879 97.328 130.143C97.772 130.407 98.124 130.767 98.384 131.223C98.648 131.679 98.78 132.197 98.78 132.777V135.651C98.78 136.255 98.65 136.789 98.39 137.253C98.13 137.717 97.77 138.081 97.31 138.345C96.854 138.609 96.33 138.741 95.738 138.741C95.266 138.741 94.824 138.643 94.412 138.447C94.004 138.251 93.658 137.973 93.374 137.613L94.172 136.905C94.348 137.153 94.574 137.353 94.85 137.505C95.126 137.653 95.422 137.727 95.738 137.727C96.122 137.727 96.46 137.635 96.752 137.451C97.048 137.267 97.278 137.027 97.442 136.731C97.61 136.435 97.694 136.115 97.694 135.771V134.037L97.928 134.301C97.68 134.661 97.362 134.949 96.974 135.165C96.586 135.381 96.164 135.489 95.708 135.489C95.172 135.489 94.692 135.363 94.268 135.111C93.844 134.859 93.508 134.519 93.26 134.091C93.012 133.659 92.888 133.175 92.888 132.639C92.888 132.103 93.022 131.617 93.29 131.181C93.558 130.741 93.914 130.393 94.358 130.137C94.806 129.877 95.298 129.747 95.834 129.747ZM95.834 130.779C95.49 130.779 95.176 130.863 94.892 131.031C94.612 131.195 94.388 131.419 94.22 131.703C94.052 131.983 93.968 132.295 93.968 132.639C93.968 132.983 94.05 133.297 94.214 133.581C94.382 133.861 94.606 134.085 94.886 134.253C95.17 134.421 95.484 134.505 95.828 134.505C96.172 134.505 96.486 134.421 96.77 134.253C97.054 134.085 97.278 133.861 97.442 133.581C97.61 133.297 97.694 132.983 97.694 132.639C97.694 132.299 97.61 131.989 97.442 131.709C97.278 131.425 97.054 131.199 96.77 131.031C96.49 130.863 96.178 130.779 95.834 130.779ZM103.161 138.741C102.609 138.741 102.121 138.631 101.697 138.411C101.273 138.187 100.941 137.877 100.701 137.481C100.461 137.085 100.341 136.623 100.341 136.095C100.341 135.579 100.463 135.113 100.707 134.697C100.955 134.281 101.327 133.961 101.823 133.737L101.805 134.127C101.401 133.931 101.091 133.655 100.875 133.299C100.659 132.939 100.551 132.541 100.551 132.105C100.551 131.617 100.663 131.197 100.887 130.845C101.111 130.493 101.419 130.221 101.811 130.029C102.203 129.837 102.653 129.741 103.161 129.741C103.669 129.741 104.119 129.837 104.511 130.029C104.903 130.221 105.211 130.493 105.435 130.845C105.659 131.197 105.771 131.617 105.771 132.105C105.771 132.541 105.669 132.937 105.465 133.293C105.261 133.645 104.947 133.923 104.523 134.127L104.499 133.743C104.995 133.959 105.367 134.277 105.615 134.697C105.867 135.113 105.993 135.579 105.993 136.095C105.993 136.623 105.871 137.085 105.627 137.481C105.387 137.877 105.053 138.187 104.625 138.411C104.201 138.631 103.713 138.741 103.161 138.741ZM103.161 137.721C103.665 137.721 104.073 137.583 104.385 137.307C104.701 137.027 104.859 136.623 104.859 136.095C104.859 135.563 104.703 135.159 104.391 134.883C104.083 134.603 103.673 134.463 103.161 134.463C102.653 134.463 102.243 134.603 101.931 134.883C101.623 135.159 101.469 135.563 101.469 136.095C101.469 136.623 101.625 137.027 101.937 137.307C102.249 137.583 102.657 137.721 103.161 137.721ZM103.161 133.437C103.601 133.437 103.957 133.327 104.229 133.107C104.501 132.883 104.637 132.549 104.637 132.105C104.637 131.661 104.501 131.329 104.229 131.109C103.957 130.885 103.601 130.773 103.161 130.773C102.725 130.773 102.369 130.885 102.093 131.109C101.821 131.329 101.685 131.661 101.685 132.105C101.685 132.549 101.821 132.883 102.093 133.107C102.369 133.327 102.725 133.437 103.161 133.437ZM110.467 138.741C109.907 138.741 109.407 138.615 108.967 138.363C108.531 138.107 108.185 137.761 107.929 137.325C107.677 136.885 107.551 136.385 107.551 135.825V132.657C107.551 132.097 107.677 131.597 107.929 131.157C108.185 130.717 108.531 130.371 108.967 130.119C109.407 129.867 109.907 129.741 110.467 129.741C111.027 129.741 111.527 129.867 111.967 130.119C112.407 130.371 112.753 130.717 113.005 131.157C113.257 131.597 113.383 132.097 113.383 132.657V135.825C113.383 136.385 113.257 136.885 113.005 137.325C112.753 137.761 112.407 138.107 111.967 138.363C111.527 138.615 111.027 138.741 110.467 138.741ZM110.467 137.715C110.807 137.715 111.115 137.633 111.391 137.469C111.667 137.305 111.887 137.085 112.051 136.809C112.215 136.529 112.297 136.221 112.297 135.885V132.591C112.297 132.251 112.215 131.943 112.051 131.667C111.887 131.391 111.667 131.171 111.391 131.007C111.115 130.843 110.807 130.761 110.467 130.761C110.131 130.761 109.823 130.843 109.543 131.007C109.267 131.171 109.047 131.391 108.883 131.667C108.719 131.943 108.637 132.251 108.637 132.591V135.885C108.637 136.221 108.719 136.529 108.883 136.809C109.047 137.085 109.267 137.305 109.543 137.469C109.823 137.633 110.131 137.715 110.467 137.715ZM115.519 138.561L118.627 130.947H114.703V129.921H119.773V130.947L116.671 138.561H115.519ZM120.497 139.905L120.563 139.407C120.731 139.419 120.857 139.387 120.941 139.311C121.025 139.235 121.079 139.131 121.103 138.999C121.127 138.867 121.131 138.721 121.115 138.561H120.497V137.205H121.673V138.741C121.673 139.161 121.569 139.477 121.361 139.689C121.157 139.901 120.869 139.973 120.497 139.905ZM129.768 138.741C129.1 138.741 128.51 138.603 127.998 138.327C127.486 138.051 127.084 137.665 126.792 137.169C126.504 136.669 126.36 136.083 126.36 135.411V129.927L127.44 129.921V135.321C127.44 135.729 127.508 136.085 127.644 136.389C127.784 136.689 127.968 136.939 128.196 137.139C128.424 137.339 128.674 137.489 128.946 137.589C129.222 137.685 129.496 137.733 129.768 137.733C130.044 137.733 130.32 137.683 130.596 137.583C130.872 137.483 131.122 137.335 131.346 137.139C131.574 136.939 131.756 136.687 131.892 136.383C132.028 136.079 132.096 135.725 132.096 135.321V129.921H133.176V135.411C133.176 136.079 133.03 136.663 132.738 137.163C132.45 137.663 132.05 138.051 131.538 138.327C131.026 138.603 130.436 138.741 129.768 138.741ZM137.558 138.741C136.946 138.741 136.394 138.637 135.902 138.429C135.414 138.221 135.01 137.925 134.69 137.541C134.374 137.153 134.168 136.695 134.072 136.167L135.176 135.993C135.316 136.537 135.606 136.963 136.046 137.271C136.49 137.575 137.012 137.727 137.612 137.727C138 137.727 138.35 137.667 138.662 137.547C138.978 137.423 139.228 137.247 139.412 137.019C139.596 136.791 139.688 136.521 139.688 136.209C139.688 136.017 139.654 135.853 139.586 135.717C139.522 135.577 139.432 135.459 139.316 135.363C139.204 135.263 139.076 135.179 138.932 135.111C138.788 135.043 138.638 134.987 138.482 134.943L136.28 134.289C136.04 134.217 135.808 134.127 135.584 134.019C135.36 133.907 135.16 133.769 134.984 133.605C134.808 133.437 134.668 133.237 134.564 133.005C134.46 132.769 134.408 132.491 134.408 132.171C134.408 131.659 134.54 131.223 134.804 130.863C135.072 130.499 135.434 130.221 135.89 130.029C136.346 129.837 136.86 129.743 137.432 129.747C138.012 129.751 138.53 129.855 138.986 130.059C139.446 130.259 139.826 130.547 140.126 130.923C140.43 131.299 140.634 131.749 140.738 132.273L139.604 132.471C139.544 132.119 139.41 131.817 139.202 131.565C138.998 131.309 138.742 131.113 138.434 130.977C138.126 130.837 137.788 130.765 137.42 130.761C137.068 130.757 136.75 130.813 136.466 130.929C136.182 131.045 135.956 131.207 135.788 131.415C135.62 131.619 135.536 131.855 135.536 132.123C135.536 132.387 135.612 132.601 135.764 132.765C135.916 132.925 136.102 133.053 136.322 133.149C136.546 133.241 136.764 133.317 136.976 133.377L138.62 133.851C138.808 133.903 139.024 133.975 139.268 134.067C139.516 134.159 139.756 134.289 139.988 134.457C140.22 134.621 140.412 134.841 140.564 135.117C140.716 135.389 140.792 135.733 140.792 136.149C140.792 136.565 140.708 136.935 140.54 137.259C140.376 137.583 140.146 137.855 139.85 138.075C139.554 138.291 139.21 138.455 138.818 138.567C138.426 138.683 138.006 138.741 137.558 138.741ZM141.451 138.561L144.343 129.921H145.831L148.723 138.561H147.613L144.907 130.545H145.243L142.561 138.561H141.451ZM142.843 136.539V135.537H147.331V136.539H142.843Z" fill="#3B3F47"/>
<path d="M74.9045 19.9644C76.2263 19.1753 77.0189 17.7144 77.0189 15.8002C77.0189 12.9635 75.0663 10.0118 70.7935 10.0118H62.4096V31.0582H71.6531C75.8127 31.0582 78.008 28.5458 78.008 24.8027C78.0011 22.6838 76.9311 20.8133 74.9045 19.9644ZM65.9938 13.2925H70.7496C72.4226 13.2925 73.4209 14.3899 73.4209 15.8508C73.4209 17.5326 72.2655 18.4092 70.7496 18.4092H65.9938V13.2925ZM71.2048 27.7337H65.9938V21.7037H71.3088C73.2915 21.7037 74.4377 23.0059 74.4377 24.6945C74.4354 26.5719 73.0535 27.7406 71.2048 27.7406V27.7337ZM91.24 22.9253C93.6479 20.8202 94.8958 19.6078 94.8958 16.5962C94.8958 12.4758 91.857 9.56543 87.7899 9.56543C83.4154 9.56543 80.3766 12.3262 80.3766 16.5249H84.0162C83.9585 14.5947 85.5137 12.8853 87.7136 12.8853C89.8165 12.883 91.2793 14.4543 91.2793 16.564C91.2793 17.6016 90.794 18.699 89.4006 19.9414L80.3558 27.9661V31.0352H94.9143V27.713H85.8233L91.24 22.9253ZM110.922 19.9644C112.243 19.1753 113.036 17.7144 113.036 15.8002C113.036 12.9635 111.083 10.0118 106.811 10.0118H98.4245V31.0582H107.668C111.828 31.0582 114.025 28.5458 114.025 24.8027C114.016 22.6838 112.944 20.8133 110.922 19.9644ZM102.009 13.2925H106.762C108.435 13.2925 109.433 14.3899 109.433 15.8508C109.433 17.5326 108.278 18.4092 106.762 18.4092H102.006L102.009 13.2925ZM107.224 27.7406H102.006V21.7037H107.321C109.304 21.7037 110.448 23.0059 110.448 24.6945C110.459 26.5719 109.073 27.7406 107.224 27.7406ZM121.66 16.1039C121.001 16.5317 120.456 17.1138 120.075 17.7995V15.2688H116.948V31.0582H120.503V23.0358C120.503 21.2068 121.147 19.732 122.601 18.9429C123.605 18.4103 124.775 18.2747 125.875 18.5633V15.2734C124.449 15.0548 122.836 15.3033 121.66 16.1039ZM140.797 17.7719C139.754 15.6806 137.508 14.8339 134.689 14.8339C130.961 14.8339 128.773 16.6008 127.987 19.2627L131.223 20.2704C131.752 18.6599 133.263 18.0641 134.689 18.0641C136.847 18.0641 137.802 18.9107 137.924 20.7236C135.151 21.1331 132.699 21.469 131.024 22.0097C128.514 22.8724 127.414 24.4346 127.414 26.7306C127.414 29.3327 129.277 31.4953 132.729 31.4953C135.255 31.4953 136.944 30.6924 138.294 28.937V31.0582H141.393V21.3678C141.4 20.015 141.356 18.8831 140.797 17.7742V17.7719ZM137.538 26.0726C137.185 27.1701 135.849 28.6885 133.441 28.6885C131.768 28.6885 130.888 27.8418 130.888 26.6869C130.888 25.6631 131.592 25.0765 132.81 24.6163C133.926 24.2367 135.366 24.0159 137.894 23.6224C137.876 24.3494 137.832 25.3594 137.538 26.0749V26.0726ZM145.515 12.883H149.051V9.66206H145.515V12.883ZM145.515 31.0582H149.051V15.2734H145.515V31.0582ZM161.761 14.8201C159.471 14.8201 157.738 15.6691 156.577 17.0288V15.2734H153.421V31.0582H157.003V22.946C157.003 19.1178 158.911 18.1377 160.719 18.1377C164.095 18.1377 164.416 21.515 164.416 23.4591V31.0513H168V22.2466C168 20.3739 167.603 14.8201 161.761 14.8201Z" fill="black"/>
<path fill-rule="evenodd" clip-rule="evenodd" d="M19.7857 0.20166L27.4532 0.51455H27.7929C27.8206 0.51455 27.8298 0.514549 27.8344 0.537556V0.592772L36.8075 4.73395L36.8907 4.78227C36.9524 4.82133 37.0097 4.86684 37.0617 4.91801L37.1911 5.04684L43.7864 12.8415V12.9197C43.7874 12.9364 43.7921 12.9526 43.8 12.9673C43.808 12.982 43.8191 12.9948 43.8326 13.0048L43.8511 13.0278V13.0761V13.1521V13.1889C43.8615 13.2076 43.8748 13.2247 43.8903 13.2395L43.9088 13.2625L43.9204 13.3085V13.3867L46.0002 22.3593L46.0233 22.4743C46.0455 22.6919 46.0029 22.9111 45.9008 23.1047L45.8476 23.2174L40.7869 31.4009L40.7198 31.5021C40.6157 31.6372 40.4822 31.7471 40.3293 31.8236C40.1764 31.9001 40.0082 31.9412 39.8371 31.9438H39.7123L31.9663 30.9315L30.8108 33.8925L30.9634 40.0513V40.1664C30.9462 40.3759 30.8728 40.5769 30.7508 40.7486C30.6288 40.9202 30.4628 41.056 30.2701 41.1418C30.1506 41.1987 30.0189 41.2256 29.8865 41.2201C29.6069 41.2101 29.3399 41.1017 29.1332 40.9141L29.043 40.8313L22.219 33.3472H13.997C13.9531 33.3472 13.9415 33.3311 13.8814 33.269H13.8537C13.8383 33.2648 13.8248 33.2554 13.8155 33.2424C13.8062 33.2294 13.8018 33.2136 13.8029 33.1977C13.7474 33.1977 13.7312 33.1517 13.6966 33.131H13.6503L13.4978 32.9745V32.8963L9.04941 25.6124L1.53448 22.5732L1.43973 22.5295C1.28662 22.4515 1.15374 22.3392 1.05151 22.2015C0.94927 22.0638 0.880457 21.9044 0.85046 21.7358V21.6369L6.10352e-05 12.6735V12.0431C0.000359802 12.0335 0.00256996 12.024 0.00656493 12.0151C0.0105599 12.0063 0.0162617 11.9984 0.0233439 11.9917C0.0304261 11.9851 0.0387498 11.98 0.0478397 11.9765C0.0569297 11.9731 0.0666079 11.9715 0.0763201 11.9718C0.0760106 11.9617 0.0777543 11.9515 0.0814479 11.9421C0.0851415 11.9326 0.090709 11.9239 0.0978213 11.9166C0.104934 11.9093 0.113445 11.9035 0.122851 11.8996C0.132257 11.8956 0.142366 11.8936 0.152578 11.8936C0.153609 11.8769 0.158278 11.8607 0.166259 11.846C0.174241 11.8313 0.185344 11.8185 0.198796 11.8085L0.217282 11.7855L0.231148 11.7326L8.51329 3.16491L8.5572 3.12579L8.6219 3.08438C8.63844 3.07328 8.65194 3.05826 8.66119 3.04067V3.00846H8.73745H8.79522L8.91076 2.95555L8.96853 2.94174L19.4737 0.213163L19.7857 0.20166ZM22.1243 27.5358L17.558 30.9867H22.7436H22.8592C23.0988 31.023 23.3228 31.1277 23.5039 31.2881L23.5963 31.3733L26.924 35.0543L24.4467 28.3824L24.2341 28.3571C23.5441 28.2658 22.8832 28.0222 22.2999 27.6439L22.1243 27.5358ZM41.1658 26.2612L28.2943 25.5549C28.061 26.4781 27.4878 27.2804 26.6883 27.8026L26.5334 27.9085L28.5254 33.4784V33.43C28.5254 33.3806 28.539 33.332 28.5647 33.2897L28.6017 33.2414L30.1684 29.1508C30.2604 28.9586 30.4067 28.7973 30.5893 28.6866C30.7719 28.5758 30.983 28.5205 31.1968 28.5273L39.1808 29.558L41.1728 26.2635L28.3012 25.5572L41.1658 26.2612ZM20.5991 23.3923L15.1894 20.4014C14.517 21.0187 13.6467 21.3789 12.7329 21.4183H12.5203H12.139L10.9212 24.5633L14.5793 30.6946L20.6754 25.9L20.6592 25.5779C20.6199 25.1569 20.5229 24.7681 20.5229 24.3263C20.5229 24.0963 20.5668 23.8547 20.5876 23.62V23.39L15.1778 20.3991L20.5991 23.3923ZM42.1595 15.2549L28.4792 23.3072V23.3854L42.6217 24.1653L43.6962 22.3685L42.1595 15.2549ZM2.34097 14.2633L2.96028 20.6637L9.13954 22.9782L10.1448 20.3554L10.0154 20.2634C9.5716 19.9242 9.20824 19.492 8.95105 18.9974C8.69386 18.5028 8.54914 17.9579 8.52716 17.4014V17.1943V16.9642L2.34097 14.2633ZM24.8234 14.0654L16.5436 17.2863V17.5164C16.5241 17.7543 16.4909 17.9909 16.4442 18.225L16.398 18.4551L21.7222 21.3953L21.8655 21.2573C22.5399 20.6483 23.3879 20.2632 24.2919 20.1553L24.5068 20.1345L25.7454 15.0915L25.6045 14.9949C25.3289 14.7777 25.0942 14.5137 24.9112 14.215L24.8234 14.0654ZM39.6129 14.284L32.0703 12.8829C31.622 14.6245 30.0922 15.998 28.2504 16.0831H28.0702H27.6866L26.5311 20.8478L26.6628 20.8915C26.8892 20.9884 27.0959 21.1256 27.2729 21.2964L27.3769 21.3953L39.6014 14.2863L32.0703 12.8829L39.6129 14.284ZM26.6721 4.16109L16.2085 15.0547L24.0654 12.0201V11.866V11.6842C24.0882 10.833 24.3823 10.0111 24.9054 9.33733C25.4284 8.66359 26.1532 8.17297 26.9748 7.93647L27.1389 7.89736L26.6721 4.16109ZM8.82757 6.14426L2.92562 12.126L9.2158 14.8591L9.32441 14.705C9.60879 14.3203 9.95834 13.9879 10.3574 13.7226L10.5353 13.6145L8.82757 6.14426ZM20.1046 2.18253L10.7294 4.65803L12.5781 12.9404H12.8092C13.3501 12.991 13.8776 13.1375 14.3667 13.3729L14.5747 13.4718L25.1677 2.41489L20.1046 2.18253ZM28.8859 3.37196L29.422 7.88585L29.6023 7.95717C30.1365 8.17318 30.6207 8.49563 31.0253 8.90471C31.4298 9.31379 31.7461 9.80087 31.9547 10.3361L32.0194 10.5293L40.2022 12.0869L35.6798 6.71712L28.8859 3.37196Z" fill="#F44336"/>
</svg>
