<svg width="43" height="39" viewBox="0 0 43 39" fill="none" xmlns="http://www.w3.org/2000/svg">
<path fill-rule="evenodd" clip-rule="evenodd" d="M18.3751 0.48877L25.4949 0.778765H25.8103C25.8361 0.778765 25.8447 0.778764 25.849 0.800087V0.851263L34.1811 4.68943L34.2584 4.73421C34.3156 4.77042 34.3689 4.81259 34.4172 4.86002L34.5373 4.97943L40.6614 12.2037V12.2762C40.6624 12.2917 40.6667 12.3067 40.6742 12.3204C40.6816 12.334 40.6919 12.3458 40.7044 12.3551L40.7215 12.3764V12.4212V12.4916V12.5257C40.7312 12.5431 40.7435 12.5589 40.758 12.5726L40.7752 12.5939L40.7859 12.6366V12.7091L42.7171 21.0251L42.7386 21.1317C42.7592 21.3333 42.7197 21.5365 42.6249 21.716L42.5755 21.8205L37.8762 29.4051L37.814 29.4989C37.7172 29.6242 37.5933 29.726 37.4513 29.7969C37.3094 29.8678 37.1531 29.9059 36.9943 29.9083H36.8784L29.6857 28.9701L28.6128 31.7144L28.7544 37.4226V37.5292C28.7384 37.7234 28.6703 37.9098 28.557 38.0688C28.4438 38.2279 28.2896 38.3538 28.1106 38.4333C27.9996 38.486 27.8773 38.5109 27.7544 38.5058C27.4948 38.4966 27.2469 38.3961 27.0549 38.2222L26.9712 38.1455L20.6347 31.209H12.9999C12.9591 31.209 12.9484 31.1941 12.8926 31.1365H12.8668C12.8525 31.1326 12.84 31.1239 12.8314 31.1119C12.8228 31.0998 12.8186 31.0852 12.8196 31.0704C12.7681 31.0704 12.7531 31.0278 12.7209 31.0086H12.678L12.5364 30.8636V30.7911L8.40572 24.0402L1.42756 21.2234L1.33958 21.1829C1.19741 21.1106 1.07402 21.0065 0.979088 20.8789C0.884155 20.7513 0.820257 20.6035 0.792403 20.4472V20.3556L0.00274658 12.0481V11.4638C0.00302401 11.4548 0.00507629 11.446 0.00878591 11.4378C0.0124955 11.4297 0.01779 11.4223 0.0243664 11.4162C0.0309427 11.41 0.0386718 11.4052 0.0471125 11.4021C0.0555532 11.3989 0.0645401 11.3974 0.0735585 11.3977C0.0732712 11.3883 0.0748903 11.3789 0.0783201 11.3701C0.0817498 11.3613 0.0869197 11.3533 0.093524 11.3466C0.100128 11.3398 0.108032 11.3344 0.116766 11.3308C0.1255 11.3271 0.134887 11.3252 0.14437 11.3252C0.145327 11.3097 0.149662 11.2947 0.157074 11.281C0.164485 11.2674 0.174795 11.2556 0.187286 11.2463L0.204452 11.225L0.217327 11.1759L7.90789 3.23519L7.94866 3.19894L8.00874 3.16056C8.0241 3.15027 8.03663 3.13635 8.04522 3.12005V3.09019H8.11603H8.16968L8.27697 3.04115L8.33061 3.02836L18.0854 0.499431L18.3751 0.48877ZM20.5467 25.8228L16.3066 29.0213H21.1218H21.229C21.4516 29.0549 21.6596 29.1519 21.8277 29.3006L21.9136 29.3795L25.0035 32.7912L22.7032 26.6075L22.5058 26.584C21.865 26.4995 21.2514 26.2736 20.7098 25.923L20.5467 25.8228ZM38.2281 24.6415L26.276 23.9869C26.0593 24.8426 25.5271 25.5861 24.7846 26.0702L24.6409 26.1682L26.4906 31.3306V31.2858C26.4906 31.24 26.5032 31.195 26.527 31.1557L26.5614 31.111L28.0162 27.3197C28.1016 27.1416 28.2374 26.992 28.407 26.8894C28.5766 26.7868 28.7726 26.7355 28.9711 26.7418L36.3849 27.6971L38.2345 24.6436L26.2824 23.989L38.2281 24.6415ZM19.1304 21.9825L14.1071 19.2105C13.4827 19.7826 12.6746 20.1165 11.8261 20.153H11.6287H11.2747L10.1438 23.0679L13.5406 28.7505L19.2013 24.3067L19.1862 24.0082C19.1498 23.618 19.0596 23.2576 19.0596 22.8482C19.0596 22.635 19.1004 22.4111 19.1197 22.1936V21.9804L14.0964 19.2084L19.1304 21.9825ZM39.1508 14.4405L26.4476 21.9036V21.9761L39.58 22.699L40.5778 21.0336L39.1508 14.4405ZM2.17645 13.5215L2.75152 19.4536L8.4894 21.5987L9.42283 19.1679L9.30266 19.0826C8.8906 18.7682 8.55319 18.3676 8.31437 17.9092C8.07555 17.4508 7.94117 16.9458 7.92077 16.43V16.2381V16.0248L2.17645 13.5215ZM23.053 13.3381L15.3646 16.3233V16.5366C15.3465 16.7571 15.3157 16.9763 15.2723 17.1933L15.2294 17.4066L20.1733 20.1317L20.3063 20.0037C20.9326 19.4394 21.72 19.0824 22.5594 18.9823L22.759 18.9632L23.9092 14.2891L23.7783 14.1996C23.5224 13.9983 23.3044 13.7536 23.1345 13.4767L23.053 13.3381ZM36.7861 13.5407L29.7822 12.2421C29.3659 13.8563 27.9454 15.1292 26.2352 15.2081H26.0678H25.7116L24.6387 19.6242L24.761 19.6647C24.9712 19.7546 25.1632 19.8817 25.3275 20.04L25.4241 20.1317L36.7754 13.5428L29.7822 12.2421L36.7861 13.5407ZM24.7696 4.15848L15.0534 14.255L22.3492 11.4425V11.2996V11.1312C22.3703 10.3422 22.6434 9.58043 23.1291 8.95598C23.6148 8.33153 24.2878 7.87681 25.0507 7.65762L25.2031 7.62137L24.7696 4.15848ZM8.19972 5.99654L2.71934 11.5406L8.56021 14.0738L8.66107 13.9309C8.92514 13.5743 9.24972 13.2662 9.62024 13.0204L9.78547 12.9202L8.19972 5.99654ZM18.6712 2.32469L9.96572 4.61906L11.6824 12.2954H11.8969C12.3992 12.3423 12.889 12.4781 13.3432 12.6963L13.5363 12.788L23.3727 2.54006L18.6712 2.32469ZM26.8253 3.4271L27.3231 7.6107L27.4905 7.67681C27.9866 7.87701 28.4362 8.17586 28.8119 8.55501C29.1875 8.93416 29.4812 9.3856 29.6749 9.88162L29.735 10.0607L37.3333 11.5043L33.134 6.52749L26.8253 3.4271Z" fill="#F44336"/>
</svg>
