<svg width="100" height="21" viewBox="0 0 100 21" fill="none" xmlns="http://www.w3.org/2000/svg">
<path d="M12.5569 9.80536C13.7843 9.07398 14.5203 7.71996 14.5203 5.94587C14.5203 3.31673 12.7071 0.580965 8.73948 0.580965H0.954498V20.0874H9.53772C13.4002 20.0874 15.4387 17.7589 15.4387 14.2896C15.4322 12.3258 14.4387 10.5922 12.5569 9.80536ZM4.28264 3.62165H8.69871C10.2523 3.62165 11.1793 4.63876 11.1793 5.99278C11.1793 7.55151 10.1064 8.36392 8.69871 8.36392H4.28264V3.62165ZM9.12143 17.0062H4.28264V11.4174H9.21799C11.0591 11.4174 12.1234 12.6243 12.1234 14.1894C12.1213 15.9294 10.8381 17.0126 9.12143 17.0126V17.0062ZM27.7256 12.5497C29.9615 10.5986 31.1202 9.47485 31.1202 6.68365C31.1202 2.86468 28.2985 0.167297 24.5219 0.167297C20.4599 0.167297 17.6381 2.72608 17.6381 6.61755H21.0178C20.9641 4.82854 22.4083 3.24423 24.4511 3.24423C26.4037 3.2421 27.762 4.69847 27.762 6.6538C27.762 7.61548 27.3114 8.63259 26.0175 9.78404L17.6188 17.2216V20.0661H31.1374V16.987H22.6958L27.7256 12.5497ZM46.0014 9.80536C47.2288 9.07398 47.9648 7.71996 47.9648 5.94587C47.9648 3.31673 46.1516 0.580965 42.184 0.580965H34.3969V20.0874H42.9801C46.8425 20.0874 48.8832 17.7589 48.8832 14.2896C48.8746 12.3258 47.879 10.5922 46.0014 9.80536ZM37.725 3.62165H42.1389C43.6925 3.62165 44.6195 4.63876 44.6195 5.99278C44.6195 7.55151 43.5466 8.36392 42.1389 8.36392H37.7229L37.725 3.62165ZM42.5681 17.0126H37.7229V11.4174H42.6582C44.4993 11.4174 45.5615 12.6243 45.5615 14.1894C45.5722 15.9294 44.2847 17.0126 42.5681 17.0126ZM55.9729 6.22734C55.3604 6.62381 54.855 7.16338 54.5009 7.79886V5.45331H51.5976V20.0874H54.8979V12.652C54.8979 10.9568 55.4966 9.59 56.8463 8.85861C57.779 8.36494 58.8649 8.23929 59.8869 8.50678V5.45757C58.5629 5.255 57.0651 5.48529 55.9729 6.22734ZM73.7423 7.77327C72.7746 5.83499 70.6889 5.0503 68.071 5.0503C64.6098 5.0503 62.5777 6.68792 61.8481 9.15501L64.8523 10.089C65.3437 8.59634 66.747 8.04407 68.071 8.04407C70.0751 8.04407 70.9614 8.82876 71.0751 10.509C68.5001 10.8886 66.2234 11.1999 64.6677 11.701C62.3374 12.5006 61.316 13.9485 61.316 16.0765C61.316 18.4882 63.0455 20.4925 66.2513 20.4925C68.5967 20.4925 70.1653 19.7484 71.4184 18.1214V20.0874H74.296V11.1061C74.3024 9.85227 74.2616 8.80318 73.7423 7.7754V7.77327ZM70.7168 15.4667C70.3884 16.4838 69.1482 17.8911 66.9122 17.8911C65.3587 17.8911 64.5411 17.1064 64.5411 16.036C64.5411 15.0871 65.1956 14.5434 66.3264 14.1169C67.3629 13.7651 68.6997 13.5604 71.0472 13.1957C71.03 13.8696 70.9893 14.8056 70.7168 15.4688V15.4667ZM78.1241 3.2421H81.4072V0.256854H78.1241V3.2421ZM78.1241 20.0874H81.4072V5.45757H78.1241V20.0874ZM93.2091 5.03751C91.0826 5.03751 89.4732 5.82433 88.396 7.08453V5.45757H85.4649V20.0874H88.7909V12.5688C88.7909 9.02067 90.5633 8.1123 92.2413 8.1123C95.3763 8.1123 95.6746 11.2425 95.6746 13.0444V20.081H99.0027V11.9206C99.0027 10.1849 98.6337 5.03751 93.2091 5.03751Z" fill="black"/>
</svg>
