<svg width="81" height="82" viewBox="0 0 81 82" fill="none" xmlns="http://www.w3.org/2000/svg">
<path d="M40.584 81.4603C35.0604 81.4603 29.8399 80.3993 24.9226 78.2775C20.0052 76.1556 15.7109 73.2591 12.0398 69.5879C8.36857 65.9167 5.47204 61.6224 3.35017 56.7051C1.2283 51.7877 0.167358 46.5672 0.167358 41.0436C0.167358 35.52 1.2283 30.2995 3.35017 25.3822C5.47204 20.4648 8.36857 16.1705 12.0398 12.4993C15.7109 8.82817 20.0052 5.93164 24.9226 3.80977C29.8399 1.68789 35.0604 0.626953 40.584 0.626953C46.1076 0.626953 51.3281 1.68789 56.2455 3.80977C61.1628 5.93164 65.4571 8.82817 69.1283 12.4993C72.7995 16.1705 75.696 20.4648 77.8179 25.3822C79.9397 30.2995 81.0007 35.52 81.0007 41.0436C81.0007 46.5672 79.9397 51.7877 77.8179 56.7051C75.696 61.6224 72.7995 65.9167 69.1283 69.5879C65.4571 73.2591 61.1628 76.1556 56.2455 78.2775C51.3281 80.3993 46.1076 81.4603 40.584 81.4603ZM30.783 58.2207L57.7611 41.0436L30.783 23.8665V58.2207Z" fill="#F44336"/>
</svg>
