<svg width="125" height="25" viewBox="0 0 125 25" fill="none" xmlns="http://www.w3.org/2000/svg">
<g clip-path="url(#clip0_161_126)">
<path d="M66.9863 24.1162C73.3376 24.1162 78.4863 18.7436 78.4863 12.1162C78.4863 5.48879 73.3376 0.116211 66.9863 0.116211C60.6351 0.116211 55.4863 5.48879 55.4863 12.1162C55.4863 18.7436 60.6351 24.1162 66.9863 24.1162Z" fill="black"/>
<path d="M67.8756 10.479C68.0648 10.2568 68.2198 10.0328 68.414 9.84257C69.0103 9.2559 69.7156 8.96079 70.5402 8.9679C70.9934 8.97145 71.4398 9.00523 71.8759 9.13679C72.8743 9.43723 73.4536 10.1555 73.7313 11.1723C73.9391 11.935 73.9766 12.719 73.9783 13.5048C73.9817 15.1617 73.9732 16.8203 73.9783 18.4772C73.9783 18.6319 73.9374 18.6728 73.7909 18.6728C72.9731 18.6657 72.1536 18.6657 71.3359 18.6728C71.1911 18.6728 71.1604 18.6283 71.1604 18.4861C71.1655 16.9092 71.1655 15.3323 71.1604 13.7537C71.1604 13.359 71.1348 12.9626 71.0292 12.5786C70.8333 11.871 70.3477 11.5101 69.6373 11.5492C68.6662 11.6026 68.1619 12.1039 68.0392 13.1332C68.0102 13.3786 67.9949 13.6257 67.9966 13.8728C67.9966 15.407 67.9966 16.9412 68 18.4755C68 18.6283 67.9642 18.6728 67.8143 18.6728C66.9897 18.6657 66.1651 18.6657 65.3405 18.6728C65.2076 18.6728 65.1702 18.6372 65.1702 18.4968C65.1736 15.4603 65.1736 12.4221 65.1702 9.38568C65.1702 9.23457 65.2179 9.20079 65.3542 9.20079C66.1362 9.20612 66.9199 9.2079 67.7019 9.20079C67.8467 9.20079 67.8825 9.24879 67.8808 9.39101C67.8722 9.75368 67.8774 10.1163 67.8774 10.4808L67.8756 10.479Z" fill="#FEFEFE"/>
<path d="M63.3915 13.949C63.3915 15.4512 63.3898 16.9534 63.3949 18.4556C63.3949 18.6227 63.3557 18.6725 63.1905 18.6707C62.3727 18.6618 61.5549 18.6636 60.7354 18.6707C60.6042 18.6707 60.5651 18.637 60.5651 18.4965C60.5685 15.4547 60.5685 12.413 60.5651 9.3694C60.5651 9.24317 60.594 9.19873 60.7218 9.19873C61.5515 9.20406 62.3812 9.20584 63.2109 9.19873C63.3711 9.19873 63.3915 9.26095 63.3915 9.40495C63.3881 10.9196 63.3898 12.4343 63.3898 13.949H63.3915Z" fill="#FEFEFE"/>
<path d="M63.6181 6.18557C63.6181 7.12957 62.8855 7.89757 61.9826 7.89757C61.0915 7.89757 60.3521 7.12957 60.3487 6.19979C60.3453 5.26113 61.0847 4.48779 61.986 4.48779C62.8804 4.48779 63.6164 5.25402 63.6181 6.18379V6.18557Z" fill="#FEFEFE"/>
</g>
<g clip-path="url(#clip1_161_126)">
<path d="M112.098 24.1162C118.726 24.1162 124.098 18.7436 124.098 12.1162C124.098 5.48879 118.726 0.116211 112.098 0.116211C105.471 0.116211 100.098 5.48879 100.098 12.1162C100.098 18.7436 105.471 24.1162 112.098 24.1162Z" fill="black"/>
<path d="M109.674 19.028C115.535 19.028 118.74 14.1729 118.74 9.96132C118.74 9.82265 118.737 9.68576 118.731 9.54887C119.354 9.0991 119.894 8.53732 120.321 7.89909C119.75 8.15332 119.135 8.32398 118.491 8.40043C119.149 8.00576 119.654 7.38176 119.892 6.63865C119.277 7.00309 118.594 7.26976 117.869 7.41198C117.288 6.79332 116.459 6.40576 115.544 6.40576C113.784 6.40576 112.356 7.83332 112.356 9.59154C112.356 9.84221 112.385 10.084 112.44 10.3187C109.791 10.1853 107.442 8.91776 105.873 6.98887C105.599 7.45998 105.441 8.00754 105.441 8.59065C105.441 9.69643 106.002 10.6724 106.859 11.2431C106.337 11.2271 105.846 11.0831 105.416 10.8449C105.416 10.8573 105.416 10.8715 105.416 10.8858C105.416 12.4289 106.514 13.7178 107.972 14.0093C107.704 14.0822 107.423 14.1213 107.133 14.1213C106.929 14.1213 106.728 14.1018 106.534 14.0644C106.939 15.3302 108.116 16.2511 109.51 16.2778C108.418 17.1329 107.046 17.6413 105.553 17.6413C105.295 17.6413 105.042 17.6271 104.792 17.5969C106.202 18.5 107.876 19.028 109.675 19.028" fill="white"/>
</g>
<g clip-path="url(#clip2_161_126)">
<path d="M17.3743 24.1162C23.7255 24.1162 28.8743 18.7436 28.8743 12.1162C28.8743 5.48879 23.7255 0.116211 17.3743 0.116211C11.023 0.116211 5.87427 5.48879 5.87427 12.1162C5.87427 18.7436 11.023 24.1162 17.3743 24.1162Z" fill="black"/>
<path d="M25.4075 9.93671C25.4075 7.91266 23.8299 6.27393 21.8814 6.27393H12.8672C10.9187 6.27393 9.34106 7.91266 9.34106 9.93671V14.2958C9.34106 16.3199 10.9187 17.9586 12.8672 17.9586H21.8814C23.8299 17.9586 25.4075 16.3199 25.4075 14.2958V9.93671ZM20.1071 12.4436L16.0626 14.5233C15.9062 14.6115 15.3654 14.4955 15.3654 14.3051V10.0388C15.3654 9.8485 15.9062 9.73244 16.0671 9.82529L19.9373 12.0118C20.0982 12.1093 20.268 12.3507 20.1071 12.4436Z" fill="white"/>
</g>
<defs>
<clipPath id="clip0_161_126">
<rect width="23" height="24" fill="white" transform="translate(55.4863 0.116211)"/>
</clipPath>
<clipPath id="clip1_161_126">
<rect width="24" height="24" fill="white" transform="translate(100.098 0.116211)"/>
</clipPath>
<clipPath id="clip2_161_126">
<rect width="33" height="24" fill="white" transform="translate(0.874268 0.116211)"/>
</clipPath>
</defs>
</svg>
